<mxfile host="app.diagrams.net" modified="2024-02-15T07:37:15.413Z" agent="Mozilla/5.0 (Windows NT 10.0; Win64; x64) AppleWebKit/537.36 (KHTML, like Gecko) Chrome/121.0.0.0 Safari/537.36 Edg/121.0.0.0" etag="0GmT_bCLtqW4aNRY1Dgs" version="23.1.2" type="github">
  <diagram name="第 1 页" id="VC0vuwM2tAjNzKDAxI50">
    <mxGraphModel dx="960" dy="605" grid="1" gridSize="10" guides="1" tooltips="1" connect="1" arrows="1" fold="1" page="1" pageScale="1" pageWidth="827" pageHeight="1169" math="0" shadow="0">
      <root>
        <mxCell id="0" />
        <mxCell id="1" parent="0" />
        <mxCell id="b7mZYk1uwkJI4-mQCpKp-13" value="" style="edgeStyle=orthogonalEdgeStyle;rounded=0;orthogonalLoop=1;jettySize=auto;html=1;strokeWidth=2;" edge="1" parent="1" source="b7mZYk1uwkJI4-mQCpKp-1">
          <mxGeometry relative="1" as="geometry">
            <mxPoint x="68.0599999999999" y="646.91" as="targetPoint" />
          </mxGeometry>
        </mxCell>
        <mxCell id="b7mZYk1uwkJI4-mQCpKp-1" value="" style="shape=image;verticalLabelPosition=bottom;labelBackgroundColor=default;verticalAlign=top;aspect=fixed;imageAspect=0;image=data:image/png,iVBORw0KGgoAAAANSUhEUgAAAQoAAADACAYAAAD8zy2vAAAAAXNSR0IArs4c6QAAAARnQU1BAACxjwv8YQUAAAAJcEhZcwAAFiUAABYlAUlSJPAAAGMJSURBVHhe7b3nk13Hdfa7JifMIOdMgmDOSRIpUZRkWX5ty2Vfl+u6rl3+7j/Bn+6/4bLL/vDaZZVdtq5kv8qUSJEUcxYTQORA5DyYdObMXb/V+znTs3EmATMEBOwH6Nl79+6813p6de99ulsmHFahQoUKM6C1OFaoUKHCtKiIokKFCrOiIooKFSrMioooKlSoMCsqoqhQocKsqIiiQoUKs6IiigoVKsyKiigqVKgwKyqiqFChwqyoiKJChQqzoiKKChUqzIqKKCpUqDArKqKoUKHCrKiIokKFCrOiIooKFSrMioooKlSoMCsqoqhQocKsqIiiQoUKs6IiigoVKsyKiigqVKgwKyqiqFChwqyoiKJChQqzoiKKChUqzIqKKCpUqDArKqKoUKHCrKiIokKFCrOiIooKFSrMioooKlSoMCsqoqhQocKsqIiiQoUKs6IiigoVKsyKiigqVKgwKyqiqFChwqyoiKJChQqzoiKKChUqzIqKKCpUqDArKqKoUKHCrKiIokKFCrOiIooKFSrMioooKlSoMCsqoqhQocKsqIiiQoUKs6JlwlGcV6hw0wNxl8i3tLTEEUznx7X8arVaHNva2uIIuIc/R/krLR2B0sGvnC7Ab3x8PPxaW1P/Xb4vcF6v1yM/+edh8/OFQmVRVLjpgTJN5wQUD0UVdK8cfjr/3C8/J12hfC93uX+OchiQX5fvLRYqi6LCTQ+UVT3wdBBJlMPgr7jq6XOgPnkPTlium/XqUjXd41rxm4XHj/tYLOSNU/qAc/zKcZulda2oiKLCTQ+UHTFH2aV8uFyhpAbl+/Kfbjig+0Bx5OSXh8njgzyOruXkL0LQfUHnCieya29vj+NCohp6VLjpod4YSLlQvlwZ854Zf90H8ueoe/l9wHmza/kpH5D75eXKw+fnClNGXmaQx1loVBZFhZseuYjnypQrKpB/fn90dDRIoaOjozEsYSiAH3Gb9d7E5z4o5wGUvvxFPISVK4P7Spdy4JROGc3iXysqoqhwSwAxL4u6FEr+HPFDGdVby6+sfEqPcJrHUJwc5biKB+RfvgakhwNKV8SSQ+F0P09jIVERRYVbArmCSuF0zVHKhuM6V7rBwUE7efKkHT16NPy2b99uK1euDCsDYGHkceRAnof8gPzll4eXE1FoIhVCunTpUpSF8Js2bYoy5GmpbguNiigq3BKQ8gEpkxRRyBVZ5xcuXLBdu3bZiy++aG+++WYo7bPPPmtf+9rXbNu2bRGmmXKWFR8ykcLLn/zxAwqPH/fyNLk3NjZmJ06csN/+9rf2ySefWH9/v333u9+1FStWRFjVLa/DQqIiigq3BBBzXK5IXEtZ5Y9C0ksPDw/b/v37gyAgit7eXlu3bl2Ex7+vr8/uvPNO+9KXvmSbN29uzFWQJj0/jnRyAuA8J6lyefQaNJ/3IMzZs2ft9ddft7fffttOnz4dlsTDDz9sTz75pPX09EQ4pZ+nt5CoiOJWxVyfusvd9EGLXiz+FmgELsWaRoBdVYqzhJYmmU00ido8tenRTMzlJ+VFuS9evBhDjIMHD9qRI0finAlNSOKBBx6wzs5Oe//99+3w4cNBMFu2bImhyNatW23t2rWhuCitCEe9vfKSIpfLwzVEoTicQwrks3fvXvvss8/CumHI89BDD9l9990X+ZEe5RZJVERRYWHQeNp+MuXJN9fGCFLc4hxjvTCe46+P6P20pO5xiz8pTKSDAE/ReM7TtbxdzBvRwqvw576rWrpwJO/8b0JZlJspJX7Nwo2MjIQifv755/bzn//c3nvvvTDvv/3tb9uOHTts3759QRIQA5YERPLrX//afvnLXwY53HvvvfaVr3zFdu7cGdZGOY9yj6/7ugaEgXwgpkOHDtkHH3wQVsSnn35qDz74oH3jG98ISwIyUViOAHLJ01poVERxq6HxtP1Ejz40tSRkxaVu8SkPoRHL5AU5+FjafbACEmEQgAt3rR6Ka/74eZ1/xf3WFsbqbTbu15Fe5NXq/1yRCOMuvICf1COp9K/witA6F5oRAMj98eO6rFTvvvuuPf/880EQkAHWw8aNG2337t320Ucf2ZkzZ+ypp55qzE2goJAKPT2KzLzBqVOn7Jvf/KZ9/etfDwtDkDIL5bzzayZOGWb853/+Zwx/brvtNnv88ccjz9WrV9uyZcsinOqkI2mU011ItP2/juK8wi0FF7CGXHFSXOS6VnhDFoj6uN/kWIioq2qyJII0YAEpZH3c6pcGbczN+NrwkI+5PRQmOGEJ42FD6QvBriPkjX8JOnJCPMgCvyKHIBXQCNcEzRRHCoWCYUFgGXz44YcxSYji4w9RrF+/PhQcs5+3DGvWrAlzH4Xt6uqKHnxgYCDmC5i/YKgBmcgyYQhDWvT+hM/LonOVBQvi2LFjQUoQlkiHuQ/mQJ5++ukYZnR3d0ea5bTya1C+XghUFsUthsmH7Sqvi7DtC+HNpcE7bd3Coqi5qPCPkBgMbX7dxvWEp4V5ANyvPjRklw8dsaGL563e1mrLNq6xjmUrrLWn2zPw8ffomI27EnZ290ZquMl/pBEpNZDKAElN3nCbJI4RvkBZlHOF4Z7uay4CcuBNBiY+1sMjjzxid9xxR1gJ77zzTigvQ4knnngiSIKhiCYaIRHSUx4QBXMKDFveeuutIIsvf/nLMeFIGpCF3nCoLKSBH2SFFfGrX/0q0qEMDDPuuuuuyBPyIZzi5yjXEVREUeGaoYcdaldcNFTUr6cQBV6FC0sC4Q5vJwj3ayUBdy1uQcQNH07Uzp+3wcNH7MSefVZ3AW/v7LARD7/mtm22asftZl2dNuGRg1fgKhTAyaMlFL8gihLIn4KlfwnzGXoIKObly5dDMZ977jnbs2dP9PgQBGY9yk2PDokwaci8AMoKiTAPQXqkoclDFJcj+XLE//jx42GFMBzBUsHyuOeee+yrX/1qWCoQhkBY5jkgJd5sEO7uu++222+/PSwILBVAnuW6CLk/4QB5LjQqorjFoIfNnAFWQugg/1wb49wD5CIZSuoIoogzhhwiCTQdL/+D5nvgU5/ttmMff2K9nd3Wu6TPb7fY8b37bPnaNbbhnrusfcMaa+ntimj1cY/vgt4CUUzEDAUZTBYgK0iiCP+Ln58qrBR1JhCGD5V4W8GrTYYImPvEQ3EZQqDkhIEkmAegV4dA+E6hrIy1Wi0sCxSSNOTU4zO3cODAAXvjjTdiOAOWLFkSwxmGKlgJ+PPaFSuEvCEm5iKwPiiPoLrl9cz98mNFFBUWDHrYtRJRaMyPqE+xKhxISBJBF0KC+XULQoklUVgCrj3uxu2jl1623e++Z9/49retf9t2Gx8cssO/ecVaXBn6t26ypQ/cY639vPtPJBFZ8adMFMXpJCJQ4ywYg/+ZAgEpDX44rod8KIT18L3vfS8mJlH+v/zLv4wenrcL//Vf/xXWBG8z/vzP/7wxD0FchgIoIG88yumW8+ZcSkociAOrgeENk5OkxRsU5hqYj2Ae4o//+I/tmWeeCX/IizRFOJw3Q56nygHkP128a0FFFLcY9LDnSxTykghOIQqUdtyJYnjUPnj+efvYieJ//cX/bUs2brG6m9Tn3/8gwnZvWGtdd++w1iVOFC0QRasrDz+6mrDOju4oR0q8cFNACVIp4u8ciQLFxbTnjQZvFPjmgaEExMErT/zo5SEJhhmco8hAcwOkkedTPhfw4zovA8oPCZEXFg3zIUyOMszgC09Iafny5UFM87EE8vzz/EBepoXCwtsoFX4ngCjlDswkXpP3XBgLgXSJLI7Fn7ZWW+Jm+6qVq2zozFlzjbCWS4Nhzo84kbS0dxRx6j5qcUUOU5mvFd0P79yVQZbK1o/TBcshhWFSkiEHrzz5DoGhBWVifgJy4K0C30DQq2sOQWY8aUiBGSLggPxQzrKCEheHP+EgHuYcICjenjAMYR6CNxr45W8zlIbSzJHfL4ctx19oVERxiwJxwnpAAELxCidlnKKYHjiceyT59T8k4BZB3GAYQUJdnbbSe+TtrnCXT5ywCwf22cj5M3Z2eNAuc7/PlRAFK9KoT7h53t5m7Z3u78lgJITj9nTwm9wP5Ug+s4KhBwrOmwt6b+YomBP4zne+Y3/zN38TbyYYjqDcDA9wQF9JShFxZYgQyvfwJy5WCV93MuRhDoTvIrBeIAyRDUcslzwdpSvlzwmgmd9iI5W0wi0HHjxEIcd1iF1oISdN0Ajg4FyRGuct1r96ha3feZt1LR+wYxfO2P5Tx2zzw/fZpi89Yl1b1lsLmZFGW9COUwxvQFp8KMRwKChnBigz3OyQ0qHwOIYZTCQySfkHf/AH8TUl/gAigSCYpGw2RyDFV3iGFLVa+qEXUF46igQgB+YjGHIwgUmaSkvpixRIj3NAul8kEcyGVJsKtwxy66GpK8LlQKHTPwcBXID5JDtZAO6PFOHaXO2X9FrXqhU20uEefd3WtXKZnW+p2eV27x3domjpcEVxpazXeOXnvainUWupu3NldceHVU0LgdLIOaIss0BKC1A6iABFZ+ixatWqGAKgsITDEUZxpKRcQyJcixRQZq4VPj8HugYoP29BmKfg1SwQMQgKm5MHyM8J38wprzzsYqAiilsVyCmODkznk7I7FS6DKHQocKsrhEtNXLsHRBH38efjio42G2mdsMNnTtlYd5f1rV9tb376ke06uNez8vG9DzXIsl5z5WuFKPi8O2U8UxF0r3E/8r8SUiBQVp78GuVX7w0gAUiEuLm/SEFKzDUuD4+/0s7PAfGYg5CFQFyVT1CcMlGUobqV438RqIjiloULZEP75wYpaii6HMKPcIewI04Tdv7yRXvpnTfsbSeIPceO2s9eedE+2Lvbhj1G3fNscwVrK143umr40Ie/qSRzKk1kN3tIFC9Hbs5Pp5SEwQmc5+kQh+EJRxS2fK8ZsCqk4OX05gPSl/uicXUlrnATwIUtBE5u8tCAX5f7rvxaPMMxhiJFWmPea54evBSTmJfGRuwMX2sOOU14wOir3fpowXHqf11944gw4ic0iKmRh5z/kXM0U57plGkmJVM607m5hMEpXI7cSpkNeTqC/Mrui0JFFLcqXMZC6VwCGgro3pPKmK4jHMcCftlAfi6lDl++tOzotIlON819qNHZ3mmdLe3WSqIlMHLxkYq1FY5rEoqg7lSO3IrhusIXi4ooKoRCNtwMyIOp9y+fC3UmOd0Hcugcb7Wu8TZ3GmYoRoLIIlzhJ3LgiMtRvq6w+KiI4hZD9NDuZM7nZj3nZVdWypi7LLRXCh5+3IsQ3HRgGnuiEEW7a3xHzcfnniBhU4gUuhHXwyhdoNPicgpSzJmRT/rl5xWuDhVR3KJAbdRjc5zsvSf/6ao4Tc4Ryp27wm8S4ZP+OVG0QRZ4T2YyJb3GUfcXARVRXBsqoqhQgjT4Shc9OadT4L7xIUUiB1yrWw6tdR9k1FvdimgNq6J18p3qzGgShNTLbr74Iif+bkZcTZtXuAkgtZ4NChcWgzudNywIlD/Op6bWGEoUiA69CBJpFP8yD4tPRDNkURp5Rpoc8Ys7c0NlUVwbKqK4xSAFyxUvXH7vCqcXn1K24qjLJiCshIuvLkchAT+WowTPuHPDI82JZGEa8x84v87PIxBuGuSvDzle7bcLFRKq1ruFgRohANO5pGYF0NDptHNKQA9RXAcBuBtzkoAoOE4J6+ekxu8x9VsP/d6DYFPKkGfbpAgVFhc8i5lxhWxwcbWzTopbdleTVoVrAQo4xfkjaHBBAd1rYMqFIwsw5QmG30R62+DnkMW4k0TNpa1BInKead3HKcml8BgCKo/cZAR314DcytD5F4HJNy848v3i8r52TFqHM6CoHJWUKyo7McF36+nb9eSmBsMpekpC4XOnuKX4zh+T134v1i8oHNcQDDcLTE3nSlcO0+z6i0ae/0xuvmEFXZfDhOOfH6/47QGnXPNfjmctb/8Tyu4u+aW0crknXIuPG1rakjJ6DhG2pc3FjXBcxJ/kWJ8bF8MVj9wSGREmbjdFXgc5+edHkBMCv/rkp98c9WOvMmE0S7OZE3I//RZEIG389Wk4n7mzVUHeR2dJBbhu5qItCjflXvlf4x7nk85vhYvrQo/k19QVJ/ybO1FcYQHQIONWq43ZOAovX/9D/s0QvxqsJwNzYmLEHb/7T+lMTKQFQUiE03AExduzHK/VrTbm8T2NiOPH8dpoupmVL/2jas0xn09pvwjwsK5Q1mmQh4uHncVROtOhHDeO/q82Xot1IYS636uNE5YrFEhKlFSZ1ahyjHtY4kwB13yd6VFbsBJcRjrcr4u0/Na4nyuZRBJ1a/MH3RFHzyU9yuSEqbocUBuoPmWU/SEGFqzRTmD8onOuIK7y0rlQq9XCD/ALVa5zsIze0qVLra9vibeHkwS/mi1V6IoqcF12JUz1bh5QZc7LC0mgT6Wg04BA9dmJou4VZyUi8kHYxrwR+LksqwaTeUdHl7XzK0APSxiEgzaLtoo4yR+MOyHUWTLNEQuqFm2V4tSd6Yc9LL/WS378xgjBHBtzYWptsfaOtMAHLF3zcl24eMGOHPYHfv5c+JFmmz8EP/Os+Ufe6Xf+OM7Ve+QNR73oZWZStIUC+ZKPFDeV+8peTVDZBQSSa44qL3GZrMOxzBrrQLJWo9LUUXXmWueNHykRxB3nbf48FSaFmwyPVcBZXBG+nefo97O26+7u9Gc2aqdPn/ByfG7dnV3hPBFr9bBtYWkQUsKRyMLoRBAe9+I2T5Cfo0M0E3V3ziC12og7OogI0CA5tUleZ51DDsir2p11IVjD8p//+Z/tpz/9aWN3cICiS+nlB/JztTttQr7c02QpPxjDcQ+ZYtewxx57zP7sz/7M7rvvXjt37pydP3e+kQeYTNrlujYeehCVK4GmQhQie7+gHHTUo2NuIblLHS4knMib8JRNZSc8993HWvml7zww6wZAEzR+CBLCkxqSpcVef/0NO3PmbDRKd0+vtSNwfj+qRwkpTrQdpfWD34Qk4gNeTNDwTI6fG+shtrexurH7x8AUQfCju/ZOEUTNe4Qj9umuj+3Djz6y/Xv32lEvz6VLg7ZkSb91uUBGw/CfRvI0onGKxgL5OfcAeYuEFhPKT2WSkx/Iy0C5EEL88vu4vLws1Prxxx/HXhWsB8nO15jXPB+WdxMh5OmAZn5KU8ivm51zlENxDhw4GFvtnT9/Pq6PHDkaC9necUfa30JwkfbnQ8eA5EMQXga+3oyOx9OOMqV7La1+9LJOuDKAVpcToHzVTqoPgCBYfv/VV18N8mR1a+SXcmFVcGS1KywL4rMkP+XTr0MpO1B6OgKd027KNz8nPRw/MWfdC54Fz+W99961Y07iHZ0dtnzFcuvu6nSLI21mTJLj42kxX1b+QldoJdLlHs0Bv3jyma4lcqANVXf8PbX0r1A11IlOGJAWOsYxbk6Hxi0fOs26U1iYSik3CGN0dMx27d5l//t//2s8BFbw2bBhgzdGXxQURqQi9BqRUeGoQJsXDpJIfT3gJmmncRuNkx4AEbxR3Jog63bvtahVfXzCFeC4vfTSi/bTn/3MXv7NS3by1El7x8uxd8++WA6918mi0x92pEPLkroa0K/LPQB+QMKR8l9cNMsH4aAs6aGn+5yXyYtyyykMz4Bdt+kl2RIPgUQxOHKf5d/o2RSevJQHyNMXCCfkYXPgl/e+UoZXXnnFy/G+W55DNjw8Gj34ihWrYuerFa4clB2FiHkMiMCF3I1hUnE/xu/ecYx72ghoh4dp83tBJq6ILj+t3iYRNiuX2kPXkADLz/3rv/5rlAkSgEQhUJbBY+s/5BbC+JnLEhsSEwZCo82pF5Yz6clCUPp5XjoHCsMRx5AjEecB++///m976cVf+3M5aEMjl71zO2L7D+7xsqywgaV0cPzsvtAddlZj7F3M4mIppDxIG0Lw01D0lH+bt0lboxzuXGni3F14eRpJ5yhX0Y4KG24aNG55vbxCkxIxDRjTeA6eKUw5bidOnrC33n7P9u7dHSYdDXLbbdtt55132m3btxf7EiACiVUjDU+CypAZ/l6FCBOVjRApzMREocgQVHhaCNxB76V48OzidOnSRWfjZbZl22bbtGmjDz+Ouv8eGxoa9rHgcrttx057+KGHnDjWuoWS1i3kYUsAqDINHMlHvVKDLybIB6FRzw5oG1w57/TAE9R+hJGFQBqkp5Wd2R+CVZQYByPoLPfGOpFsTYfC8Dzuv//+WDOSxVyVH22R55Wf52Ihf/zUXjjOSYu8UAZ2u0IpaW8WqtWy9x9++LFbocc9/Ljnv8Eeeuj+2Oimv599NBkSDnt69egY6hNeP+v1c2TA26YNImEui/IgNU4iE543YbnlMkmbCCi+tuVjSAEpUA7WqOQehIAFAXGy4C1txhJ5DNXwZ/Ur2gnHDuaAemKJkA/15Tp/Lvlz5NkA2oDnwiZAyOzIyGjI47ZtTkSd7d4eR+3gkcP+ECZs9arVtnPnHfbE40/Ykj7ahLTZd4Qj+Unx/ZxlwEJ3kA1OC4ssjlwnogXxvLydeNw8cS91DP8J2E4PXHTSSm8KwivJACQzq0URm7Q4Ip7/gdGXuCBu8d5h2bLllMZOnTzlTHnAjh/73GreU7S7ZdDd7eYu5hOl9/wYN01QuCgg0VIhXeyi9+CYglIRehd6mVr0Rqw3+OYbb3mD7405ku3bt9ljjz8WW73dfttOW7tuTVgRZ92MPHHqjJ08fsJN8dMUzXuJ7liJSGsdSkloRJArAdD1YkDClOfJednlZdE58XCQDeNclAHFRCEQYhSCpeYhBRSDVZ5RUgSWYQmKwBGlxhSG3BFq5aF8BPxzqGxAdSAtdsViCz32ruBZkSZL4rNR76OPPuLEtbWxkCxmPtv4H/fnc/HiBevsaLGunvRsGFKEDJhbdjjyQlz8EKtoBSAJjnjKqkqKyjCDjgRrBnmhjdj9i9W1kRMWtKV9qDttCIkQhnpDCAwRaCssDurBPdoIK4Oj6ixSIF6zNiEN6sgWAQx5mDSFYO68c6c97jLLfMUdd9xuK9ySaHP/C+cuOYEdi+EZhEVH2d3T2RhCMxkceaA/XncmQ5VnPLK4zxFH+6FLHiY8XJuIwxnh4oxm9WORhvwS8E+HhMmLWYmCWfEogJz/o3zMJaxZu9p23LYjTMp9+/Z447xlR50l6/Ux6+7rst6+3kIYnRAwKaNwyUWv4AnhxmIo6BUpeGSsNmIXL52zc+fP2JsuhIx3d+3abVu2brM//F9/bN/81rOe5xYXsHZnyNFQCHrK++9/wHq6+9z6OBKmOJOcPb09Iag8bMqvBxw5ZucIjx72YoB01dsI+JXzo0wy51WePAzKDkmwaQ1zEgwrvvvd78bu2ZABwkk8lqFn1yn2jyAMW9yxcxW9G70ohKLt+ZW+FAAoX93Lj4TBgqGH/sEPfmA//vGPY6jDTt9saMP2eaRPUoSnl77rrp1uRdzjCn3J3n7r7SC5Me9UUNz+gX4b8Wfe1trpSsUcRsEQkWdMc7p00KmkZfT8Rlic1JO2wqpFMdn3ky36yO/3fu/37C/+4i9CLpAPwkIGkAVtwpqZLHr78ssvh9VF+z366KNBLlgB+ENsEAUrdKujQU6oP8+SNAFH/CBO2oEy/PCHP4z24RkwkcnS/Ax1mBtgmI1ubFi3wdvlPquN1cPqevnlV6IuS5cu8WfWH/KdnofLBM8GK6sV6yk9l0jLFYZFgFAcv0KLYrFi/x/hcDWPC+i0iYeOFbdSE4fjwo/pzxR4jNmHHhSQNw8wUmcIuhcCS4ebZOjnDAVOnjhmBw8fsL37dtthJwse4CY3gx9+2Bl051020DtgGJDFLnLUPdLgnBJEXd0hFh/tetdefonx3CHr6ui1jRu22qaN2/xhbvfzjdbb2x2VxZTFxeSnp1ar1d18HLJjn59wYvnUDhzc7w1/Kh7qQz4UwUFqQGa3BB/oejGBMoI8H/kBCZ3KJHKhl4MwUXTAlncoI8LJEIQeFaHGkmD/Ckx/CTdzGExAQxbERwFIF8sDpaZN6PXycpA/15QzN+3p9bSxL2lCQigAioYSQsooJFAdGK7yZHmzdfbsmbBCcIePHvLnddYVcZl95akn7c677rUVA2siDlBpasifp6UJOFRivDZhh/z5fvDBe06c78V98saaYUjBEAwywF+O+qhNaC+IlR6fNsGSQCaIw1wXdWaYQrvTybAPKe2qoZtIAkA0tC0EDjmQB+FYmp9yqE1SHGrltrLnRX6tTo4Xzp23Q4eP2K5Pd9mRok08S3v40Yfs0Uce9jKt9Rq7B1a4NwDTFx7V6+Rt4Y+mlRV/ipRr7s8zc8O/UE9IxuvvLvzCAknhASSQQOikR80wh8lMIhYNTSHCy/8qL2cNGnWFM/GWrRusz5V4ZHTYzl0470OAk3bqzGm3DoZ8XNZj7a70E/U2G7zMAyPNFhsecuvEyzg0NGKHjnxu73/0jvcOb9j+/Xt9uNXmjX27PfbI4/bgAw+7iYhl4FYEr4g8X9qdoqQSRmGil1y9ZqULywbPz/MavNQwuzEneTiUlwfHkbpQN8B51G0RQf7klwuaBFkCSBk4MqSALOnhmKSkB6RHQ5hRBsDelQgn9YE86BVRfK5VL3pUekVMbOYvIA61CaYyyk+e9O4QCOeUE9BGpMP4HUJCGbTTN5vokh+7dmPBQFyJ2GhT4pN/UlA6G+o04NYDhLJqVSKEM2fPuZKedAI553mMuDVJ3ftsbLTNRsc8HZ4v5fHedGSYcrXYae91P/Ee+PXXXw2rijpQZ5bhZ/9OlBM5AGrb/JxyoPwM1yA46gjhIh+0BXGTRZRecVJ3iIT6QowQMmUiDnMzb7/9djwfiIV2py2eeuqpmBciPG2SyuAuxEsU2GYdnnevW73r1q11QnGLo60jSOzzY0fs1OlTdvY8b2R4Dj3eFl3+7Fz4PRnqACkk552kuxFvOyyK1la3+EbGvS3RkWKoguNunBfFKDBJFiA/n8TsFoUq5YeRYSbTWNrMWbkRi8rjYBE8KeSg7d2/3179zWv25tvvehod9uhjX3PT9FkX1NXO0med+fs8eKed+HzCVq7yh3/mmPdUr9oLL/7ErYURt0Tut2e//qwL1TbrauP1qw8d/B/WDA2HRcEkTj0mP/08lcThgjrBrLmfenkuXjwX4/hf/OIXsVsUTM/OUDLJxfQohpRkMYHyk4fyovlxeb6QAeEgAWbkEUKEEouIciOoL730UvSE9F7UB4XFQqAueVooKekxEUpdCY/gkyYKj6BDJKTLvAK9H4qDgqBMlA0LhDZEIZigQ4koC+N/CIv4sj5UJ76jYDKOera58ONPmJGRsRi2IkdI1hHvHN58+w376c9/ZuNODDvveNC+9tU/so7OAS9ri4/lu2z5Sp7PhB077um5Euzd86G99PyPnCD3OSlsjjcYaXK0P+qqOQW1LcjbBPC88SMcQDmxchhyUFfArmLs/cHbD3Y/FxFDLqQLcb722mthXdFmhGczIawayiCyVR5JQnEIsLcVLOhWAh0mQK65e/bcWfvgt2/ac7/8hR08dDg6ySeffMat6Tuc4Afdul5uq1f1soOjXR6irT2SJ8E8Zm9fi/UvmbCjn5/ztmix1SuXOhFRBtofi4KgvExIZSMeFlqcNBzQMWFOROHNHTVIO14zEvJEeMrE1E/8ImN3MQxAIEbt3PmL9tneg7bvwFGv/IjtvPsBq9c6/IEctWefedQ63cLYveuEk8EqJ4pD9uknb1vfQItt3rLKbtu+yVYuX2HdnU4omF2YRmSDA1EPiIKNXYNHw7POzxD9PI3dEIi6j6eHQumYkWfiDeWg12DcyIPF1PyikAuPlAoFSj1x2tWKyTCUEhMfgcOEZUiBwlIH7jPPwPgXQab8kB4KC0gPSDnIo/yYyYc2oS3IBxOcHhMTmwk38mMeAiVgyINlQx4oA8Ma8mQuQKb8JFEoP8rgDr+0bE0qQxTDn1Yb81QQZy2svhOnTns5PrSLF+pOWl92QjoQvfsDD+60HTvXxmvWDz445FbAMrtw/qjt+vh1e+Thu+zOnbfZwNJlQZ6TPXfKK29XrqWwCiOIVGgT2pi2gBAhDIiHumIdUG+sLiyxX/3qVxEG8sWSgaiw9LDc8BOmPovULi3RqUIUXjaXV6wlQPFQdmT2/IUzdvLMKX8+h+zjj/Y4gT5gS/rW2su/edfuu/cRu+eu7TGMP+16dcEt9paWMRtY1u9k0m1r10y45bfXh0QjtmXTGtuw0dunm6FlZIuWRFnINekOiKs4m3qeMPsHV54ojorySoXHXtwI3Q2EFx6FI6ybSrzqWbt2jS1dttKHAV2uvD1u3g3Z2VMXrW/JCrs8WLczpy86A/a5kLd4T9Vu9z9wtzfKDls1sNofMhl4y9GgjsbW/LhGnpQt9cjpYSSGDr7ykDApyoZi0fsRht4SoaBnRTAQBoReQ5HFhAQ4JwoJMQIIkfHKEzMWP73JQGkwf+nduGYWn96N13gIL2UvQ22Cy5UE5YFUqDNOVhVtwmQawwryZ8jDcIcxOEpAXpj2UphcCdVuHJJD6tN5mj1LiLI4ScAjPL0OH3fyZmrVyhW2xJ9R/5IBWzqw0pWVodF56+zq8fouj+Hqvn1HbPXqfnd9tmb1gD3+2ENuja6MupCu2hGoTFxPli0dAefla0iPtsWqoiOBKJENyB1H20CsEAQkSxswzGDoxfPAomn2HMBkXsgrVnChK7z65JTypCbzMrd4m/TaqhWrbPU6OrE2W7V6nZeh3T76GLlY5kP5ld4ttzpJTNgl1yOGGgxDWtu9Hv5c9uw5bINOIMuWDnideqyrMz0roJJ4jmRbXPNXd67EHCwKXkmkRIImXAnjCZdRvNLEFVzlD8uPMUtrNuq3d+05a4cOnLXzzoLtbT6GdjaF3W6/fb1bEd3eY3msaCzSqIWjN2qdSEOdqFik5ogsKAjlI1+A5ySxAKwh9XYIDecIAJNP9AqY4PSef/VXfxXjXPWQCw01M0MKzsmHMnGu8kES//7v/x7DBIYCWDuUlbcVmMSMvZl8ZPyLQKIgKLnSnhTG2UEcHApAWcgHUxrrAXMaqwVFoCf91re+FRN52p9Tyqd8y5icLOOI43l42bLgeYjG0YPwFbePAuzVV/fZ3n2nnDw6bdtt2z3fFtu3/4B96cktdueOgcJGWTxQN+ZyeI2KdcdbDDoWLBcmbxnuQNTMc0xHDlcCOUVPit8oxScCxVueotfNmijmZxQDEjh0YNBeemG31eo9riurbeXqZe7PXFb6PmJo5LwNLGm1DWv63Tp/z4l8wh7yjnfd+l4vt6dP4p4mUpI6UoC25rk2x5wsCpLO//H/CmR+mFdkHyYnAuV+mJkXL/qQZNiv65iIrTYyNGKjI8Pem9CzdVhvT6pLssRIwcfx4XxE5Tcid+XDMc4pXypjcpONLiDU9AwIOQ8VxaAnZXKP3hLFROmwOBCExQLCh5KVe2IcPRRmPgTGqz3Ii+8CUFoEliEB+2Vi+mMdUV4JKPUCV0MUlIUjadAujK8hCIiCOQjKgiVBT0v66rFnymvyHk9Tz2X68IQCY64M/FaJah06dM4Gh2puPayyc1h+3pt3dHU7WS71XrIjnvD0KV4b1Da0MfIAGWBFMbzgOUDgzFcwFMNanTuoKQ7VT8+sQaIlmQXqkwnpIuqyOuFWzbD19C73tljiVlbN9cnl2ntXfuJw/vxpGx4atPbWCTv2+RHjS+jNWzZY/0CHW24pMVeDSDOM9QLo1Wy4snRNQDKNpHTSNG08PckwNX0I4DUsZDiZmk6LMFlPd6ebji7s3sYnTx53RRiMNxmNJGEV5hqKlqIi2B5zBkHdjcfrU5rFL114JQAAAUAZGX+iLMx4QxiLjbw3xnGN03AIQmNOAsHElEVx+WDo2WefjfkISIJ4pDGTss4FSoP8qT/WFYQBgWoOBNNaw7L5AznIylg8lxw84oZ/8cj5rqY2PmodnS22dv0yF4cRO3vhlF0evhRzGjXEw13xKBccGmrQNlhsyAjzNhAn81pYV3Qq8yMJoahoEARtWmojgEXWGJqkA/MR425ujduwrVjVbsuWt9jxE4ftwuBZl3OXG7ts3b3ttmJlt61e1WnLl/Zad2d3/KiuToORrDv0L34Phvx5I86tDV1Oi7Np0aQak+CGnCMZMag1X9cxVxCe4UinzjcPzo/9fR22eeOAm7LdNnT5oo25klBokqEijSEOpkVBFvhP1Yu8hlNuTMKDqLdFGdSTy49rKaqUbzFB+uSdkwTgXGUBHJkTwLTlo6E/+ZM/iTEwYSAzyERpKPx8y054nNKAKH7yk5/EvAQWDHlBpihDno8gvzJSOXCElSuVTUHCm3SS440GPR1mNo+91wV/1eo+F/5eL4fZyOgFG3WioNMh7jyrPGeU24a2wLrAgmD4JWsub4+5QZV2OWQ4DVEwTGYIomZooPBwwmgL56etY9bSNupDDrPlK2s2PHrCWjsuWVfPqPtfdlJd4pbOGu9kltrWreu8rOnL6RB3b1NybvfsElHErZRN3NGzksNPmANRTI0wEzycZ1ofE0v5Nf/TIQRgaX+vj5eW2cYNS723NFu3dpWbcnfbpk3MWqdZ8Hit6Ugf1wRlJI8rQCZJ4VMOuUvgQeJQTh68HqwEAIWj5+D+/B/61YH8yFfEQFm4Vhkw/yEDyktPxpsI7hGG+yiuwjDfoTRx8wH5ygHSZ7KONJUHZcCfvBRuoZG6luRGR+ue/7jXecI2b17rZrPXv89s+46Ndv+D97mltcWWeucSvxtzLE6JktzwfATqLhkCel5XB+SMtCGI2a201DaUqe5WXrfdc9c2JyyG6n322ON32b33bbIt2wZs/bo+27ixxzuYDiexCVu5YpmtWbMiJjL5VD4SKaB2Q+SLKk0D3aTbnwXxpqHh3GPK05GHPD1M0BUF83OUHe/i9kB/p1eg2zq7J+ztdz6wI0f32j33brENG/qsrzeFS7GLf1GLSCHQuJz0cuSeNGtWoqIVyg9VD5yjzlG0xVIGoLzyPAVdkz9CKKCwIjAJK0fC4694up4P8riAfJU2TsQjQgPTtY/iKK35IMVw89ifGJNv8cNBtyQvDV72MfjF8Fu+vMOWDnTHsCMUNuIsHqhnXledy1/1nD9ZeDySiklMHOlMrU1+JQIlUodzyrKBLtu6ZbkdP7bPPv74fe94fZi4usM2rHULfV23rVzabl0YKh5lmQ891rg1NtDPR10uH54wacd0wLjXI8Zu+LlvyiK5BiZLQinmIF3NKlWkqrFU4Zia4EdjqR1pUPyL/P1Pb2+LLfEeol4ftRee/4W9//7rblV0OzvyCtPjetjIJSI4FDEeVNnliFiZmwopGMgFAAWQCZn7LwYkZOSl3kqCxjWO+yhorpg4BDO/DyARyq40FWeuKCs26ZIm+VCuUMgiX1kXM0Flzd2c4Z0Q4fmlL72fj0RdGU4Zvzit+fianIdHh+3kybN2eShZUU3FYIFA3dVxqB55/SUven7zAbWZdFk1SL7IQqcRyvPBdfjj7e9qsRV9LbZ713v22ivP2dDFz627Y8RWeCe7emmr9XWlOPzt62t3cmWtGORj6vOAJCbLPuk/E+YnXVPQLIPkR5niC94CtDHmIp9qdzrjdXfU7fKl43bmdPqufcyFIWJSGlpoxlIRMnfC9BF5sFIMXC4EUgiUJBeGxUD+sAB5K3+UUQopMgB5GBEKKKd1tVBeDHFoJywL8qM9uMckq6yNxUFSmsnl9xx+bG/v8I6jy4Yut9qli04UfoyJC5fvxSqJQBtDwpKHvO60DaCt9CwWE5SAFnJqinMw5pbWxbPH7cK5E9ZSG43PEQnT4T1sp1tgnW59dDhpuDhFW/EmibeGJIAetrk/a4FojY+ZkUowo0oGSCd3U4CC659f+R8sGpC+h3DE6w4EHaWs2fjYiI3XLnqBL7swMrM97sMV7qew46zBifnt6aQiusNaifkId8Vv7yfNDuChGhNCnHOMG/Gwyw9cxAF48CKOLwrKG5C/5hvwV68OKFNefgF/OV1LgK8WtAH50DZA5KD8y2UA8lc5ysBXbgryGzwvf35pCUPaw8virj7WZufOjnjv+bm7s/b55xdseLjVzWYPVSR4ZYkWBs3qqjqqfRSGdp+u/mVEKIpfVIEfWibHwKtwoby4SWKIif2s44U0Wl3R2KqRN4mAz5h4A4r+swocaQQZEJZzT5fPtpPjHrfIM4VJLjsNVxTWY6RaXzVShYRImz+FAEWrFLlSOH5+XqsPu7vkbMfSYy3W5czHe1/CJIF3pQ2hT37hXzTmZH5ygDyohvLLUHq4zR42frjUsypNpT+Tmz/ILxdCnZM3ZMEx78mA4qicgsiNe6ns84PSUl7kn5MNaXJNW6m9gMrTrExXQm11ZRhyVS09NYt1OnmOBPVi8Evgy4OjbnWejzUmhwaHnDzSPfURV6a6MMjrlNdV10B1n7n+V4LQOF7oJedpUKEWvg/gOeIk64A28fwzL7crrbut03r52tmjjo/5c/Ij2zYyTKlFR5vKht7F3A9kFJ8LeCNCGp43xJRMf0o0A0i7OL1KEF2PG9CoXh9PuGFZRENz5mNQH2h1dbEYSHdYDaxINTY27GGTBCCP3McED/AQ5K4CepDkrzJIAQDnkyY/dVE+HGdz1wbKhQKSN6/bOFIuTP1cYZuBNs1fz5XJZS5Q2+RpkC9+nPMJM2nqzcr8Mfe2CsV3h8xQGhcPJ45xW76sy5549Db78uPb7K4dq21Jb6d3KvSnXzzUTrRPfsxJ9Now/fMjq9jqgKycA8aGR2NxaaeP+PVpm+sVz4rFfwjS3e3DtigWZUyO8vJdEZKVSu7yjwXfuJoZc6sldZBrgAuiyyXmxcWkZBE2Fq3xsgTLRThIoMOL1+6OiTP3c2pNxeWI86vITwm5n3uFf7pRcs2RUqNpxJyJjKRULOQRK4zz3TD3i4cf9F1QeHxlChOPM3aHkblHYYrjVSIebBEfYdM5SjoTCKd2zlG+ni9IV2XgCGlQltnKU0aUg6LMsTiNYN78nCM7uJXLmM3vtZUrOm1pv9nyJZ22ekWasMPEbsRbFNAOk8+20bZRt/yco4cT0yla7rLTzCvBL/RGMelGkXbIbGZZeINE58ulP44Jv0bJxzCxwtImJkNHlw03LRryEeVD4PmlcpsnQ4fI82Ro65Zi+LnsebiG8ztTyuggGUo3MwilY8P5n2gwL9CUf+l2EEWRZSF73nujGDG6ik91J6LQzLYwm1+Ynf4XS6PRo0aCJIYipfipyHLKMTJMh3A0lhxjM8pBpphcXs4oO8H9Abjyk5/KC9In6Ikk4kGFEnHk4SlcUbFrhHpxHecyQZYrtVC+vlrQNpQFy4Y08x5T7SaoLXMX/k3cFDS74eeYzcWpbVg/YFu3DFhXB92JWX9fi23d1GcDvW5JEaYcfwGhpCdd8U91LI6qb4JkovRcGn+n3puSLjWKOTa3DOIucoesuQvlR04YYsbNsC4mPO+wBxiyIKvhsA88jyKrREKuW6E3fmzF8nSicIJgWUqu4zwFd0ckP3HHdQ5SWDQkhUdZk4nN5dhozUaHvcbxiXZa9Si2AyiaCOHUA8iHCWkBDkSmqEnDTQdVNYVBBlnTgPykVPH7ESerVta6iDUTUnNEs3uYhvIhFK7AaYXoybJeDWpOhJpToJ6yJuSYK2gGCSYuD5+7+UBtnGNyGJY+tOKHYtOVZ0HhRUEEWLVqvDbuQ7EJ27h5lW3dusa63YLArVndYzvv2BgfEBWd6BeA+bXpzOG5N9f0eDZTwyJ6iD+dLAMMFuhlKJ8aw52fTiDbYpNIY3o5TaWZ7B5dguLfdEiaMRNmzm8KEFb1jPk5QPj02qkt9mSYfEdPOAST8TB+EmKlw7XcZIFy1wz4Uz0crczrNpQABk1x+PqTV0fDIzW7PDwSvyEAEx6GNQLCzuDpRBwsH54GjetHSGW6rJtA5RcxUGc5/GkHmfnqxfFXG+AEpVV2VwORFu3OueZI+Hxb5bnatOcET5rUozkjH+rCb3FY+YkPzvB3i7uDn17zejgJdwr5xYO8Uc3saRTHuWJqbGFqfVTDdFq82Iivm/0xOZxQYxjMeQo3gSB7Q6XOTJi+bB4y+4dGyKouyleKmiRykZALt4AwpHUmkvBLcWQ9cF+KwpHrsqLMDmrpzqUPpaYZ4nPwoOV0ndBinV291tmz1Bm7zy0MNbKsFwgihdfQJ+L6eSOPOUJ1UP04p74C/rnLobi4hYbSJE+eAYSNn0ic42Lkm4PUGdlBAjiahTxpBtqda9eLcItclKaI8hVuKgoZuOJmHmPKDUf5Xvm+gA4gbx7C613kVCgsugJ7+N2QFZdNN4+R7xY6YQX2YcvkubsC6TKkunCTfpPlyeI6FpwociHPz3nwIgPOcQilrAhm/nFACiTCUK93NUCweNXmOabaepHww4QbGjFbuWaj3b7zXtuy/U4P0WtDzGtSbPKmmyMN/uDnrnguV4Uk/IkocPTYqiMmvsz8/E1DHp74tA3tIaXGcc69+UDPQFYDaZAHz4DnwQI55PVFEAUoHnm0L0NEr5Yfkx/Zc47jfvFYvnDQCs1boplQ5CHLsags3zMkJZ0KfOik0h36ez7fZt6vARrLiSJkI8L5XwLRuTWymr60k2h2Hz/KN/XegjY5Bc/JQUqQCzhHwvBhEQ5BldDKCUpPSpLfmxmpsqynyYQPxSCd8PU/CNq5C0P24ceHnRT6bfu2nXbbbVvt7PlhO3zkog2PMqvszuMkg4w6URbSpvxIMO7KBp0JedvQDnl9qKN6cbWb6i/HfZ0TV36E53w+IH+geJAUcxKkS5oiCJ7Z1SG1WXKzg2LgMPrYKYtfOfKcaCGOXpxwES5FWTyQQTM3LXSTIyVGyLx96dGbygcShWQVzyD+Fogo7qMJSP75JXIrcWl3UujoTK+zGSqOs1VnLBCV5IbUJ3Oen4wmKHaKy1lKeYGAYOUOIZTQAwk0TvcRSEClRSKKI2EuX88d6Us0ojcY2WtNxc9dGLZde47a+XP8WrLfli4dsDNnLtvnxy96j+4xPSs9HFyKhUPBMc/Vi8fNeSHFmwraQRYGDquCxWNYYYneXXF0X07tOV8QF6hNIW3WWOD7CaXLPT2n+YHwZTczEinQoVA2d04WvLVSG3M/ioHfVbT51WLuOWV1jI4EpLKXU0kt4n5NyUTtRYPonOfkMlkEY2FiHG2TZNR1J27iUvgyJrs7dx5sipN/hJl0jXJ5oCQtCwgKL6FGwCRoCB+KIFOXRVpwKAT3RBg5MKslrEpnPgjDLOIUQ48CFK82OmGDl0bs6Oen3Z2x8xdYk2HMlXIsHkjoTxGFQ7r0B+PE4/1suKuB2ob65vWhnjgNJVirkk1+WOGKhW1ZJZpeX4otZQay1OYD4uI0zGGxGlbhZjlA0iIvyipC+SLAEJG9awXyTxZNajP+Fs13A4MC6rlGiQtXBmHwp36TdUzgXu78eftBGhJfOLuc0D7sWcqmSemXtZ5GCl7CTGWYDopTyFv8XUAgfAiXBEzCLwXhyLUWL2WhUswnAIkgGNwnHQ1LEGYJ9nwgxa4VvX9E92JRtM6udhvoX+Zj8l4nhxY7cnTQhoZdMWBrzNyiZSabNzVcYls18fzJgjpQFhRR9eHIys8sn8/yd+y5wQIprKTEQrt///d/b//4j/8Ye1jQPuW2yNt7rlAatDHPiFWsWCSWxVlYuIZnovt5XosJNqOODakdkhfeTCXQYcyPDK8e5CknZZmUhEAShyu8E/KbCpCnCeTvR7r1Rh5+fwLn7eDHWHfW/WKO0r3OnGMl9s9i46N33nnbLWLv4RxdPfxGyIfopSYiRbmpUFkm80rXCSnOZPc6+wZA84CELweCzUNHkLknxWetSoSRI5YF9/SDKFkXxCE8gozffJUhGh+B84aIMZw3hnOQp8X6nSN27NhFW7Z8WeR78uQ5V5CLNjDQZRs3sPRbIhTkFBcfbzkxpLEl19SH8uCm1rkZ1DZy1Ami1J4ZLEPHCs+0F+tToqA4NvdhdW4Wdq154UUwtAX31a7KY66gXZUOeWKxsMo3xE058Gd9SBaSbWbtLSySOFJ81UFEwXXycqF1L56J+zbCLQ5IW06qQheRjvqbzhx+I87jj8tcHPN4ePAGI8VIKXkdGsfknyIW58iWCx7VHB2t2enTZ2zvvs/svfffjWc0NDzk1gRfOKf47J3S3u7640SbfJT/JPBtoHFb+fHHPXVsAA9PfyGJQkAJckGUmY0/R97Rs8cjgo+CsA8lS8SzRiQ9KYqbWxGkkSvEfJA+XXVB94YfHq778GLE2jra7ey5S7Z7zxG7996t1tvXZp9+useJ4pwt6euxlVE2by5/5hAG2abH7M1fUHYiCRQoNeRcQbvgqDtWBKte/9u//VvMQ7DyNr06y9H95je/CYJgnUb19KzSzYrQKDRrWkIotJUwn/bRM6JdIQksl//4j/+IfEnn93//92PdTv3m44uEZCe5wtMxec79YIwvAJNKgwToWU+eJcR5/EHZiINTKJFEBHCksutqUoGJw73i2itcGx133Thhv/71C/aTn/zIrYg3jU2On3zyifgh3Suvvmrvvv2edXb0WP/AslgYOf1qNM8vYTKfZvB7EUVlF/B03fOHkvsuCPIkcyGTP34oCorA7l0sE88R64J9LFj1mWXiIQ3Fz01uelXIhx6VdEBOJLmgJQ+z/fuOOBt/5L33Hvvy00/bkoGV9smn++zhR+6zru4e+3TXfmfqT53EOmzzpg323rtveP5L7KmvPGlb/XpJb/qhmj4FD7OwyENCi/Lh1ANfUQ4H9aCuEAT1JiwL6LKgLvMDkCU9Ohv9MDdBm/DwaRfIgbUtmeTECsNPu4cRBoiM83PaJicG3Yec2fyHlb9ZBg9SYMFhFtWlPCwsS/lUn8VCkosrxTBrtgZS2Mk2X2wweBUKWzLO0ScVbyKJoA9bKZu3c3xWDTXwA+82q7tFG589uIXAkJYU41l4GB/4+X16JWTFh3mtSc7Ghmrx/Bluvvfe+zY4fMlWrF5u99y909auXR2Nc+L4CRu6POLW8Bk7uP9IEAW7pj/yyEO2wWW2PT5Om+y00xAjko8jTYm32jnCYjXHJCv3vUNzWW8zt1QWw6KgUHI5cj8EFuFmiz96S65RCsiDmX4EFxLA+tAGNcSl8Ai9wHku/EDXrD588vhp++C9j+3V196wTz/ZbaNuqWxzxWR/Ur70W7UKFu6yJf1d3rBjblHwPUeLHTywx44fO2pnTp+0i+fOh7IsY8l6PmpxC4Xv6P1/gDKpXHkd83MUG5MRiwCHEPDNAqtcM4nIESsLZaVN2ISGV6UMTejxIRjC0xb40zaQBkMTjoC4WBjkSXmAjvjRLoA2ZmsALDlIgmENS9Kz2jerTEMS+Tctiqe6LDRItplrhtSmcRbXiw/ar2jLyDPlG2fJO90ubvFGLFGB/0VG3DN+reKF5lEoSgQmTuEZMuskMT4+ZiePnbQ333jT3nj9Tdu1e3fE2bZ9qz326CP2xJOPhyXJ9g5sgdjd1ePPfUmsQcFQFn86kuHRoXiN2t2DXDsBQUuFLITgThYknYZX+pd+I5X8oQ635xeHKOYLhBvhZGs2GgwWffHFF0OAWXmJ13YSVoAlARDi/LsDKSq15jcdp06ctnffete+/1/fD3N+uVsof/anf2r33rPD1qxbYuvXL7e+JXwzzwpPXbZt23p3G0Nhd+7Y5gp6zn713M9dwT/mqXv4DdbdzuKu3uiejYts5IkSS6HycgLu4Rhm/OhHP4o3GZAE+2X8qZcFxdQOUzxIwgJIFEsD64r77DPKJkDsGMbeHmwEBHnxVuRVNz9pK8gFq4O0VB6lSVjahnAQxPe+972IhwXBZjaUh30r8sV8OYKknJOkd2NgEcuSKRFKk4DKT+bJeZI0d/7I1TQsvJR6ZbYKTLGcBpJuelL8NICwEcevaWPalV8yj40O27EjR+3tN96y//r+D+zjTz7xjmy1/T9//Vf2tWeesS1b2aCKTb4HbffuXS5PP3bZ3GN9vf32rW/9XuyJetytxB/9+Ed25AjfCNVt9apV8c0FJeVxso4thUHMwiijDO44TzTh516WOItyudw40S3K0GM+IHucFIzxN4qk/R/p/egpUQzeAqDEgpRBrw3pbQHb4T333PN2cO8BG3emXbV6jY/r7rTbdtxu6zassR4nhfhU2MOOjsGZ/CDKGd2POH7zQZrHPj9qez7bZYcOHLKjnubI0KjdvnW7PfrEY3bvA/c5U/MuG9MRBp7ssQWU8re//W3s9MWbDMrOMvwMGTDvOafnpuwiCBSac9KSyY+lRZvQ+3MkXe5BDKSJtYI/1ge7ibEHBUM3rDGB7fuZf4AwaW+GdYSFoCkPVh3gnoRX0PNZPKIoi+BcRHJqWy8o8uxd2ZL64JKFwDF+Gu5eeYskReN1MxqJfBUTXB727HneIJn1pxGijbrh4ZwSy9b5YNpl7ZD9nx/+MOS+s7PH7rzjPtu4fqOt37jBNjsB9C7RXNRYyCY7nX/22R7b5zL++dGTNjw04s90la11We/t7/Vh5RE7ceq41dxCueOOHS4PD9ndd7rMen4QA6QRI+giVTpLkGRxxNgioDXeQDnJ1W8Qi0JAECEFlqnXbDtmN0qGEqAwKJH2m5BiEo7JT8bcKObrb7hJzY7U3hIow+NuUj/6+KO2dgMTpQW7Rgu5UviRuZ/4uMf/8eCjkVxHly0biPmKlcuXRfonTxy3k6dOellOxytEyhtl6Zpcb5OeGEVmHoLXnfTemIL01Cgwu0xhJdDzE4cHA3SkLjl5EgYChBC06QzpU1cEhvbStnaUEYsDAqF3ARAtr1yZi6BtKDfkwAQp5aGtSQOIsJS32hdQDtVx4UG6cnPFYpWlAPIRWSAc8khWBf/wjOZw580V90J+XJiwDmI+w3tjv4rX7p98eswuXhjxjoHOrMXOnXHr4fhFj1Zzy+FDe/Gl523fvj2usB22Y8cd9tWnn7EHH3jQVq/3Z4tM+LOJiXQnLp71ErcyNziRLF++Ip7T6VNn7BzbLTj7LF221O/3uQx7PucZnh5xmRn0eN3W1t4Vu43tP3Aq9nWt1XzIf3HU49E5QBhODPwr6uEUEW9critRIJAAAdW5gHKwjT9jd3o7xtT0hvSMKKd+sISLhvKx2UsvvRSb2NDz3n77bW6OfdPH/8/Y5i2brbMbBUwPle3geca8o2fChwbiyzb81GcQEDXp9HHeihUrXbm2h/Kdv3DWH/on9tGHH7kctFpvX28ME1AiXvdCaExSUhZMe8iNjX3ZDpCdvjQfQ32JwzlH1UN+uDIgGwgUReec+QneVkAQDCHIh3ZB+SEiyASieuGFF6LtIBB2HPvGN74RbYs1Q364vP3za93X+Y2DRSxLLoreaVDthlwE0rNJUuSI3hn1Ysjh567MWJn1Ce/AXNbOnavZq6+948OCQVc+Hwq4oh89dsb27jnkz2vCXvj1cz7Uft6efuop+8M/+iP72lef8ee3Moa4DE9Is+4Ezi9GUf649vyQWTqQ22/b4c9/R8ztfeDygFu/YV0MJTdu2uhWymHvrD73Icuoy81yO3DgpHemH9matRtsfKLTjp+46GQ2Hsv69/UylGe4kfJxDbGDBw5c36EHBIGT4uByJeGaHo5XhygFjrH6K6+8EkLPnAYC/+6778ZrVpSH4cm9994TpvWKlctjp3QqnlZ5ZumwDn+oKIJnEA2OXEw0PrCKKx4OKwUhHB4G1J3NR50IeBgw7IEDB+35519wchhr9NCQAr03k0yUi7Jg0VBW5hk0n0KdsTxU12aKWe7dNS8D8MfSgpSwViABHNYEr1PJm/u/+MUvwgJBYCApTRwzGZa3cZ5/jtxP5Vp8XFmO5ljEsiTjLiHeAFCm5JnowtvOhxP8C78oMn/ctfDVrsu1h6nVnSjGW72nr9lPfvqanT0z6sOJrfbAg9tcOY/bwUOHnRTudIU/52Ry3DasW+XW6wrr6V5idScY8mFKgWxCfv1fiAHl8UwZEiDboDYyHh9jnXHZ5G3Iy7952fYf3Gc9fT329We/4cNudprr9WfYY7s/O2q7dx+yBx98OOZAqFtbR91lo831pjOGQxN1NtMes862Drs8OHz9LQoRha5zxUGZ6GmxLhjPY3qjbAxFGJdjRmNaMz4nPONyFIUjCtHN5qbeCOnbBwggtXrahczPaW+/FSYWt6I86SHgx4I6xGWtQR5WZ0eXM/0KW7durS1bvtQuXRyMMjAUwKG0kAV5M+FID48VAoGh6FK0vN4zKV+5bQDh8aNNyAcSoo1UDvwpA3M9EAdbEUJifDxFG3KfNEgbx/l0Zcj9Zwq3sCCPubhFBE2dmtuz8pPIrmj/cOlfoxx+K+5GWBQa8GqUZ8fr/Lrt+eyEDQ+3uSys8KHegBPDZbs8POQW8wbbunGFbfJhRH//EpeT4lX0hMtGnPhf/hcuZZbInd4+4F6sm9nnw41Va1bZmpVrYgOli5fSZ/8DLicbNzMftd1GxtrtwsURGx2jG+x0x1yYD+Ndhnp726ynF/IpEnVHll2dTjAugKle1wlkLwekGEB+HKVUkIc21MXxGhWzG+uCHaZRBMKn2Wo4GIVwky3WCuS3DePxuijSC+JIICRvSgjLA0kLlqY7mHzkHR9ugcKf2eDduz/z8f9b0aPrdSeKiUkIqREPCwAnssAJlDUnBMKh+ITBn3PF5xwQJw9DXEhC1haWBhYVcxAQBZ9nA8KqLTnqXOBaUDnLfrcEUr+S0CqLIk02p4fvbdb47Jk3Gf6Htm2r+W29TmizesxRMPQYt//+4Ts2Xuuz7dvvcit0wk6fOenBztk3v7XdCTx1aK024s5j8CUxu3W45Rt5kFxkhZXJzxv80vNA/kDjsYT8Ik+eu8vaseNH7e1337HXXD5v33mX/V9//hd28lTNjh4575bxZR9uMPHqw+deNmJe4RZnp61a6XX1/8yysHI3dNLiltENQRQ5pBT4598EINAIOvc4Vw8KcTAZhzktxVSaIdj+P5TfTbQ2v6YhY07I74eS8JAdTN5EC3nc+Be/DykUmFdEpOuNShk4D6vE/zEvQVmYIyEsSklPr3Kg0BzlIj2H0okyOjhSF+YbNFFLXfP7qpfSALpPXCwIhhyckwZtgjWj8PQupMG9HEpXaQnKE8d5+f5NC2QiNYk3NsKCB0SBJ23pLogitWsKiiWRwkIOoWIuNxzPnB237//nOzE5/vDDO+3ll47b6VPnbfX6NieKzbZ2TSKKdhtz1fd8nBzq43xRTMcCqfMsPEjR+flJHEKO/TR4KTx4Vkilw8fSY/68z7l1ef7SkA9B+mz5ypV2+OiQW+Qusxfr1tHZF3MXJ04etae+8pDt2NFr/QP8xMLveV7d7dTE03WiSDW9gYAwItg4CaYEVsqF8jFZx5eMfGuA+Y0lASTUgTgi4Gkik1FF3PP/aU1Mf6hhLhLHHa3hxxiq+P1QsOTplzi8U5qRnpcHK4K3Drzu5JNnzHviSflEeuSreqgugvyIp7kI1VXI08iRx2UehFedzFEw6alJVtJSeromjlBOs8JsmGw7EK1HGxbtGIThvsibP/5wXd2dtmxpp3ci7MHb7UqKTGLdYj0Qmrgpjp51MzQem277Eb+QA/9HNP8bvMZua1i2O7ZvsY1rVvo9ZMU7H4/W1dVuW7awQzs/bRiM16gkzT2G4XxvkWQ+ZXjDEQUCj2Uga0INJmWAJCToZcd9HHHi6PEmz73SDd1M6RIntQx+0dqh2OPjbCPvwxMW3S0YPcWFpMiD1EgDCyMpfaRFKn6k5wbkUfPeXUpKOYDCAs4Vn/v5pKXqwn1c7icn6Fr5CaSrPGg72jVPDxBP6ZYx072bGiE86TSd8Oww9bN2UJgsHJPe6cw9/ZSdIFpd4TZvWGorl3djwtuWzUtt04Yl1tftFusE+3MomaScLg3e5vrBH888BfCojedJWMmh+xaO84Q0jC6evTu+F+VuV3uL9fZ4pzJAZztu69a2eFmWWU8XNeST8ha3JNqsvdFBehr+74YbeoCyUF5TEZXWDGnkuaW8/Al7Q1GOqdGKkBwa/pMBUvjm+ahOM9VlpvjCXNtmLvkJeZp5+HJetwymNJlfRDNMEmsghh1ZuxWR6t4z0yWnZfEtXo+OjHJv3C5d4NfCl23wUpob6OxizdZRt4iX2uoVSz0F3ob5PVfw9o4uj56nP/kXTL2X+fspVzxH0ouQBdFDGHzTMV5nWFK3XZ99at1dHbZ1yya3cDrdFZ8LRKywS9ylNFIXdx1BBcqujGZh5uyIP0sa/kehkl+jB50aDq9wkZ7c5H2QX+dOaHZPbrb7uDKahcEJze6VXY7p/G8pUPWGUztM8ZxyihUhgo3fAhVqxbQXHzfSW7MfSYtdtmNHP7Mjh9+3M6c/tcuDR+zEsUN28Xz6rY63ekyYp4WdEwHoH8WY8myy/Bv+6SL5BVmlcvCxVliUft7T2Wo9HeM2Nnza3n/nNTt1/JCtXNbt5XPi8gBYFckRn/RTutedKG4YRKPg+EOzcKxQAUgmcjcpHxrKoaxp/xlXNb+GOvg+pyPpvV28cM5Ontxv+/fzrc1vnTA+s/PnTtjI0GAxFEzKnfa5KayCzMKbFV4kSEUIQnHEPJnK08ZkJT8eO2a7P33fjh7eH2FAXrOISgTmKQr/ChUqXAOY+8EJZQXXKX7st8tyf/jJoZXMRwBZB0I+lzRX5HFId+ocU9pDpqOjM8pRY6Z1DqiIokKFBQIKChlI2cuEgcIyWS0nchFJCFJqjuV7c0E5bxGFrjkvlwHgL1dGRRQVKlwjpIQ5UUjBpZxAb504SnlBHqaMZko7Ewifl6dcFpURUI65pl8RRYUKC4Tc5M8hf458UMfrcxyvsvWdzUIjJwQgAoE08CdfPhakDHNBRRQVKiwy1GurR0dZ5fIeH8y1h58NIoYcusaSwFGemUgqT6MiigoVFgAolEx5KZ8siZwIuMe1hh9lzKS48wFp45qRAWWcqQxlRPjivEKFCtcIKR2KqSFFrqRSTggERxgNP0B5uHAtQLlxgDTJR3nJzQcVUVSocI0QIUjJ1WOLOGRZcD8nE8LJCgFl5b4WlMsj64Ej/hAF18pvJhC+IooK1x0S6tzlKPvPdg1yv7ITOFcvXr5fvga5X35PR6BzKSfHnCjKYbkv8siVtlnYHLrfzAHyVL5A5QEiCIWdCyqiqHBDQAp7tSjH51zKIn960Vx5ZI7PFaRTdgClk5I3M+vzcNzjmnIorO6X6zATCKfy53VqBsLm6VIO/TiwXNbpUBFFhRsCubIBCbeUR4KeCzyQsCsu93n1KD+Z3JzzgRFHpal7KJvS5Z7uC5zjiJs7oLhccyQ9HOfss8HrUPLNQb4sT6C1X0lDhEFckOchqK4cgfJSOOLjgNKhLRSO16GsCMfCT4TTR1ezgfQroqhw3RGCWAi8HJDQl6H7IFdq0mimLCgrSouSKR/CcNTwIIcUUcjTFPIy4srKC+RXTp/ysNgS66lq3RDCqvyAOHk8+Ss/UC4DLi8H97lmzVl2n2MldrbAYAU0hVNas6Eiigo3LKQscs2AotMrSkkIp68f6U1Z9Yv1Q1EUelMIgzB5z5yTBQqWXxNGrqxUhCFv0sIqEEEQjnvaVkKgPFqpnXgsdMSix5AFlgUgH9IrgzRxlE35kCekQ3iVV0eVgXtsqPU///M/9i//8i+xZQNrqrLmLHHLdZoO1309igoVEEEJtgR9JkhxURpdE09pSJFYtf25556LtUQhCMKjmOytgpIKKBNx1QuXIRVRHvk1UL7TXaPQbDDN7ndsJ0kPz/quzzzzTCwGzfqmgHoI5TSA8lb91A5cy0/hWZ6RLS7YMoJ2IA/2qGWpRvac4R7twdYNbEg9G26oDYAq3NrIFQOFmAlSJJ2rp9U4nC0T2DqBTZjoQQnLEQVCUbkWMdCbE19pKm/OcToX8rwVJr/POQpMXqwY/8knn8RucexgR54s3UgYLAvSgkgAyzlSDsXnnggA4F8uG/dVD+5hQZEPdWfPF0gSf6wWlo3kPsMPVoxnlXg2uRZRzYTKoqhw3YEI4iT8uZ/EU/465iAMyoIpjWJq60Qm7dhzhf1VWF8VoqBnx/xmSEAP++ijj8ZK5Vq9XekBlUfXoFweIEuAMnCOhYJC0muzUjykxZwE+VEWFl9mOMC+sQyLWNeS7RSeeuqpUFryIA0RQBl5efIyQpDUm3TZKAvrgV3p2BCKfNj/hnKtW7cuyqEtHCCn2VARRYXrjrLgA/WoQMqQg2uUSULO3i4QBErC3ABbOLDIMBs2oRxMGLIhNNYDYbVpEkMSelYIg+EAbyMA+SsPypG/HeAeSgxURl0z9ocgKAe9OfmikJSHDZhQXsosa4O5E3p+eniUlh6erScIC1SOHFgg+KlMrADP7ni/+tWvwpqAGEiHVdi5hqywtLAoRJqQlTa0nguqoUeF6w6EXq5Zv6WeVfellAi/THsshT179oQfG0WxMjrh6ElRSnp0dkzD7EcJIRP82RcG5WYYoCEK1gUWB+cgzzMnBpUJR1oQA0qPxYKCQjr06E8//XTs9wJpoJiEZxsFbWpFmmyzgMJTDr2+hFDy4QhOgMDIk7oz74GFQnzy4G0KJMF9ykF6WBEQIo7zfBuHuaCyKCpcdzQTQflJQXStHp6eFvMagmCfVxSNnvib3/xmKPzLL78cvTrbFzB5icPER/GkcFgT9OTMH7BHK6TBDm9MMjLpiYKiTHn5OMepXJSHtxlYET/72c9imEE+DCPo1end9eaDMssaURmUNuVH2Z9//vlQfpQZgnniiSfCCiEN5U18CIU8sSKYnIRwvvOd74S1AGGxBy/WFNtI/OEf/mEMryAuWWAiCZVjNlREUeG6o5kI4ich1lFmOOY6REDPDZiHwEpA8blHz4pSoDTMC9DDMvanNydd0tHrSCwQiEWTnxwx7YmLovJ2RLu9l0E+KCVvMyAt8qAsDGE4YtpLMSEUQPlz5czrhgWAcmMZYZnwtoKeH5Jj+EKZCE++TNJCKuSJP3u6QHoHDx6MdBh2QQ4MN2gb1YH6UxYcbTBXq6IiigrXHWURzK8lyAwPUAJ2aKcHRaEJh/mO1cA5yoqyoKAQBD06SlKeX0BJ5CdFxSogLuN5CINd6IgLUTC/wFsDlBHw1oQ5gd27d4dpzyQieTLMwFEelZv8dMQvJwlB9VUc5lT4OAqLgaEVSs6QiXJg6VB+6o81xVwD97FIaB/aibC8dtVwpwyIUERBeZqVqYyKKCpcd5RFUNcIMOe8zUAx+CaAnhSlprdEGVAu/Bg+MKxgwhJLAGVVb04a0ylDnrfC7Nu3L/ZwZUgDoWC+s48rpME1BMFO8VgTEASmPT0+8x44ykS6kANpigDyvIDyK5eBa5SZI8r//e9/P8gLotIwAnLAssCq4m0G4Sjj1772tZiwJB3lL5ejnOdsqIiiwnWHRFDfE6CMCC+EQI/KOJwenB6QHpU5ACbo6HXpzbEqmFtAgRjbo7yElaKA6ZShmcJATMwBMIyBNCAGiIq0IR+GBPTWWA8Ma5iHQIk1nAHkLStivkSRg2EElg5DEogJsoQQcVgRzE0w9MAx5OEasiJv0iU9uRwz5dkMFVFUuO6QCObKhUJi/mNe8/kx8w9MMkICmNcoK0qMUtCbY12gsIIUhbRmUoRm4q/wmOcoKT32Cy+8EPlxj7cnTJpCTpj+OUivnKaIAuT3lI/i6Dr31xHy0iQlJCaLg+EVDsLSMIO6C+U0BaUNyveaoSKKCtcdEkEEFiFHKZiMxJr40Y9+FPMGmP1//dd/bT/+8Y/jDQXK99WvfjXMbeYSgMiBdOTAdCI+nYIoDdKj18Z6oSz/9E//FH5/93d/Z1u3bo0wKGxORspL5NAs77yMus7DyV/gmvsQF4TJXAwTsJAkBKG5ExFETkwLhYVPsUKFqwSKgLDLhOcaRcScZrgBgTCpyG8T/vZv/9a+/vWvx7CDIQrxUJCZFHQ+IC8I4oc//KH94Ac/CGXEYmGikDwB5dM8CPlzDcqKLiLIy1QuXx4nD48TATAkw2qApBiCQZ4QqvJdTFREUeGGAUqh3hOgIBAFxKFxOROLmPx6/cg9KRnhpVRAxKP05gqVgSEOryr5bQRpkT+9OORQJgOucz/iywnlOEIz/7If6ah+fFNBOSAJyAO/6UhqoVARRYUbBlLAXNk551sHjvSmTCjSq0Mg8kdZZEkoLoqFVcB1rqxzBeUQ0XCENLBcyFdKSXlJm7Dkz3Vu9s9GEtyXA0oHp3OOiks46kT+isc98lW9cyhM2V0NKqKocENAAozgo/j5OfdQUJREQDlEEFIkwDkOf3resvLOFXneIiPOIQsREC7POwdhVZY8TO4/VxAHqE6qD/60C+WgnvJbDFREUeGGgXrKHFL0XLlQDMJJYYiHwsiPI47wUuj5gvgQgtKlHCInHGnjr7Aqk/wElVvhdZ9rQf7NnKDwuR/I05dbDFREUeG6A+EWGcisBzkh5JYBfrliEkdkQBryx6nHlRLlbiYQV5aDQBno0UUUXOd5CXn6ze4DXU/nnyNPS/UW8nYpQ+UoO+Lnbi6oiKLCDQOEGMEXuEbR1asLIg6N15nQ1KSmSEHEI8WeL4jL149MGHIu60JDjxzKrwzKLBLjXOG4zhUe/9w1g8KqfZQeR91bTFREUeGGQi70UnYpT/mo+4qjsLovlK/nAtKWEuIgGyl4nl6eX34OOC/XAeg69y/7TefysOXzxURFFBVuGOQkIUgRcmVQOJndebyFUhr1+BoKNcsrRzlflZk4OVlM5zcb8rCzudkw3/CgIooKNwykQLkyco6SaviA4sr0R8gVRyC83LVA+TJ0AVpnk6EIJAIIQ3muNa/fBVREUeG6A0XLlY+5AJ3jDzHguEZ5UVj1+CDvGXWua8Io3HxAfJGWysa10hWa+d2MqIiiwg0LKSuKmk9oQha58jcjAylvTijzAfGJi+OcydKcFEiTexVRVKjwBULKJqXUOZ9NY+6XPzSSZaFrKXWZFK5FkSGnfI6C9PEjPeV3q6AiigrXHSgeDqXMLQcUkSEH/roncJ0Tg9IAIg4gv/mCNJQvaXFUXhwhDlk78r+ZURFFhRsGKDVKlyuefhmKH8oKUFCFw4kk5BYSeb5AeYLyEOhmRkUUFW4YQAAadggofv5BlRSVa96EaDiSYyEIg/gMd5Q35yIGWSu3EiqiqHDdgfJpyCEyALkFAVgWjhWv2MeC83IcwudDhGsBeUIOrP3AitbkhYMsRBjk1YyobkZURFHhhkK5t0YRWZWaZfFQVFbhZjHdF174tf32tx/GmpkorKyIiQniQxRzcdODtFjzgbUvcOTPT801NyEo35sdFVFUuCGAAgJ6ap3zxkOrTbN2JROb7GPBQrP/8A//YD/4wX/b+x98MGVnrfZ23oZESu7cujC3Otxx7jRU+M9MEoD0GHKw1B5EwRqdfHTFGxjyuVUIQqjWzKxw3YEI5mKIVcH8AwvTsIcHO3Cx0hQL2W7cuMmWLl1mYyM1O3nihF28dNF7/i579NFH7L4H7rFVq9YWqQwHsbS18XpUr0hbrV6r23h9wto7Oq3FNBmJc8Vvnar4EBJDHdbsZGtChiAQB9vyXc0PzX6XUe09WuGGAAqLMueEQY8OOXDk7QfDjrGxmvX29tuG9eut1Xv2wUF21zphlwYvOGkwPBmyzs42j8NEpyt++u/AeK6bc4TnUVgwkZXf5ejDCe81rT5eDwtm92efxZ4ZzIdAEqzbyUrf999/f1g6IrdbxaqoLIoK1x0SQU1EyrQHWBdcM0/B3hq//OWvbPeuz6yzoysUd/OmTXb+wjl7463X7NCh/dbb12Pf/vbv2aM+XFi9Zq3VxkedCvg9SLvzQTBCXCf6KJTcvSc8HywY5iJee/11e/2N14Mg2CuD/T/ZeUxrdAKICzAUuRVQEUWF6w5EMBfDvJfGn8lDCAOyOH36lB08eNh2fbo7dgdjToJhxx137nRFH7aPP/nIPv7oY1u5arU9/fRX7UtfesKW9i+1msePOUjPpl739Ouej48e2oq8GMYwzHj+hefjjcrateti02OIgnU6Wa+TclCeZhOuN7tlUU1mVrghgDUBykrHOfdQTpR127btbkl82b7sbvOWLdbmRHH23Fk7feZUTFWuXr3eenqXumUwavsPnbTh0ZSW042N1lptvJ7Sb+vwdGsTdvzEqbAgfv3ii/bRxx/Z0NBgsQP6l2J7Plb9HhgYiHLlwMqJ4cstgsqiqHDdAQnoGwUppMSyWU8tPyYr9+7bZy//5mV7wRW9o51JzSftzrvutfqED1cuj9pDD95na9a4NeBRBi+bh5mwnm4nJE/j2MnT9rZbET/8//7T6k5G995zrz377DN2++07rL9/IPLIh0MC1ypDs/LdjKiIosJ1ByKYi2GufPhDJLI0FE6EMjI64lbBcTt0+Ii994EPOz7Z5xbASnvwwcfs7nsesn17DtnKlcvsjh0bYoZi2MOfdwvk0ME99t67b9nnRw/abds32Z1uOezcscPWb1hvvb195OBENBoEoXxzqwJiw/9WeftREUWF6w6RwWy9c04UAb/GMgCj9Zp9+Mkue/319+38+TG7+96H7N6777cf/58X3YLos4cevs+Wr+i0S5cuxpZ85847uRzY5ebMkA8xvuIkcbstHVgaaTGBMT6evrzMiYKjyqjhEOQhdzOjIooK1x0oHMMIemcUk2uJZTMFDMWNf8UHVB52aHTMrL3D2ts67PDhQRuf6LCx0Rb7+U9ftdHRVrvjjtvtjp1r7MKFM3bmzAm7/bb1Tgyd1u3DkIH+PsMuIE8RlghB5Yg8s3McVgVvSvSbkJsZNzcNVvidAEonRdOkppSRaxRS/jk8RHGWvrnoaEvDgJWr+mzF8k7r622Jtx+9fQM2PDxulwdb3aJgtawR9++xVav7imFGvAQJQAZykAagHADSwo9Xo7I2+KbiVhh+VERR4YaByCGH/HJ/9ewBDApX83Tbz/y6u8tdD5v6tvh5j5PGgA0M9NihI0fs5InTrvBt1tXZalBTm2vAxISTUPxGZGoZdMyJA7LAn3NcPsl5M6Miigo3BKT85fE+5xqS5GQBQYQLmuAkKXurn7e0uMPHdX9iomYrViyxjRsH7PChfXby1HHr6mq3emGgEF65YaG0OYm0tkydd8B6kEWDH0MNkcUU0rqJURFFhRsCKGBOBJxPIYYyXD8nMB+cDOjTnUZcmLEKIAv/WzOrjZJu3fqX1G3lCrP+Xh8i1EdscPBc0Aup4yZgFFf6ZqAMEBUuLw/EdSsMOYSKKCpcd4gUckVs5gfCL9Q7DIggCoK0uhWBVVH3YQTTnAwpmKPYuGG5rV7VYwP9LXbHHZvszju32+YNa6yzvQ2ucYuAYQtnTFamNMNIKFxejrws0/nfrKjeelT43UMotP/BEmgdt5a2NCyouSjXJlBc9uJw+2K8xS5eNOvqMOvpNbvg5wh7V+eE9fa4BQKpuGOogT0yMYFLxONeCTc/B8wJFVFU+N1DgyjQarcI2iGKejHwgDBQex8quCNYgKAcIQF3bVwwickQBKLwOBCFiKFhJOh4i6Miigq/c0hDjiS2LU4UWBVpDJLeeqTZh/YgiwjltzimuUkGJhMEjXMRwkT8UMytkTbSzNihIopANUdR4XcSE24BhJa38vFV4bzPS9ZCa7IY3DcRygTB4hKSqbslkuYmEingmMvEQGmA8JFGBVBZFBV+54DEovBJ0bEP6larj1ir+7e20/cVrphzkNYTPtgi4Ak4kvWQJjIFD5miVChg9v8Dx221rQe3sTcAAAAASUVORK5CYII=;" vertex="1" parent="1">
          <mxGeometry x="5.570000000000007" y="496.91" width="124.69" height="90" as="geometry" />
        </mxCell>
        <mxCell id="b7mZYk1uwkJI4-mQCpKp-11" style="edgeStyle=orthogonalEdgeStyle;rounded=0;orthogonalLoop=1;jettySize=auto;html=1;exitX=0.5;exitY=1;exitDx=0;exitDy=0;entryX=0.5;entryY=0;entryDx=0;entryDy=0;strokeWidth=2;" edge="1" parent="1" source="b7mZYk1uwkJI4-mQCpKp-4" target="b7mZYk1uwkJI4-mQCpKp-1">
          <mxGeometry relative="1" as="geometry" />
        </mxCell>
        <mxCell id="b7mZYk1uwkJI4-mQCpKp-4" value="CCCCC1=CC==CC=C..." style="text;html=1;strokeColor=none;fillColor=none;align=center;verticalAlign=middle;whiteSpace=wrap;rounded=0;" vertex="1" parent="1">
          <mxGeometry x="37.959999999999994" y="416.91" width="60" height="30" as="geometry" />
        </mxCell>
        <mxCell id="b7mZYk1uwkJI4-mQCpKp-5" value="&lt;font style=&quot;font-size: 14px;&quot; face=&quot;Times New Roman&quot;&gt;&lt;b&gt;SMILES&lt;/b&gt;&lt;/font&gt;" style="text;html=1;strokeColor=none;fillColor=none;align=center;verticalAlign=middle;whiteSpace=wrap;rounded=0;" vertex="1" parent="1">
          <mxGeometry x="37.96000000000002" y="396.91" width="60" height="30" as="geometry" />
        </mxCell>
        <mxCell id="b7mZYk1uwkJI4-mQCpKp-8" value="&lt;b&gt;RDkit&lt;/b&gt;" style="text;html=1;strokeColor=none;fillColor=none;align=center;verticalAlign=middle;whiteSpace=wrap;rounded=0;rotation=0;" vertex="1" parent="1">
          <mxGeometry x="67.96" y="446.91" width="60" height="30" as="geometry" />
        </mxCell>
        <mxCell id="b7mZYk1uwkJI4-mQCpKp-14" value="&lt;b&gt;pBRICS&lt;/b&gt;" style="text;html=1;strokeColor=none;fillColor=none;align=center;verticalAlign=middle;whiteSpace=wrap;rounded=0;" vertex="1" parent="1">
          <mxGeometry x="70.26" y="586.91" width="60" height="30" as="geometry" />
        </mxCell>
        <mxCell id="b7mZYk1uwkJI4-mQCpKp-26" style="edgeStyle=orthogonalEdgeStyle;rounded=0;orthogonalLoop=1;jettySize=auto;html=1;exitX=0.5;exitY=0;exitDx=0;exitDy=0;entryX=0;entryY=0.5;entryDx=0;entryDy=0;strokeWidth=2;curved=1;" edge="1" parent="1" source="b7mZYk1uwkJI4-mQCpKp-15" target="b7mZYk1uwkJI4-mQCpKp-24">
          <mxGeometry relative="1" as="geometry">
            <mxPoint x="247.96000000000004" y="468.82000000000005" as="sourcePoint" />
          </mxGeometry>
        </mxCell>
        <mxCell id="b7mZYk1uwkJI4-mQCpKp-15" value="&lt;b&gt;Bi-LSTM&lt;/b&gt;" style="shape=trapezoid;perimeter=trapezoidPerimeter;whiteSpace=wrap;html=1;fixedSize=1;direction=south;dashed=1;" vertex="1" parent="1">
          <mxGeometry x="177.95999999999998" y="386.91" width="70" height="90" as="geometry" />
        </mxCell>
        <mxCell id="b7mZYk1uwkJI4-mQCpKp-16" value="" style="shape=image;verticalLabelPosition=bottom;labelBackgroundColor=default;verticalAlign=top;aspect=fixed;imageAspect=0;image=data:image/png,iVBORw0KGgoAAAANSUhEUgAAAYgAAADKCAYAAAC/pNf1AAAAAXNSR0IArs4c6QAAAARnQU1BAACxjwv8YQUAAAAJcEhZcwAAFiUAABYlAUlSJPAAALjoSURBVHhe7f0HmGfpXd+J/uofK1d1VVfnnGd6sjTSKKERAkmAQRLIC6xtwhqDDc+9Dlzbe71+9tr7GNu79z5e79rcXS5gL2AkbAQYFEBxJEbSSJNz6hyrU+X4T1X3+/m95/3XqerqNNM9XT19vv9665zznjeHX3jTaZkXLEOGDBkyZFiCXHLNkCFDhgwZFiFjEBkyZMiQYVlkDCJDhgwZMiyLbA4iQ4YMNwGQHcxccuWSl0lkVqwjWmQtY7l53VasbjMyNctbm0yrzc0XrVExy8tNPj9vc7WGteiaK+G5IVOTqdj0+JCdPXPCTp86bGdPH7eRoTM2PTVqldlpq9dmLZ/LWVd3n3V09VjvqgFbu36bbd6y2wbWbbNC24DCKMsofaRzKZSFSEjnuOdBzlpa5uSDNIR8tjTzWtA/wiFjmAQtDbmIIbX47yI3byEyBpEhQ4abAMgOBsKJEQG8EoNombfG/LQIMNwAUi0OMF8SMc5by1xOzyKncjM/J6JcxEPNZqYv2IULg3bh/GkbunDWatVJuataMTcnd7M2V6/IV90K+bybuqj7nNIwb0XL5dsVX9HyxS7r6l1rG8Us1qzZLCbUYXONujUaDYWln/zNK4FzDTGlguJtERtQ1siKbGUg+mJaus+1kD8yFBmNZyxcQMYgMmTIkCEyiGi4QDQTBrGUKok+zov41+Yn9UoEPQdxLYrIQ5xz0h7yziAcuYbNzc3Y5MQ5O3H8gJ0+fcQZxOTEqHW0F23dQK+tW9trHR1lK4mglyTMt7e2yV/OJiYmbGq6quusjYzO2OC5YZuYrFux3GPbd91hW7fvs4GBjVYstIkPiDGJyOfyMKmcmM+8lcpiGAoTLaIuk0s0iIaYFTkjnSEzMa8J8U+SnjGIDBkyZLiIAwhYuaqQYIFOuoFwikXooZ7QS1F2Edk5+WmyBxFYzNmTr9izz37bjhx72Tq6CrZt6wZbt6bfGYR8yG3NSqLVpZJ8SZuoVyvWqNatJV+wFjGfRiNnsyL4lm+1mdl5O3l62A4eOm4NMaQ9e++yd7zjfdbdvTUksV4Qo5KeAKMqoFEEBiFFRmlBayDdaBAwDE+lp7vJDHmTWOM+MAhMxiAyZMhwO+Mi6pMQxzCm5DbhIrIpQhvmFBI3YhDzIsINUWPmD3K5FptvTNmRg8/Y4SMv2PDwSevtLVl/f7v19HZYb1e7FWEIjZo16rMKoi5/Yjby5+GJoreIgKMZKESrzSn8+aI0gbzNyvngmQt2/vyYVWoN6+lZZ9u332W7dj0ghtKheKXNwKyUlhYxiJzSExiEnj3dYcysqeWgT6SZIViUT0xkEGCJ27cIGYPIkCHDzcNF1CcSUwhiiijqdh5usMgDBHzO5wKKBUnw9Wk7f+6IPf69L9v45KCtXdNld9253To7ROyr03JbUzBoDzK6n5OZn5OdaHWxWHDpvlaXpC+LeZmGGEStovhyJWvr6JV92YaGx+z1A4fsxInz1te/zd7z0I/Y6rXb5L9HYeWsDr9RDLlCPmEJSnpC8BdylNxdlHcB62UZxM1BxiAyZMhw83AR9cECLSEiIaYQTpGqQK2Q8pN3/lx3In/8yHP21BOP2PTMKdu0sVfS/QZpCFUr5Boy80wxyL8YgJhKrkVX2REAdnPSJhpzild/+VLZcvmiGA6RiAmJ5Ncg/IWyYiyK2dTttQMn7Oz5GSuX19tD7/lBW7N+j8LJK7gwJ5LMoidYyGTTqpn2JcDaGUTAzWYQC+nNkCFDhpWCFsnfEMponGZKNvdVQHqcCwS2JScSmpuzMydft4OvPWdjo6ds5461tmPHGuton7dycc6KeTGIFlF4aQw2V5XfirSOqs3VpUU0sA/zA0x8F4tFq9eqVp2dtrxofKGgWMVg5huzlpuvKKyqtZbnbeuWAVu/pscmJy7YgddftDOnDytt0kxYiqskxqmGyMhY5RSGlBLj+bkUUu5uMjIGkSFDhpsG6GTaLCASxwXbMOASfk1rEXf2Mrzy8tN2/twxW7euy7ZuHbC+vrIYwZTkeGkQcsz+AzQHjFQF979AtBkUYnVRXsQdLSDMJbBc1oe1dC0wr4CmUZ8RU5m2VT1ttnHDautb1W4njh+0QwdfEmMZVxhVZxQwNeKM4zNMWi/k5ErAZTQ3FxmDyJAhwy0Hl9KlPcyIOZw+dtAOH3rJ2jrMHnrobisVqzY1ec4Jdr06a42aNIfGvOVF+PMtRSsUS1YstEq7aLdSqc1yLSXxgJzcz1utOicNocM62rqsVqlLk6j6lEhbmT0XdYVVUVjSQuoV6+ku2969m6WNTNjpUwekRRy1amVSqWOITCZF45kHj1rF1eHmMweQMYgMGTLcPEA0m0ZE0Q0vUohDMwnBDU4DAR0fG7JDh15xYr26r13S/ZQVclUr5SX1K6xSQUwB6ixNYH6u4RpBUArChHS12nCFoqWlYPm8tI75ggh+eF8oMHENiWSIqa77eYUNsSfuqq+A6ugo2Pp1vZbLVezA6y/Y7CxaBCkkoUlisdE1uQ1Y9CDwHN2mzM1GxiAyZMiwQgDhDYTfsXTcPoLJasT6+YoNDZ+xwTNHbIOI9No13VaZHZNLNtJJYxCB9uM3dPXhHveTxCEu0Zibs7q4gQ81MbzEZrscq5fCO1+uysiT3DfmGDpSeMw9M9fAfoyWqhXyVdu0ZbV1dhbt5MmDYlgX5B63ep0kOQ4zkYWYJbfifTQRznxWDjIGkSFDhhUGKCakCeMUejESqX5y9IyNDJ2U1D5mq/pbrb+/00olXkP0wzBPY77mhnEiX27qBBgz56ua8vlAAtmeNgcD0SPB+xOqhq4+p+B+FK6MT0a7VlER46jYmtVd1tPTZpOTozZy4azNTo+425CPa0VM38pAKJ0MGTJkuCkIxDoYkDAHXyqaENimyJ3ACXjdhkbO2szshK3qbbNyEem+Ium+bnP1qhzM6bmQMIUQhCP1nDaAKNxE+3jPS7+SRhF+GIRPRNdlXRWjqVtHW8F6uttsdHzYRkaG8el/Hh1+eXRVIoYRwllseL+ykDGIDBky3ARADJeaNCKVllkWc3bhwhmrzo7bwEC35YuS+Bsi1iK08w32Oohh+PgQg0sLQaVjSse4NPY0mslI/AMGrMLhe9IkpEW0teVtYHWPTYyP2PAww0zBVdiYFzAHb/AQ0C64ps3KRMYgMmTIcJMAYYRqpolkSnNYioRIA6R5GMRMZcz6+jutyCIjNsxJCg8sQc8edPQUjcJvblRInv3KRVcfvroM9J5d1lxx7gxprmatrQVbtarHxsaGbHRkCIf+F+IJF4a0ArCLeY75Bun7lYErlEaGDBky3GhEJnEFhHEa3eB+ziYmRq1SmbGOzlbLF3gXNr3lchzBwbEXzCNwdDcGtgG5C/dRrie0i2N2yr5gXIWQX98pHe95B4MQq5rjuPCcdXe2W3Vm2ianWOoawDwGR4HIQ8pELGcHknhXADIGkSFDhhWAZQjisnQS5oDlvE2JENfrVUnvZcu75K93euVLU0XEOTkjkLi8S/3BxECjSaFJr2UfmYAzAsKIJn7oJy/f4ei9eRhErsXaW1utWmEXdkW2wR/7K5J9eW7F0FSIJv1LIcbZjPvmghxnyJAhw00EZAhimCKI/ijS2TTBOhDNQFIrbIJr1K1cLklrkIagd/zC4iPdcSorTAE7mITiidpEEsEVfqQLrSEajhdPG74HEUIsFnJWKpWtXmVzHaumQoLD6bC4kPMlJv5fQEzXykHGIDJkyHCTADGMzOFSpChFRN3ZAhGd5/wKEWC+BBf2Moj06xmmgbdCoSSXSPvB/WIQ7sUmzF/E++Az+E4/kVaZRMLnFNh43Dhxe/wJSC57J4JLcGuR3FsrtRkyZHibIBLbaAQIbqTPyTxDGDaKRo+JU1AslayQKySb3Vh6KktRZM5RQvLP54q6Rg/YxTDT94tNmJ1I7gkT48wiJCz8T5IoNyxdRddgaqRer/v8R76Qjld3cAlP3ILdRUgHHM0KQMYgMqx8XKLzLIzhXuq3yPlV46r8pR0tZzJcJSCakKGlxJNCjJO7CQFn7MgnqQM6O7qsWCzZ9DQH6PmEQ1L27IpmfgDCLD+YGAb7DxQuG934FCj7JpqGL9WxEkom3Ae38St1cbjLj+Nm9RL3cgEDqNc4NHDW2trala4O2QpEiYNowr8E6ftLlcHNR8YgMtziSPfAtMnw9gGEMxLPWL856+rqsVKxbJMT09bg+O8WvlGds0Ihr9dzVvWvxqWpdES8j/aXMyB9DRpFhIcuZlSt1m1qasY6Ojqto7NHtiG98DOSsED68YEB6XytTGQMIsPKBh2MX12m4Q/BWj0PwzJCjB+N0Py5D9kHw1i1uw/BeadlFMKPYMYk4TE0gXvgdinjYc2FIYWL36ZNgktYZ7gMIr1s0sy0RTSBZDGB3NO72oqlDhsdnbZaDX2Bz37qyjcZpBGw09kLX39e34lC4OG0BDIf2ghOgh3vqGKvZj23MIUhzKnt0Y6IJY894Sku2EUuX7LZWs2Ghkass7PbVnX36iWeFITceUwKMB4wCIgp/E/i1H83eoxmJSBjEBlWPuhfdOwoePHsvzn194b+LzAF/3mn561+yb13zaQX+oWr2wf32DUZRtpEb3qAQYDFTCKhBG7S9hmuBgskMpiF8uMJ6gyJSpsF1/39a6y1tduGL0xarSK7+ZJ85lQTdZma6Hv4EFDLfM5yjZyuPDH0RDh8EnRhVZMbaQKRcTSoY/cc4vJvQ8iQorhDmxNf51n2WijbVKVuZy4MW0dPj/Ws6ieApL0qZIJIGlSIMQQdEMKPlzRIx80Gac2QYcWjhXm/RJoDoT/R1ZOx5kWAcQTp0U/zzC12wT0NH9NAM3HJUM+4SxwyLMD6de/jAqtjOOmz3qi7+xAK4D7dlVdCt77VEcs3msXwY7tVOZs2bLWOjl47dfqC6DFfg2sTDc4Z0xG1es0qtVk9s7taNDxfsFKp6CafKyhUwg3Mwa9iHjB+p+tJXTtNRzDRNZ9n34Op/sV6+L6ELFkllSu0WX2uaNMzDZuYqVh392rrXdUnD3Kt9jon95XpqtwrJ0xWN5G+X7nIGESGFQ86OMalePV+Oh2d14k2Up86G8I9Eh6dmc7vkl7S/R2844P0ogBxQUxwyX95wvhO3GSMWRGEa/JKhiEFljR6Yhy8jNdoMlwfLJRlUhPB6F8YRipYR3ePdXb12Lzux8dnbXKqqmrmgL6y5UW4C5Ls3b9/BwKiXpdAAINXPasNIFrkpQHkrOhahs2JKYghiNWIifD96bB8lvhzMAgxGcD3q2l7bJpr1PI2OjxtY+N8+7rdensHrKOzV+9oJ4pb7twtV/fN/3C3+H4ZXObVW4WMQWRY2Wh2EoaBOKdfDMJXpWCll+rYdG6GD3wyUNe8d3t1aoi8E3x1aDo1vb85VhXIjn9K0ntBTf4rskbak5+WZCggoUyELdoi+7wzJY+aVSxNI6blV+zdyyKT4Y1gcck1y5IVSnmplC0l6+nts3VrN9q5c8M2eIZTVDl2o13aRKeVdA3aQV1EvWZ1Sf58b7pRg0kwwATDV32qvWCswca3wDDyLTADdkIToVzm1KoKalVqL2HOgtaRV5so2OnTwzYxWrH+vg3W3bta2q7iheGo/eXkPl8UA5LrsFcDcF3uPiDaLLa9OcgYRIZbA+otdLZCSR0VaU4SGdJkraIerD//4HyuqAatJu0qgq607pwYAs8FBVCSRVFX1Iuc7HjHVe85tjnfEsatRSlEOLBWBDAF2fDZAPVzJ1A+wnQRsIzMJ8ONQhDGw4wTFTmwZrPdecc9dvLkOTsl097ZJwdtVqm02HRNQoDaSl5thrZDk8irHUjhkFCAfxlxfjQCBA9JFFYsiQnIXb1R86GkhYUJ1Pu81VW9XCvSYlukoXR09Nvg6XGbmpq33bvulPawSi5peAGkF8XDmYoHwztaFIjXlYsWZT7kPkOGFQofWkITUG8LQ0oiD0wQyr7R4FhntICks/nrqlUnR2xqckxm1MbHR2x6esJmZ2f9M5OI+IxJl1tbrVRqtc6uDj+Js6e31wqtXerRSJ7iBnN5m2uEcF3LkGGMmg4TCExkCJjY2Z37yPAc7BbuMlwZlGuaJIUhnjTYFIcmmIPBz1dsfOy0feUvPivtYMzu2LvR1q/tttYyk8rTcj0jNzB+6ijsdvYwCIK61NXnHGTtg0AueIhpyN5dSvDw4SW59eUQovQtagz5QqdNTRfs1GDVXn75pPWv3mof+L6PWUf3asWi9qO2QwDkBHaWBC2TzhsgFo8pwdLcLn56q5ExiAwrGt441UTrSHgJg6CPuUl3HvXoudqsJL+KzUwO2/DZ4/75x5HRMzZ0/oyNjg3Z9OSEVasQixZJimVra+8Qk2i3Vf39tm79BuvvX2s9q9ZYe8cqK7T3WYEhipaimESIgiWPnh7v6ciwDRkIT+xCpCgyh3DlLpoMVwPKMpYngEEk16a1bqDs/rEehIUpe/3Vp+2Vl56wkQsn7MF33mWbN/ZJ46tKkxiWv2kJEXURdtoPDFze5Z9TVhlxdM2UjwvpV2OOK2EChXzR5x1ckWT+SnaY+RZOi221o8dG7amnYQ477c4732V773ynQtY7hAoM7UXCCP6ThU/edJZHzBwMIt7jOHq4pMcbioxBZFjRoHHSRCEHrCBhkjo/n7eCGEVeHdvBcHGtZhNnT4hQvGBHj7xqk5Pnra21xT8F2dPdLi2hVc8lK3I+jwhFvV63mdmqzVbqcjtlF4bH7Oz5ESu3ddu2bXfY7j132doN263U0ecReNxKR6HIJKi6cJNBeApJhQCJiZ06YxBvDOnyDAgydWAQYU5g3jW6Ghvh5qpWFPHnVI2nnnjEvv7lPxNzWG137ttm27cPqK4n5G9K/uJu6xC+yHxCrLmK8OuBOQmuBD6P9iins7W6mlZgGB0d3T73MT4xZSdPDduB1y7Y4GDdfuzH/zvbs+8BKa5iIoU2+cvZXD0JPxnailSWdC+PkC70jYW2EvJ9M1tQ/p8JyX2GDCsUyFTqIPpj+SHDAXQ0NkQxbjx+7pQdevV5e/3Fp2zk/HEr5Ss2sLrD1g502kB/u63ua7Xe7pJ1dhSsqz1vnW15a2/NWVvJrOwm78yju6vDWkslP9P/5PFjNjY6Yq1iCB2reixXKEoyrOkahg5IUdLnBTrvYhNZQ9o2w7VgoXTTJQh/gIhDfLGhPTiBz7Xa9x571H7/935fzJ/PjzJXlZM22O7zCrhuYac1Yj0UG4agay75JjUaRU2qYgNNVJyBKew5d1eSJtFmpVa+WtdpU1N1O3r0jL3w4hF79FvP2RNPvm4PP/wjtn7jLgXCYX1Ko7gBwkuIhoQqPGdspDfk49Lwlp6Au7R565ExiAy3AIIG4d1Enc1PUsg3JKVN2+zIWTvy2vNiEE/bsJhDT1fOdmwdsN271tvaNV3W21m01rIkxpaqem5FRB5JknHpMClNWB3tZVvd32fbtm613p4uq8xO26mTJ2x8dEgEoy6tos1aW4tBe/AOLOKljh9IGARmaUeGMXBdbJvhWhAZRKoE+QsXf51jZRF7GkR0D7z2on3hc5+z73zne7b3zrtsVW+ftMNZ1S9HfuNDWmehXRpA2EznS2Wh4Iz96ApRZz6r7syBBdKEWxahb7d8oUPvSjY2VrXTZ8fslLSH8UmTpjpkz79w1HbvvEta53Zr7+pW2wqT2vkCTMuDbsLT7mm5GNgGsxxjjOatRzbElGFFg8YZh5hqNc7/r0j6L4ngN2z07El7/NGv2+jQoPV0lm3f7i3SDhg7rlsRBjJXVYfl4y0NH2dG68gxJjwXNjrRe1tyRTGBvAhDwQqldoWfs2pFJKTYakdPnLVXDx5X3GW7/6EP2F3veFhMRn7lfr4AoYns4uLOG1lEfHNzuvetCK9xmUTkVslB0MM1eaNXfnyKTJmVaXL7f/+//bIdeP1le997HrSf+5s/K+Fhxp7+3iN2duiIrZIGuXPbRtu4cZ21tUmbmK+ojmcUYl0MYE7tRWExJ6FwmKOAOZiVRMzLahsFG5+YtdMnhuzw8dNiOnO2bt0me/dDH7Iz5ybt93/3v9orrx617/u+h+1X/+Gvyh/pC0wC7YaKT1PYSzOIpfkGsQVF89Yj0yAyrHCI/EprwMxL6i94h87bqaMv2wtPf8vOnz1qA31l27Ftta3qKVq5wIfrZyX5iJDLcPCCD0kpJCRGX9WqfsiIM8wCA+igjZq0jPmGL2dtbytZSVIgQ1iTE6My42JQM9a/dq3lmLyWO3ZhO5NJJFI20nFlz22QdEOnjzFkWB4Q0wU5FcIfVgVEFgtR5bUf40258qw35WLOTg+etT/87B/bt779mN1xxx328z//N23bjn3WIWm+tbVDdSkiX2+x0dEZO33qgl04N+a7nltaWsUcWqVRtKl9lKUddoqgd1ilknczNtaQpjBihw+ftaPHh21sfM46OtbY5q37bde+B8Rs7rA1a7bZmoFN9viTT9mx48f8w0VbtmzyDwdB6NlU6Z8cnee02DCktSw87wxDcY3Lasm3t1oZcHPaT8YgMqxohG4BkWVvwpzoMZudxuzFZx6zg689Y2v722zX9nW2YW2XtTQmbb4+Jdo9a3nf2xAYg1iB7vVLGAIEPRi5EMOAgUB0GnU2yqkzyxMSaKlc8CEnNJCRoQt2/tw5Wy0G0dGluFoKVhfh8ZDkwbs4zEeGYe3IHDzti/r2oocMCXzlkK4YpHknmhRcLDw9On+A0IYKs2q9YV/5ylfsd3/v07Zr1077+Cc+bu9450NyrBrPFWxV/zpb1bvaCoU2m5qq2fDwpE1NV6U9qEYbBZuZFfOfqooZVGxiomHj43UbGpoVM5HbkVk7f37WhoYrEgxapYVstt177rd9Yg4Da3YrDjSMkq1bv17+J+zYsaP2wgvP2Y4d223TpvV6J4KP4WgW5SeunlqEJGshzxgYJU8LzCFoHInDm4BsiCnDCoc6javdHLxWt+mpc/bK84/b8cMvWX5u2t553x5rL4l5NKastci+hYqIe83Hpr1jsaOViUlIedL5AFqEcwcoT+iLVqtL+5B2wodoZmYrNt9SlLbQajO1FjsuafKUpM/WjgHbc9e7beveB+S1pA7t62EIrAnv075jG4rGMxZpkyENmEOjMSemLoLodaEaD9vWvT7iBC8riQDSeEWvP//5L9qf/Mmf2PHjR+3f/H/+F3vnO+7392BebcCHEgtQ3rrVK1M2MTZk584N2uCZE3b2zGkbGx2yysyE2oyEDmktuQKLGLqs1NZuXV291t+/wdas22SrV2/wIzQKJWkZebQDFy0UroQKBAI1tT/4g8/YP//n/8w+9Vc/aT/xEz9u9917n9WIX274cJErB/hrrpUmP8k1eU5jgT/e3PaSMYgMKxxqni6aMwQ0aYMnD9o3v/Jn1tlhtmf7Wls/0GpFQySc0TUcp+ESKEyB7wg79U/uXXuIHQ6yjjuWrzZ8KKDQWlI8DWkoFREsvc/DIMqSBMs2PtWwk2fH7dXXTtl2MYd3vucHrdy5RkGWnRcsGg1wiIKJqfEidPLo4OZ2+JUGCKeTIBknlPrnNDRQVC87ZyD+3GKlYsFmqzV74aVX7V/+2r+UdN+wv/bXftp+5Ic+at1d7WIscuWElzClReYT7qK6mG9UfcMkGycnp8ZsdmZaWiBHrDBfxUbMnJVV5xypUWzrcCbR0bXK2tu6xRjaFEYY6orE26PQA/Nbhw8fsN/93d+xz3/hc/a+97/X/l//7H9UerqdOSCkkHr8o3OGe8JI7qKFv18cR2QiNwsZg8iwsuHEHgaRs+Fzx+3gy0/bc099y+7cs9HuuWur1afPWzEX1sJbYzbpfoEYzztTgEmgTcjO73lPN2QIirBZ2sh3hBsi+O3yU7XqzKQPUYSxopyYRJs1WtpteLxu33rsBevo3Wh33ft+27T7PiuUe3ze2kcQEtofOndkEIEohJ6eMYil8AlnXRk18sMWeXLCSHnxmCw71St4RLlUsGeff8H+06f/s/3lN79pH/7wh+1/+p/+GdsNVIeh5oPXMK8RiHBdTzAA1UWzHiLiPVfcovkBnmk3AWiKrHTCPrhEwPAbMQj5kvZ5+MhB+5u/8DetJo3k7/7dv2sf/chHbVXPWvlTA1HKPP7gSyAsDGEz70DaaERYBCaxEhjETY4+Q4arxbwNnjhuRw8dsh2bN9um9euspN5TlzTZqFYlHTYk7aQ7H+A5EgRMtI+dE4IEQeGo6KI1KjM2p/CKhaKe5Z7zeGanXfIsSLPobC3a7h2brWWuagcOvGLV2UkFGyRegqdTx+EQt7jZvfsWArXhx2GLKs7VRTD9TBPG8BlabFF9FKQ95G14ZNS+8IUv2q//+r+3j/3QD9nP/fzPOkOAmOZVD5HGEka9CrFn9sp8B31ltuobJAOSNoAA4psXMFQgu6Qx4SRXPhTEvgoECEA8VC31XMNeN2gfeWmaLHX9R//oH9q2rdvsX/7Lf6k2ctD9oP2E2PAMkri9/cEc2HAZtFi3FmI8NxtZC86wsqFOgoQ1Nz1uw2fP2OTokG3ZsN7ay602PT5lHaV2K+dLIto4VHOW8aObMfLsMxgt8k8HFJHHzEu6p0N6B1XYDBEwrMA4eIMjFfRjUpHVUny+khNhYRaF3JytXdvvyyLPnz1pU6PnRSWmRdiCpOrdXf9C5w493M+MIhNuMlwWKjOkbOYdIOS1CseiJBRf4N1v//Zv2be+9ah98uM/Zh/76A/arp3bmyULEa8iLOiXV70VWAKrumchAd9uKBRLLgygWTgvQDPRvX8oCFLocUkH1Tun1VSmmAST4jChHMIAix9k8qpzNRnfEBcIPavfyvahD33YfuSHf8Q2rFtvn/70Z+yb33rEimqfeYXNUCRBcmzHnLRWWgwmaDa0OkXHL2ESKwGUTIYMKxiMQdds5PwZmxkftpI6Zk9nq7QH2ddqVspLslQH9JVKzhySTi5/9LOFo7gXGwiHvxPRR3LzwwAZVhIBYbkq4MthBezUYxsNlirOW2cnm+ZEwMQYRobP2sz0mMJSz9c7YvXhDbwrfcmNE5nmfYbF8CIRmRTlDKPdIpQM7UG4ZZxZi2FMT004Y/jGNx7x5aS/9Iu/aPfde48vP6jLL4SeIsePn7FEfaBSEKJewDAwDDE5/fV/eIAxBOPthf9oDtEJr+SMMNyGNNJWCL9pL01WRJ820tHe60zik5/4CXvh+Rftz7/wF3bu3JArKPFoGP4rt/oRC20x2PlwmEe6ckBzzpBhBaPF6o1ZO336sDrPpK0d6LBabVISWc06yhyMxg5pDlDgoy8iCN7HvLt5X4NQuCXXFGNgCaLbyx3EqVqrS8IsuxToEiYjESIUIitiRHInr6yy0ZN1dbRZT1e7DQ0P2vj4BTlktYo0D4hJoEkJIvEJhCHDxYgEqFYTkWdhAEWl4mYlWanI8SZhaOfFl16y//l//tcq+w77iU9+0j74fe+39tayVfWeiWYIN8drwDwg1HVpINSj03OqOQGaA1odMbNU2YUCT0VoMw5dfN+CuH1gAMGedoLkP+f7NEKgxIFWgptKteJtdeOGrfbX//rPSrvZIybxsv3u7/wnGx6mnYSQchJq/MNTPjdCWDE82YWoVgxi/WTIsEIBsZ61C+eOqGOP2UB/0UqFihVzFWPHNJTcd1izRBWCIhLeYAybDicmgPDekNbRcKYg5zLetf0ahn/m53LWkCRZg3rkSiJOHQpj3qqzYTNcsVBWUHpfYfls3np7u627t8MunD+bMAilwz+SLyaRaBOMX0OYAoHJcCk4wZYpFtm7QJmpnrBsSEqXxJ8rFe17333M/viP/9gmJibsE5/8hP3oj/2o+6366rOGDwNyZZlyXaZQlD+FFeYNGGBCcJCZYwujDAQ90RhoKWEzm67cU12qs1hvzfpDthD3z7H0OfmYkGz8F5hEzk8IDszCrLXcbr/yy3/X9u3eb//p9z5j33zkOzZ8YdzDI0TfNIem0qj5Igm0hzChvoCV0HIyBpFhhYMO2LDRsTO6nbKeVXxbWJJXy6wIO98cDtK7U5nEfexai7obRNttoonuZFxSDB0ehtEQleA8HlcHOPLZx42IQv5k2ttarau9zcY5Qnxm0t85BZEk2IwFpzH8jElcFpSXI0WNWkTk4R5nz5x15vDSSy/aD/zAD9jDH/yg9fb0iqDXnLgy7MdQD6H4XJXagn+DXHbUQSDhEGMCh1kEEyIL9ULNLUaqpTTbVRKW2gmMIoSDfyIKcTDXAPOYq7Ok1uyee/fbww9/UNpmj/3xH/2Zfe1r37B6NQxnEjp+FsetuPi7OEE3DakqeSNoFuMNNrcD3ni+F/ta/udvFztcMJdAQg+9k0RzOaTdpd0vZx9NGhe/D/b1uZqNjQ+pY81aR0fJ8nkk+4pU+mm5qfkKFz7rOFetqtOFCUqRDfkMBCBAgTHEpC7ptgqcq3cA3QReIO1Dcc3OTHkYbJgqlFqtVq3J+ZzHQ7wFaSSsx5+YHLPZ2ZkYSpJmJFJiS/Lu/xfeYSIu9Zy2uxVxqXyk7aMJBJ6VQhDVpE4SqnTmzBn73J/9mX3729+21asH7Fd/9Vd95zJMAEJdKvDtaAg1k8ZhQQFGweo9E9Mw+RAWFwzvIgHGDZI8XyNkBRVMxXm5CxPSJ5J5EWcMLkQkgSXgnf4ngYZwMbjNSyMC7//A++3v/+rft29882v2X/7zZ+z04KA0U3bs81ZakxgKJmqcxOyvVgiSqngzIDs30txOuF75ToeTNm8M3nCv0nu6818Ol3qPvavhboLdyNkLduC1AzbOqqWOLqv5UkUR7BJDSmGIwId2PEz8RSlxoUPjrkXvw/Q1K1uifXDFh2ca8xXpAAqbSVKoFOH5Dl91eBEN4mDCnGOkmf88L+l2hmM9jd21HeroXMVkmLPQXyR0l8LVlNOtirrqiDH75cDQD+9BdFEUMae+vT50MzMzY1/56lftX/zar9n9D7zT/vbf/jvWJoYNyXKC7VeWJuT9f7BhCIhwKPhU4VPBieGVG3+xgPA6/ghRv2WYQhqklWWuou0LAeoa7cGqvi578J0P2C/84t+0an3Wfu1f/QubUt44RjzkRQ0pMaHt647HS0f7luIWOIspXfq3E65/vmn6y2IZ67A5KTTYCO7pMMvTtMsTukj400g/cx9NpVKxY8eP20svvmTf/fY37Jtf/5I9/8xjtmv7Zrvnrjt8bwLDCCX1pDAoFEQ3XxIp/9joxv9iqqItZCMQAa7hyZmMGISUfxKaMAQ8y3cyIYmEybHRDVEDTn2dmKra177+qB05xtLbSb3PW1dPn++hYLUKYYb17fKrYJbmfSkio4juruR+pSIyPYyfZipERhHzFN/xHHNJfVIC2OP+c5/7nP3pn/2phIJx+1t/6xd8Q1xoj0k7iT8F0LS7hPFIEuOP0SxYyyz5JX6X+k8bqoy8uBuv74V7tEh3pny1dbT5+UynTp+2xx//nq1bt87Wr19r7e1dcqEyUpsK/jD67/cL15uJW4dBhP5zZdz8Mr1OWJqRN58xGv6yWMa6Xp+TpCfpWdIyDXX5trpgSecAwW2wxy7ag3TDj/cAaRKpEoP9q6++al/84hft05/+tP3xH3/WnnziO1acr9r9995p+/fuEi+oq1tBdPg2hAgLhLjBKhap6tgSp4i8x6xonPSgAfDsVukfUizMIXTuyBzQNny8wCegIfQA0bNgxdYOG5ucsS999VH7whe/ZY/85bflt2SrB9bZug3rnMCxkiaseAnEEaTzDNLlgDtMJKpL3d4qiHXOiiLywj17E8hPzFtkDhHc4w572sJxCQe/Js3hyJEj9i/+xb+w97znPdIcOy5RJtgtZ94aMBlOskg/7Zc8eP70LpYFQ12rV/f7EOXw8JA9+uijui/ZvffeK1fknZAIh/IJaSevy+f3rcWbPGrjTXi9JlADye2VcPPL9A2CDF4qk2Tq0hlb7OvS4fgGsuWwTNCxcYfOiwM0CsZkRURFlEPbDR5pQekVGHRy/LI7OTavSARAJBQRo6Oj9uyzz9pjjz1m3/jGN2xqaso2bNhgd965X53oTuvtbLFHvvAZu/+OLfbhD73b8nMVy83PSo+vWMtcTabuSnoux4Ry3lei+KoUxpI9XeEeVuAxKw/hqO/QkVlsWFf6GI9Gks2JMbB8lnD1qLTnTF1fRmHnOXajw06em7I/++Kj1tqxXmaN/eVjT9rQ2LRt3bbDPvkTn7T3v+8h6+zsJDaFzvAXd8QWygykywbE8gYrgTi8EVD3tBPqPtY5djAMnnnHNd5HpuhEVXYwhX/9r/+1jYyM2Lve9S77uZ/7Oevr67uozawEkLeYfu4xMR8x3wAhi9VNMMrnnnvO/uk//afSINbb3/gbf8Pe+973WltbW7Nc0lj6fDPwJjUIMvBWmGvANTq/NXD5cohvr5R1b3Bpx9FcEoERxIaqNqz7QMSCVdrzArGjc4DYWeI1GjA4OGgvvfSSM4Wvf/3r9swzz9ipU6dsenratmzZYu9+90P2gQ98wD70/R+0nbt324WTR6yjveT7DwoQcdLFUhFJ6kwZMFnpk5xIdEmHJXniA4KIEen2u/CM4RdsSV8Yy4YMoXs4g9CVXdYteeYn5s2nFsSEZmpm4xN1m56dswff/yF7zwe+X3YNMboJGzx7Tvk4aWfPDFpdDKxNae5o7/TwQSybWA4gXS68Tz/fqliav4hIULGLZVEohO98U/9//ud/bl/96lft4Ycftk9+8pO2adMmdx/LZaVhaX2RPxCf0+/J55o1a2xoaMi15JdfftnuueceGxgYaLqPiGWz1P6txnUbYgrZuXZcNvtvJNCbW543CGTqzWfs6kIIrmifmNg+uaJOIw0FNwuh8S6coMp9YAiY+ExjR/1GgoIBnD171r75zW/68sXPfvaz9r3vfc871kMPPWR/5+/8HZca3/ve97gWUSiIIE+N2Mi5QYmnItpiCpzJw1lJLFLJtzR8mEkvzD9Kn8TnP9IVk+kaBA+4DZbqtvqndDpzYKOdnj0fGL4LIWKWTBjyKcr6nNwWyjY1M28joxWbmJ6zdVt227Y9D9g73vmgzDt8oxa7fb/17b+0Q4cOWVdXhw+PYAgoEpBIJNPwdMtgf7MJwxtFTDv5SDMDkH6OBs0C4P73fu/3/PsO27dvtx//8R934omf6D9i6fPNRkwPV9o5eYn5jP0A8Iy566677MUXX/R5lq1bt9ratWutp6cncRVAGCCGfbNw3U5zfaOBXDb7byTQldV2rgFk9lIZJlNXlzEI4wIWh3flEBbiuVSzoMEu9wrNgklE1Oo4vBBBp2EIieWKjzzyiKvZO3futP3799u+ffu8wyBZQUT7+/uttbU18RkwO3nenv32IzZy/ph1tc75N6c721t8s1w5V7P52oyFb0AUk5kJxS2iD72PG+N8qCm5J2XOL+SAVSQt83xruiDHDAXVxDOqcsA1HK9BmLX5otXny5Yrr7ITg5N2/NSYtRRX2Z673mVb9/IdgqLValVpEWM2NDxsTz31pBjF15XnRz2fHL3wiU/8uLW3sxKHncOshgrEMY5dRwICbjZheDOg7SwlcJFwxrkJCD9tpVQq2eTkpH3+85+3z3zmM14+//yf/3PbsWOHS9wxrGjwmya6NxOkJ30lr/EeLK3D+B7z1FNP2Z/+6Z/af/7P/9l+5md+xv7xP/7H3m9AZIrR3Ezc9Enq6579W7dfXQZk6mozFt1e7P7qQgiuLtVA43PsB/F1dBvHmll9whDS448/bl/+8pd9Yo7JRxo/qzjQFt73vvf5BCSTdTCG7u5uJwoQkyTUED5DSRDfofM2PjZsGzeusdayiMQ88wQ1uZ+Vo4YVS4GgBC4gj+45uXLr/xRm8uMeZiI5L2yRwMZ3QsMc1JF9crqhn9y1iOnl22y+0GHHTp63U2dGbefee2395u1Wbuv0ZY1Mknd0dNrq1auVxg3W1tpmDaV9dqZqx46dcCbJbmDGnBlXj2UWiUZ8DukI11sNS/NyqTxxT1uZnZ11DfI3fuM3fM7mR37kR+xDH/pQkwngLh1mZKQrATEdtGnSF5kX9yC+j+mPhnwzrITWwBArfQVGibCEf8JbKfl8UwxigVdeH1yX4lgZbec6g0wtyViq8JGUl8e1F0b0kbTxS2Ah3NiGkZ5Znoo5ffq0E0PmFhhC+su//EvvBHfeeaf99E//tP2Df/AP7IMf/KDt2bPHurq6vNPEjoVUGRmEdxBJ8Azz9HZ12ODp43bq5DHbsmWddbQj8YfNcopdnS7nG908PV4gEBj8Q9x1q/v0z9/BGPiRVzGIMCEt6W2evRChABrzHMOgcAvSanLtNlsr2MEjZ+z88Kw99N6HrXfdZp/6rlXlj59rBXPW3tZhe/fusx/54b/imhESIxIyZQOD2LhxozNDECVlQDmAlUIErxXkIxK4NMgPhrrlGgkgAsR//a//1b7zne+4JM3EbXQbywREP/F+pSGmeTlQHrTrmB/cUee9vb0+vPTKK6/YE0884XNuMI0YDu3phuMKUbypIaY37PESuCitbySCt6BMbwzIbDrDSzOy5Dnl9NIMAixXiJcu2BhUkIogWNiEjklTCY2XzuBWTQwOnpE09B1nCgwlwSgeeOAB1w7uvvtuH1KKY/FoCrETxDAhHHSiqGYDX/YnDYFPRrYUREy+/gV74clv2v47t9jWzb3W025WmT5vrcU5KxfyxjcARM3lB0ZRVLnAHGSUXsluzcyR+1ACMAhZoz2IJxUKPFetNjdrfEayIUIPg+CLclbotEqj1QbPTtvBo0PWaOmyj/6Vv2qd/Ws5DkpByYPiivmiUuL95NSUnRkc9BU6f/EXf2FPP/205xVpGUP5RKSJyK2INDnhnnqNWiXgOTJEJmsZWoE5/Mqv/Ir9lb/yV2zbtm1NJgKYt8I9YUSspLKJ+Y1X0h6ZXzqd6XKhb8X3tIPf/u3f9uGm++67z37yJ3/S7r8/+XTqgpcbhysU5YraB3Fdqn3ltJ03CTKSNkuQepW6XcYs/BZsL42lbxca+YLUhxVj6IcOHRZT+K79+Z9/yVeeMKTEJDTS8Tvf+U4fQnr/+9/vDR5JCW2B+QU6SBp0HkwMfwHqIT53ABPJWYND+aQxnDt/yoeY+vs7XdrPS9r3ORAYBERfbhk28oTqzvPuf7jzgHmUX5+B0J38iRFwyNu8tJEaQ1ZKC98JmMuV/ItyVuiy6dmcvfTqcZvPddr2nft9eClfCvMlfj6P3JMP312bZJErE9cMKTGuzjBKHFrhKIkDBw64VoEdEiXEcHEZ3JqIBDG0l2AiqOcLFy7Yf/gP/8FXr+3evdt+8Rd/0ZlDdBevhBMZDPdLw7qZiHkEMX0gajo8RzveR3uAPfnCrFq1yvsEfQg3lAdzMf4BpRuNK0RxRQ1i6etYOZf1lqrASzlbro7TVs3wdbmmBnENTm8krlCsjovLMu1ncUaiW9/hzDCMGhSNiiOS9d/iefj4i1I/+xVocJiFTkZYuCMuGnC8p+Nxu5CGhXIP46JoBUhIY2PjkoaPSRJ+yr71rW+rkz8tzaBdjOBe+8Ef/Ih97GMfc4IYQf5gKBA/0kJY2BE+BikqpnO5cmM1ER/sma9N2enjr9qX//y/2KYNnXbPnVuto8juBBH0uaq11NXpYA7sb5iDwJP+YIIGQdi683wqbi4endIik+espUbVKvVpaRCScsUc5ltaLVdst9l62c6er9h3Hn/RNm3bb+9674etq3+d/MgNQXhoCkn143nle9bSKnhWkojV800ZUIYvvPCCDzmhbYGPfOQjPvaONoGWFTWpWE7LlcsihOgXkHa+6F18uFR4SwNabLNcOpamj/uYbgyIV4BWwH4XtAf2OjC0xH6AdDhp9wB7yo82svTdzUI6n/E+po976jmmOc3kMCDmgyvCwt/+23/b3f7QD/2QL/FlLgs03ft/PSdXR/KQBLUIi9wJi/zzTxYxDZfCVTEITFSdyGi0vyRSkS51xjOvl0tX2oqCBXTjK2ViEa7B6Y1EusxIP/dceY6I+YplDLDCXnRFfoIqWvClpQHjEyKSp8+oQZ2zkeEhGxsf81UgHBoXP53ZKumjvbPDVkkiXTMwYANrVttqEeyOtvTqIMWp//5FLRnOsPEVO4y5N+oiasnHclL48pe/JIbwHXvyyafs9ddft127dvlk83333S+pZ4c3aMbXkZLT+bxsW7kKhFKiPdRtcuiEPf7Yl2187KT1drXYHTvWWXsJTaBmRZXVfK1u89Ik5hqUW9HnJfDLGf6+FFeB5XwoSelSG6vWqsp3zkolsRkRdsoFRlHDaa7VWoodVp9vtSPHR+3Q0SG977B9973b7njg3XJKHmFE5C/JY8yqvwsp50IZwAiZjAQwW84bOnjwoBNLdo5Tj0zaMw7P8NzSMqRPRIKDwQ7jkmbSliKa72Qf2xkIbJFkLl8n8X0aaRvCXArCj/FFeBtWWrGLxDHij/7oj+wP//AP/R7m8MM//MN+D2IYafdgadgrAek0pRHLYymiPYay4Zl65Ep7YOiRTYLskfj1X/91tYWHJCx0yn0yJ3dR3VHGbPOUgrukr4KldZz2TxqC1nv5slyWQcRMpJFumGAZbwtoRko4yW1MnJ7jrttgQwP2m4vDTB6vlIlFuAanNxLpMiT9EAeudBbKMtovhR9ZPKeGw6SrOj6MYnx8wkZGhu3cuQsy570MCSfGEQzFFeJT1XuZQjj83PmWOeuUVDrQv9rWiFl0dXVaSZKvbyjDjzxzmmapxHLPmCaOWh70D7W88sqrdvz4CV+BU6sxhly0/v5VzaWqd9xxh3V3c67MDUDMlxNsMc3quJ0/85q9+Ox3dD1o2zevsq2b1lpfd5vVZiT5q2zzXhjsbUj8yvO8n6nECiWVTh6GqM7KG5gwmpaYxsxsRcSec/1brSYGM59rF0tqtaHhih08fN4ujNbt/nc/bNt277fO3gEFTgiKIcUgQukpZtQUV1XCG9IBk4qCQmQU1B2TlKxmYeMU4/JoIEzgo1HAgKPbSHAvajde2boqopDfBNzyKrpPvWpW8xJ4W9KPduA//Ho+rw2xXUbQXsk7ixcYcz969Kj90i/9kk/MprXNtztimcTyoXwjTaXef/M3f9Mn7RmS/e/+u59XG/h+uQtLhAHuw54j/MEggv1V0eUUcOZDsbFtXAKXnINIZyBmYrnA3A03qXfcLjyRYJpaYtd8sWAfkS6EJnS72NUVcA1ObyRiuQHyFcsPk+7o0Q1XiFb4EHo4v4UJUtbVM5xz8OBRO3bsmJ0/f97HJ9etXW8bNm4Ukd4uYrLP7ti317bt3GWbNm+2tWvWW58IeKlcdsnkgojOhfMXJHWPu3qvfuodFsJTSNLVEPGqVKou1Y6NSVo+dMCeeOJJ37hEg33yySfFXNbaO97xDvvEJz5uf/2v/zWfW9i0aaOVFc+NhTpFPZRTToytU5pRbXbKhi+cl0Y1IWZXtnaWmipfHLeRyylf0h7gwxAlsVz5pEfIQLtdo5AdDFTlYGIQddVHg70TksTmrCj+woqlvA2NVOzYiREbnzbrW7PVHnjoYWvv7neG5Y2NMFNtLkmlIlmw9HatR8q8ylfHxIzjEBJlz5JHNAYmKTlm5Atf+IITUvxRtrglvczfxHbEM9fmMdSh6yyC2yegD0H43Z2seXb/PKT8xj7oSLwvhBLep8ON7tN2IKaPPAPuDx8+bL/1W79lJ06c8HbEvANteWmYb2eQz5jXdFnHsmLjHFo455BRNnfeuS/RyAODjYwAwBwuRZeXw+Jy5v7Kfi+pQUSkA6XSoyEzmLkGy7fisrak0aHyCh6K/+M5hOlB6zHauAQnCTd+ti+CZZO4LZXKhJrYXgWuwelbAcqKiqWsYjmiTYC0HUAYEH9wRsFx8gcOH7Vnn3veBk8PSqJYb7t37bItWzfJD41F5aYfTKDIxKbKnGOwsQ8FHBh8XVJJpTZrI8MjdvrkKZfc2tvbbO/evXbvvXdbqw/BBLz6+mvOEB555Bv22muvKB5zCe99D73H7r7nHt+/0NbW4YwlvZlt4ZTNxOJ6QuXhbQajfx5FvmpzlVE7d+qAPfW9b9jw0Glb09dl73nwHZaTtFWbnhHjowhqMtLc8iLIBXUmJrM51rsBk4RNkG4YsRiJTFFlOT9fkPaQt7bO1Xb85LA9/+IRG52o2779D9q73/39VmjvUQWJuJMQT4xCaWoQpC9px/5psoC66gR+EQ4W9Ix4eaWvgHbBMBNaBAyZYydYIow2gbTNKp/IWFgMQPuJzNnnpNQP+S5CGnXvn3wVL2xepD0yrFbIF7zdkBqEAz8yXT80zpgm3JK/cIR2sCOsSBPSaQcII9AB2kekEzxj2FXOZjgmplmpQ37iXpDbEZRhLB+QLocjR47ar//6v5dG+ZLdffdd9q/+1b+SO+auau4et7QVyjsKDQh+XNM0JdZVjAPwDk0F/+Vy26J3y+EiBhG+txo0hiWvmhFiTbhE1jxiwf/TRRQGDMMbWrRnOAR38kszbJZF7DChwcX4uKfRAnbHxgzfiqARwCDi6hTyyDP3C5WDfSg7rKYkyR86eFAS11FJlNOuLaByMsbf29ujMJGMg4RG+F5suqeYQllhQplyy2Q1BGVkaEQayYgI0AXXTEplSdtyNya7J5543CYmxqycNDji2bxpk2/eueOOfbZh/SaFuQDijXERf4g7vLuuoFwSE4JXG+IQvYLKtTZip44ftAMvP2PDZ074t6LX9PXaQN8q6+1qE5NQG5qvyo+EDRmWyzLc5kOcCmxuPudM2TdaqAPmCiWbmq6rfKbs/PC0jYkxzFmHrd+223bsusdWr9+ugk8ymQhBYY0sgQDsEvsUg2CeB4YNYp3TDqKgQNsAoTwD0BTZQMaRJCdPnnTGwLlEaBqsEEPSjO4jc+A5TeD5HxczQPwZSuNH34ru6JH4De4X/Id+nqQ5CS8C+xhH+p52zTNECkQaglb67/7dv3NNlPQzx8LQ2e0MygUT0awzXSH8DDv+9m///3yl4C/8wi/4vqH+/gH5CXQRvw21HzTIxMK14RhOBO6W1hVXjqXJu9AQadDyuGiICcLjAcWIU6DCGfdaIGwhQk8AacBePc5XbujZnZGA5LXfujTCNeXX31JYFBrvQkPF8M6dOMLNQrFejKbTFYJYKSGfC0jbhZxTrpIMZ6siCKfsmWefs4qkgq1bt0kdf6fPHVCZ2PHNZZguHbGuikZCFQ3wevFOqbfUo3+lS/ZoF0URv67Obtu2ZY0YQ4cflvfC8y/aE48/bo99+zH72tcfccJx3/332Uc+8lH7KUl53/f+77Md23dYV1e3QpxzrQ6ERhXyFUuc2yVZvK6gXQCi4FA+CG6+WLaevg3WKY1oZmpWktcppXHeCqwsakETUCeSU0qL700zjDQvpjCfRwMoK78FSdOSfOfyVq3nbXh0xs4PTdvZ81N2/MSQGEaX7dh9t937ru+zzt4NyTxGktGYWdqxp0oGNSHep6HHpfUPYBC0j1hvUZjAjmEFNId42idn97CpDGZBWAw/ROmRITI0B+8vxKWfEwHClh31XxdzjMQ/XiM8ftn5CjDZ8ya4C8btljGAeADPSzVi7hkyY2/MH/zBH9jw8LD9D//D/+BMAqYY+8bthFhegLwHAW+BRlD/HAW+fv06vz9+7Kg99fTTLhzu2bM78Uc90f8L8h8YRkF9IQ4ZBRPC976qe+JIxxM0zXB/OVysQSSPePTDzwRvhEIIjPcwgSRj/si9tAZW2xAxifIpQrqmDG7cb1R/QxgLRv8XJyPpjMqwwlvIREjHYpeLcfnsvvVI54vGgFnakXARpbSnnnvBnhPhZjMZO49hEBD6eg11tEXEIi8JA+kTzUBERb49BhEngvAnxRnsQtzIiYpRPzGUubDxiFVPnBf09a9/TczilP2dX/llu3PvHisVRCiKLEcN4eFWtdDMR7ikG5ZH6pdUlq4fFLbHKROao/KCwJ3jRc1a6hWbk6YwK0J0/sRxO/T6KzZ46rjKa0qMo2T9fR0yndbd0yqiWrbWEtoCjLbuR2BMyUxOTtnwyLgdO3HWJ6fXrtksxrDfNm7cYatYytrRI+lbTEdRqvo8o06MgTOIBKQzPvl9gK8U05VuRDli6FOUIUQARoGGgF0s51i+sc2MjY35sBMHvLE0lr0mLCf+0R/9UdcmAD6JifpCc/ChJNUfw0nN+tOPOJ2hxH7t/68dMUwQ80W6owHsc2ClEnsckIT5rjTLeMnz0n5wOyCWEyDvDA1RDhiQLsd6o2aPfOMRP3kAQcEPsXzPe1VfSdtzxDpYWo7UNG0zaUeJlgj8jeLIS4i6UvkvwyDCFX9UIkmJqgvPNFYmUHkvz8GhxyGJpVK10fExnxQdHRm16alJH+9qiMDxHVmCLpZK6gxlHwdf1bcqOYOn11eOhIBEBWA49ERvwKEjBYSCWZTgJYguVxJiEXPFREIQ78kf0vuxk6fthRdestGxCZ8AZswfSRFeSRFQJnR8USuVARYKtFk2ATSDWEqxnDyepH2I7fvQEr7Onj1vjz/xPUneh+wHf/DDdse+Pdbemqyu0c/rPxmWwD3hNEPXPeluEkqwOCnXB6nKpo17uTW1TxWMCiceb1GbmrChc+fswtnTNjZ0Tp1vQoxCbVDXam1ahFHMhPJTmPjJ58rKX1EMR21S7a9c6rKOntXWt2aDDazdZJ1dfT4p3hAznnfNGUYZinyhTVI2SRmk0pqGp5lfUmYgpD9IkJhIrJvlmjw7MU+IB8eVsNIJovvaa6+5NoG7Dz78sH9xbd/eve4O+MGJDKkl9R6JMYa0ONOXPRv2RsdGvb/yDYap6Skf4iAdni65Z8UbDAyhhc18SLPcxzQCz2NiYpuGoaE5sHyT01l/9md/1pmDpyHJJ+Z2QSwfEPNNGcdy8P6WlB3g/tzQWfvd3/ldO692vXnzFnvf+9/nLW58YtyHjamrUE85p8vQVzRO6okNeKv7VkvTbPPwaKCq1ZAOPUkUvGL5X3IVk/sjM0niCTQ25vgBDCJpSEqpzMzY+OiYH+PMWfiDp0/buTNnbPjCBUlmQzamxjc6OmzjYyO+ZHNyctxmlLlp+cMgzTLZTZyE7VoDEmzy40VSrP4/jWAfwNuLXdwcxIYQEZ+XdqrYIEZHx+27jz/lEsW27dtt9669LsnPzDDxJ2LGrKuCmJll0pVnJqoJM8lxcqHjO5J6cyNbHxJXfEWkSdkwTMVy1+6ebmdCp06fFBGtWN+qPg/bG44MaeQ2FnQM0xt2jAu489Tz9YKCpDmHYctAVMLeDcqSSEU853Ek/ajUZp2r1tia9Rutf9WAtXf1qAyLNisBZUrlNjFTs8mZuk1VJfzMiTkUeqzY2mudvXwCcqftvfMB27HvXutbt9PK7dIa2CinsqurnD37qoKQBkoQQH1VCr7nIUFSTsFBeKBYuPOOrPpOtwEQyy32Md5zj4lCGQSeCWnmIR588EEntBx+CPG9oD4GYWfVG34gEHy9DC2B72B4mCIgsU/VqjV3PzQ8pHo/5Tu5Tw+e9v6LYZczw0FoLdEwec5wEfMJ0XgbUNrRUrhiSDsjD/j5L//lv/gk+6c+9Snf64DAg5+YRxDzfjsgXb/xmXvqpvlO95GZ02YQChGiR0ZHvF5gANTNWTGMc+fP2fDQsN6JvorJj+mKENGsJzH/6Zlp79fMlRFXCDthQtRZaKiXxGU1CF5F7ySeV3yYhXeMfdVEzMaV8GNHj0oKPeIbt2icGzdssM0bN1kXxwoUQ2LKJUmtrDWfrli1XrMJNTg+EHKSj8RMTVuPON7ePfts566d1ts3oJgUm6tF3iuTrra4YwHsMaQzmpWAJcXafI4dgmcMFcYQx8FDh+2r3/hLu+fe+1xKYCxdDlxj4POf3KPJ0ekZyVMdyz7Ulw/JK0zaHRUOOUvH799XBnLs30vWldVj+UKLCEneJccvfvHz1t/XZw+9+0FbMyDJ2RlQciaOi+4QKcZ2CCsJjygUD22jxYWGi+vneoDhy2qF85FE9GTYHOSNXD9F7deQzpAyWi1+5ueQhGfClclkEUsvF2co6ijWKn/KU7JKJyyRZUGFylblTxnniwrLg6b9owUTN0N25BXJXn4VlmOhyJMi8gLyh/gq3Q4wcYiJdkD5LbX3Ib7EHmAf64VyR4v49Gc+bX/42c/6blyGc37mb/yM3ZOc7+QpSOJEG6Dv4YfVbFwhKByBwhfOMB3tHU0BgbgpjGqFVV8NbyenT51Wnz3p7WdgzYDvg2H4iDmTCAgUk9JoEDCFf/JP/ol/28N3mHv9hbkWtJKYr9sB1Cd1QRlwpRwAZRBNfAZj46N26Mhhe/b555wpIMix94j6Yl9Th8qcFWP0y4Laz6z6CAJmPMYF+sqKuA75Q+hkv9K6NeusJK2Z9ky75Hc5LLOKKTQq7+vpV06s5cFftNiENIIDBw/ayePHlPGaT2R2d3VYjyTSbmWgXYyi1ddwpxq4/kjY9GxF6tGMq0fT0h4mxsbFHYddSim1lm3Llm22e+8+FQiToz7wLH8xI1zDPf9JVUwlzzeGRF07lhSrP8eKj+9io2Clwksvv2rT1brtv+tu271nu8qihoNQdsohG9TIXblccOnfqwMJGiQXgiW8EFewc2Cvi1vpHVIJ9Vwq5VQ/Oa+L737vuzalBslqqQcffIfqr2w1OfJJSk9vCDMkPQQeG1fMGxLq9Ucg6o25mk87QLRD5iR1KX41PR8G86Eu5clfyXhK/J6CYoc0Vywg5ulrCmFRkRhCmOMhyJyYKD69HbawazUZdk3+m0l6vhSDUDgx/cFtAM+YyFAhFBieMbzjOdZl7D/RH4ChRLz8yiu+4umZZ5/xjZQsX92+Y7uvfOEoi66OQLzPXjhnr772qp06ecqZAMNEGIg7GgnCXWu51QpJnw2cUXGKmNNPkUorIj5IpmMjYy7VzkgTQbiDcO3be4cEv3H70pe/Yv/n//f/tLvvucuHle65515vRxBI8gG8vaTubwek6zUiNhms6E+8YzieM7oOHj5kwyPD1iG62t+/2np7pPFK0GZ3NQsUqKc8wo23G4UlwY+9TFMzU1adhVHM2CSa4oUhmxif9Pa4acMm27N7j60bWOvxqnY93kuhOcQUE5q0P1Lr/7i4UeCRAIwPXbBjRw75DPuMEtPXu8p27WLD1m5bK0mhq7PDE4zzsDKCiTGpyg0+6hI6BYyjjzGytVLvJYnAVRmmGpW6zLATDaqtrSTNo6TIyX1MWABPQacRkgKPaV2JiI0i3Ui8Mej+tddfl1R22u7cf6+tW79BBVf08qL0/RhrEQP8EQTDKq416B/FQhhJkQaoU/uP8OXWY00IJ0bReVGy5LHAEIQe0FDaWou+BJbllZs3b1IjbA/MgZ/C8Xv5xy9heHgKOuaD5/Dv+oNgw3AS4XviPU7deAsIE+oQUNnEsuCFEFLEQ7SgLUW/ukL98cc7eDA3hJcYnoNvEerwKAPThkBzdQ8yKWCVvvpNeAjppgxDG4jEPyLex3e4A06whWgfwTMb7e6/7z4JVXtsbGxE7ek1e/WVl30TYQ3GKi1xYmrSXj/4uh07ccznu9asW+Mr1Hbu2uEfa0I69UUmypYnQaYuTQ1iRTnQHssS3lYPrLaNmzZa7yoJb+rXw2ozPh4+M+1a5ze++U37/Of+1DXKH/v4x+1DH3zY0xjKLzC/5fJwKyJpUU1cTS6aedUltC9McpGZqUxJsztlL7/6ig8dlsW0d+zcbrvEgNeuW+/zhxwlz7wQwjbtw7VK5puE0LTnJaT3qI7X2roNa6293K5wZySEn/ehReqg3NbqwmY+FxcwhNyE5Pk/R1ODiJn1YW3BE6x770buRA0V9bs6Y4987at2ZvC0Dazut/sfeMBW9fdJqkU6CEGH5rBwH7qXX+QGR6j1ClEZ88loNRyWJiKhsOP36PHjdkymf/Vq+4Ef/KiV2trlVR5CUglEz4wN12QlQidV1a1llnTVm4akWBcBOyqUzoGhYqm0p56U5HdhxH7woz9s3at6rYaGsJBVQeWXWHhn81aQQM/xKTgJTwsu8BvCwYRlzKIDrFbSW+oWJtEi6fiZp5+2gwdet/e+9yHbunWLVNO2ECZ+qTxCc4twj+1CPEkE1x0xroUyAReVQyolaYR0J1wAkEa/DW0ogrYekbxuIryinXLnLVGI/wnvEq0uCfTidC9YLH1+I0BQIh2Eg6bF0NGj3/qW/V+/+zs2KoaxfuN623/nftu6ZaufFHrPvff4fAbDRCTf+6RAMvwuPDoIM6YPd7TbtB1X5i3i5PmXv/RlmxyfsP/tf/939r73v1/Eqc3bmC+3vEQ2Y/y3GpZm50q5CKvZQl3hG001KVn9nNz7AZicisxIyv47VGfbt4rJo7UijCgM+Ql3If4Yp4ejfxQlzJmTjX0JrJhQa6ksTbtuw2oLp46f9J3sPH/kwx+xDWI61CG0mHoImulCe754kloRkJEkbI+Qf0wcD505ZY8/9m2bkhq5ThLI7t27RMT7XPr3hMZhKDehU5LxaDwHftEzRhGExhGeGU8LRwuwE7Mh9XVGKtaIT6a2dXS5Pw/ciwi/3FJ0IUMer7+/+SBfseFTAfE5bRiaY4JwZHjUV9FslUTHJBRlLxfuJiL6Cfcp4wUa4H6S6wKiP67xWf9lkCRRS5HAS5ImmOSakDTIqofwLeX2JI7gL/hN56VpLRNvrjdimDHOYJY+Y3WRCR6FlCVtJblv+kucRBPtuDaf3S78wl3UHpovLzbJTTqdbnuZ52s1AeEeLQ+JsLOnU5roerv/3nt9GJfJzR3SFO66+27bu2+PdXZ1qe8xRBcIVDQkF5671E6Bu3GpX7c+GY61nsutJddGoRnMl83OTtuqVX0+DzLQu1pKWSA8dF0PE/XXgyTggPT9rYyryQW5Z54AmsDoAM+S422qOmWPP/m4E2+k+z17d0v6X+/3wZ9cUg2XikXWhBk0CMii2icEXPC4pN21KiyGpagM2sXoyLAvge5b1Z/Q+timgj9wEYPwStQ/iBQaZ2gTItYiHIdef9UOymzasM6PfVi3YYMLSQwd4cmD9rAJBX8eWrAPVgE0EhJDqoKTIFmLezH0xDgoKi8bs44eO+aqbTcTMq1MKgZmQOgKwImb34cgk/hXHmLhL1QCDaVmhw8f8c1vfX2rpb6vVUUWvfwd15SXdOYv5THGH4odDYaKYRiQxsr48uzMrDS5WWfKfdJmrh7Eeal43yxi2EvNFeDO9M/LZTmTYLlXmNStSm3RL/3mpsLrEwIcNEH1JNVn0bolUG3avMnnBOhnDz70bt8Rz4qYmgQT3Af/V2MSMYROzLNAf43yL8SI+Ys+CYtt0hhYYslRLjAq9FSi8jLTFbExDFcmAQnp+1sZV8pFzGc9mYuB3iHcTlWmfRXhSy9KcygV/bsh27Zus2K5ZH5UCgWH18uZNEK1BIYueD8XWBSAQQhnUts/Aax3nNtWFs2FtuI1tO+AZRkEr6UwNLlKozprzzz9hA8rscNvD5rDwOrgkCGidAqXueXavFd4cfPbPCouY+m6z6tgPFKgRDBDny8VfFns0NCw1KyGrd+wkRCCgxiiX8I9/xXUioTne0ni4OJ8FwANbOOmLdbR1a0iYEwwcdB07jlLzKWQfn85d2nAvHPh3CJ5YbgP6Qatpqe7S1pimMi6GDGutAHxmuGtho9Fq48wx8dY/6gEuq898lWbmpm2/Xfttwff9aALXaxwcenyGjoK7ZHwQZzvwcBkuNJ+OaKlW+0XAoQHJlcZruhfldAJAbdp5hDDjM+3Oq6Ui9itfZUYqwkRzvQ7cPiAvfzKy14/27fvsM2bN3sdORO/xqKhLDGUrTNxhUH9YFyIkF1bIoBPiLYy7zsxPm4Da9b6oZeBJixEGsXxJnjlqqoM10at5kulOEmUeYZ9+/b6nAPv+HCNN5LgNSCWQgKPLLHDnWcA1QRuJeYQM+GagbhZvVrxvRVMmK1ds87uu+duq8nu6KFDNjp8QXFW5ZbQQrwxM24Xblcc0h0Cbs41YnR0VB173np6e9S5w2T0YsSMXY/MSRZheCCJw5fHqbFSkrUa3yqQptbdbZOTE75QYHmk07PUZHjrgXyp+hThZriAtlZtVO3C0Hnfk8Q3jpl3wAntDkLxRhCJCyZKpoD2jETsc4kCS9xZ0YR0inY8MT3hfkhX1DiSDnzNjOpWR+x7PiguekfZjc+M+3JUFods2bLFNm7c4CuUwAKVuDrEsuRKmXu9EF/CbBD+3E6MiaWy/nEqCeIHDxySUHjKZisz6sWL66NZ01i7oQ5lojMmnKhsnlev7nfDpLAfw6FI3V3iPvoB4Vm/VFgR3piYr0Aa8ZlSFYbU3nAyrDwwpqnwWdK1QQXG+nyYxJGDB333IMmmLLw85F5Nl5vwvMJAZUUDYicD5JWlvYD157gh+01wH801Ie1xcQBEHUb4mJBiiC6UJSuZmANCsgjLGSuJjwy3AhDYvC7VN86dO2dHjx9V/ynbQP+AD/kg3EXiHtvi1QL3+IuI7Te0V4SOwDwgeOx9Ys8Dy2ZZFXfi+Am3J2UR0Q+41rTc6oBa8YNJUGaUDwIZjJwd6gz1eHlR5tdYNLFcMdQXwgDlS3gY7Hnmx/t1a9dJCF/j2gwKwIWhCwplcaQLtZ6AxC8QlHkbGjlvhw8dtM2b+PbADuP46PkqxygrEaL+TQaQeOM+bS6C/Cm1cATjIy3sdEV5qFdnbV4MAubDXAPctiZCNV9v2B5JJAOrB/zDNWNSiTxkwnGOvEBwVyLSlQaomNjZSDdcHTDPEiaVcHfZErw80l4XeQ/x0x9jnwzpogyDHQ2KIQLmRpA0mgheM6xIhA4f6ojeO2fHjh+zI5Led+zYbgMDq9XO1FfzYVj3WvsKfhgqigbEMOI7rs12rnuYA9Ip7enVV1/zDXIAqTmmAYJ1+yEIitQSXZAd7ZzaiqDGhkMEtEpl1oee46bYawV1QNlSL/RlrtCYuEmRuSLoD3GwSIblzjt3S+M7dcJODZ5KQlnARQxC5DbMhAvV2RkbHR624eELzuEGxOF8DJKPu8snUklomd5ErwFyrYJyr8oQTCaMnYqziWC1qAGRMI62rUntYd5j3doBMYdwXMd8A+lWnohUJi2drGTQOKgcroCOgqFMw2T7jQdxx/jRGuLpvT6BpYaqlHiasMtw64A65WTfsfFxP+aCKt66bZv1SeP3Uw8Q7FSnkchfLfCTZgix7SwH3s1KqGOhw5Ytm6WNtvlQF8dA1NlPkbgjzNuxfZF/KCWMkqWrIyOjvkSYoV52nDN5HHZG533BCIsJrhWxjiJtAYSXFkrlwGk8mx+7urt9J7yvalI9TVem3F3ERQwC1ceJsxoV3wmYnZn2jW/t7Uq4GEOIKFTufBKpksNTMMklcbIsXFKmoamQ0BBwnHNNQiGpUBpKLO+ZzEHPyquhMQHGlvHx8VEbEdMKrY3iDgXij7cAYgUCpPdyueRpr9eCChhwFYW4LNL+EuMqHvcLoNa8+CVZwiBwV1DdMvQUJI0geWS4tYDWRyevqg4ZqmhTv4Hxh/4R+uq1Emfc+ri1rlG4ie03Ih0mp4YiIbPbt7u7x6XWs+fP+pEe/iYJ57ZsXxSbDBc+33v+wjlnCp2dXVYSHQAIipSZ75mgQ14DYt1QvjAC6o0r4WF4RptwDUPtgtBpHyx77hSNR3tZqkWEVpOC0279kDo4EKpSnbXt27Z6RpgHQKpvMCyiDDBHwPAQBAjFidtoFjehANqQGzwpIzCh+TmWyIpISXpFK3Fpp6541JxY8smeCKkqTkg3bdqshjbp6fLcJbE0GyyBrxCkOw2I92l7Jubb2zv8Pu5wpFya4DYaBzeXKmHCvJQRms7DjA1gTwPw5OgfQ0sscW1rbfP6znALIGlPVC8dn53N9AcOYfS5JIYr1M6KpTA5/WaGdhBoliK2ZwyrqJgop+1AmHp6en2Xth8AOHyhSfCCxkwbDv5vR7A4hbkiDl/s61sl2homkP3cNQGCzjDTtSIyCEAdYCJjp6wRAJ1pKGyYAwwdwzlc4OjRI36NCCEtQqgwDnUb4pu/Y+M+vNShyi62lv1clhYaCobGdq0VjHs1JK4tSDcqCDCH1iBpFs5Wam0nd1aV9lLnIzWKp11xr1272lVYCjdgYSjkVmhodE4qJ4JGwKQwSZ+aDAwC5nx5XOn9cqBsZOSVYQgOuwNIcfHoEzQJDvuqVGasvUMMQuWd4daAyHO4igAfO3oMKmFbt2zxtkX9QgBcmtS1KUxdJXBPOwkEJhAd2mm6v/EOw2dNIWq8q0iYZDUOtIMNr/VqvdnWYgpiWLcXQu45LwmtijJiRRGbUyln+mGcl7xWUJ6Y9BwEzCHMN4QDIZmD4Iodw1i4xR3HtcA0YOZpLMMgAmhHfLyeA5/4/GSbq0CyVALIomfzjVauvKFxEEf8ch3zDmFLfuCAvCeuuFqq1NbqSzCRiibGmKgGi5O/0pta5OQRMAikB9LNSZlsfw9lwr8FhhK8oNUxJBTmfZJiu2YsrFxSp1YYYWIc3jznp3BOTk364W3tbWLSGW4pIMGza5q5vNWrB7zj07YiIUaTAOk2eDW4nPv4zq8y9FcWsjDByk58CBJzIjOiI9EdisTtxxgCYknCNBlmgjnAyL1cVE+qreDgDWAhjEBrMBGUN+/dLnGHHQaG0S1Gjj10KI1Lkxl5nJ6eEkGqSgrothyBIeVDUCAwibNrgeJ3ghSJEhqDUhoSLmLpzIIMcqif7CCg2M3pnuGmuATTl4Z6Y0dyCR2AG8JZKSAtMT2xcqKJnYPKQgXH2dlzZ/0LYGRL9eV2OIMh8IzBH1+X0538Eg7hh3K4MkKckUHAbNxKXj2duqfB0kB6e1ctHN8cvGVYqYj1J6BBcGgegDDzjORIHSIdNt0l7e9qgfvgZ3E7jojPLF8nPoQNTkSIp45y6itH+kfE8JYSsdsJMAgOU4RBMF+ERA8doxwh2F6midurRdovYcXwoKPYAx9iVNnHIaZY/h2dHT5xPTYx7s8Rl60dxsX4/q+fqKpAoSnsglas/uzmTeFyRZBkTnFXxRTYlNfd1+9DJOlNXCEZbzYdNxbkY7k0Yr927TplgI/Un1NnKjn/ZbdrqcR3h8Pk0swMK1Aaakjhq1HUsX8v4g2ARsM4ZK1WUaNhcxWdm28gF/0cJs6CWbt2QJpNX+Ijw60CkQRvO7Q1Oj8aBW2MxR5xPPtG9xVfpq4+ywkICDEMMbGqCQIYEYnX7Qz6YFVl4kKw6sh3wauOIoGnnvjdMCgO5pBhGOwtQ/jmnCYE8DQuySA4BgMJVTKDpHkSDWNIGpgywQqmkInE/TLm8oA5RLM80DRQi5FMmCCj0eM67NpciIECdVw50rcczbQJ6c5JB6ExcDYOywH5wt7w8FCzgjiHKk5YkTG+HhclAjpeKtirAlGHSUZUSqSKnMKveQMh3NHRKdcgCHf16j4xjGyI6dYAkmZoDNQjfYMnNO/m8K1+cU39jSbMUSvwk0QVL30WpOO9fTWHi2lBLIuF4b+cz9Xw/gZXlcdJvfg8RF7ahJ5dw0jh4lrydIvwS10IqglfgKLBhWYY5gR0k1/iVS9RUaJJlcUVcCnHQWXFeDrUwJnI5mMo3ui8gOO4mhq/M7OVC9IZmUW8p2GggiOtMyl85Ohh33MC45idbUjq4tRHGEloMDCM4G8hrADuqY+lJu1mobz8QMTWgq9a4kNEDGMdPnzI5yBYzdDd3SV3iReQDibDigV9lk/K0lPp+MxF0G6QTiPSQsqNAP2VuFl9SNtlwhVJlW9FRKQZxI1Oz4qF+hT9nLKir9Ev6/WwnBjG7uXiH7u6QVDw3kYUVzMdoqGF3OKjWEItLQIVpiYmT3yUAs9Is0pxoBcknLkD/87lG6EckXBdhV/FNSdVDAYBJiXhco86FBJDBwi3/uj/Vi68sy7h0ICjmdmswnb34eER6+hgvqVNqjr5DpNIgSGEMiMMzk66FuAfrYEVTHTaSqVufHK0LEbBEScHDr7uG3PYfRulvgy3FlhFhMCBMOebWJOOEZcyAtrSjQQCJMSGYSbaKavzSBPfJFiK25Y5CGWVB2VEWS2MFEC0Q/mltYobg3n190BD6O8MTRIvc1dpXJSCUGdImjkrlctKaN6mZtjVxwobqa0i0FQ8cxP+7L4uRtI2myYNdkwsZ78cIGysboK7shIC7lqAcKoTJC6SNPvtigGNP5o04nMg+AF9fb3+gR4q6tyFc3b8+Gmr1madoJdEwHEaTJAIfYI5DR7TZhngjyV0NIK4e5phJM7vP3r0mM/rkA6+JhfikSeSuILKNMMy8PYQiX84dpu6ZVwZYo0dQ8Q+nyj7BWHjBiHRDIgCDZWl0zCutNDhIwPewG4vkOeYb8qD/SIMKVers14nQZIPexVgEDe0ngTSEuPgu/jQhbgvK+ISDEKeRPw7OrpcYh8ZHfXKRk3MJR+cQCJhw5uiuBRNCvSK+BPjz24SbeQKIPEUFG6r1YpNTk35RAprhkOg4cJ78omJcawEpBtExFLVmisdiInhXTt32NTEuD397NN27txZKWpSz/kmcrJvIbaXqBZejMRBEzwHO+JhOCn4TRqfOurZ04N28NAhnwvZtnWr9XR3ekR1tMQMtwQa80ErRWBjVQwCHHuFYBx8QIgzz1hZFNwsbSPXF4QfCR3ED8mUD9WU/SjpAB+GUvvC7Y1Oz0oCfTAO98HIObOKeT+YOeUA0+BK/YVyuZEaRBiap83AGMbGxr3O2NyYxkUpwEME33xAi+A4WrbvW15SQINVEQVfhqqalquE0Pn/KyEQ+wWkG8fShsKzjOJpYSWTJCC+U9ApDsephyFGMSquckZKVjJJo7PSQCDQ3EcTgcr57ne/Ux28w15//XU7JKJ99uwFm5lmazxuaVjMx6QI/FUjdNr29qIz/NZWaYbiL089+7w9+8IL0s6q9q4H3+EfuocvMEnG6qYMtwbQEPyqOl63dq016g0bHBz0tubfmVadRgke4vNWgPhYjs4H8zlos6unK3kjXDSHdnuALMd8s6cLoYzd1GyYo7wCfQhzhIFe3FiKFuIKTOnc+XO+D2ut2k8ayzCIhYpbO7DGujt77MI5VtfMQuWcUDE/gQlEWu5TVD+Q7UVWCSidcHGzcJNc088BKi+XNriZEpdll19v3yplYr1H4OeVENHFXlcc0swA0BgiGArgqSSqzYdWvvXtv7RHH/1Le/bZZ2zwzBlfoghhx4/rXkkdqZt5OVwE7JoGN8E9SSi35v0j8y+99LK9/trrxjcg7n/gPluzZsCkrLh6m27IAYsCxCLDCkKsK5ZA81Etjrtgw1w8VgFtH+aBO29DqbZ3vUHYxElc4+Nj3p45/rt3Va8Lc0GCVsttDhHfTlhgjCz/ZQ8UkjtLgqkjhtFxA2MPdXQD+xrJIHiGtKp1Z+QIE3ysKI2LGERCgnTTYqv6Vltnd49/lWpyYtKqYhKhwcmNZzQY5hRCUDHWCN3z6CZ9L7Ms8J8OKzCBeqXiqhiGguWbFB6c/gVXKxM0htggqPQI7Hjm6h1W11qjbrNiFIcPH7ZjR47Y+NiYpIvzdvLkCVXeBZuSNMbE9ByLA8i3h7s090sLNsSPpIBUybnznCB57NhR11LQAHft2mF337HXikpPJSEolO1iYBFNhpUIaoYOzvHepdaSb3JlVRqbL71H084Scy0ItR5/8fkyUPgIPAwvQfzY/4BU2tXZ5Zow8Jbr7ff2QuixYUiew/FW96/2XecMnbNxLjDW4NLr6bIF/SaQVCI1ypHjbGKEtjInsnEjX+1cwALVSqA0BiIksPqgs6PNz0caHRWnE5NgRzMVjWkplBJGsRSBZYQCSedSfvQ/mksjuPDhLoU/MjqmxjahdJStra3Drzhhlp+lfLcC6BCRIcR7DFIDQzq12Yr92Z/+mQ8tPXDfffYPf/X/YR98//vtnLSmL/3FF+05aRPMTxRUJEURfEaA8jmVc3JQYjCUL8sbKZt5f88IA19z5UyrUyeO25f/4sv2/LPPWn/vKvvoD3y/3b3/TmPPHYwYCbRUDpPi6VrLsLKBVM4cA32Bse24EmV4eNiqFeaxSk4IGLJ4IwfAXQto09CGIfb0zE470eFU2VK+6O08rsy5Vkb1dgB9LM5BMO/Y0d7qzJwTs0eHx1zzU/d1iT7MD9w42sY5nbn5nE2KMdFO2Ijc3tZqq7pXJS4CLvomddzn4GOXojScuMqGKsaoeMcX3nLKHIwBqZQsLGQExiBC5WNnECzeBeKFtBrd+gYe/FBYXL3NqPDqDGHJSgWFrxbFkyuV7fnnX7TBs+ds67bttmXrNmtt61RwEEeRQwqd/QFKK88xJfF6s+D5TMxyzxE8o00cOXrU/sd/+j/6rvWf/smfsofe9U7r7u4UQ5CmoeKbEZdntzXfBeeMrKo6H+XHXFCZifsSw1Ch83HabkXvx6Tenzl92g4fOmzHjx2xEXXaogjEFkkJ+/butg3r1zuz4cPodF41SS84H/tUnIvTyn18TttnuNmA6FBVrpXK8Mzw0pkzZ9RXyq5xU7/UqTqMu6WnhOrFMmLh3jUG9S2JgjLqa/iXh6BHgMS/hyX3ssY936aeE1347ne/qzZatd07d9mmjZucIAZ3wb9HnWBpn7hVcaVcuHYO3VJZwiipA2gXmtaYNPv1a9f5GWgIxr5SUeVC2eAHRFrhozgQSiGWJ/bpe9As63T5eiUEktshOnrsyFF78YUXbf2atbZ9+27rk+CYRggpBQKDwIfA561n1SrbqUqema3ZycEzNjwybvPsuiuWnLAsNBjiDn7cyH94F99jB/eUrRowBjfNVyoEfyIzZFActCZJhPG5wTPnFNe87d6z1zo6e0Lawl/4p7A4K4rMkP8rVdRbDS/TpJJipUUwNgwHf+Lxx+35556zrZs328c+8hEcWrukr3vu2m/vesc7bO3AapueGLOTIvTHjhyykyeO2snjR+30yWN2+tRxZxyDp07aoJ4xp2Rwc+LYITty6HU7f3ZQjCRvd+7ba+944D7Fs9G1EI4uQePw1JFO7pI5iwXwnDYZVhKCFs3KQmqnxdZvWOfLpjlXa/D0oPchjsDg/B2EPAQOr8lmB1LfS/X54ID+CGuAECG16RI8RB96Dj0eF/iFMNWlqfCp0dMnT/n3W/bt3WtlaTDA/TXbvwIMAd2y8CJJmSuBevK6SsqA1Zh7du+xjnKb19OFcxesUWuEPSOqTPbJES5l7eUtpOkIJk1bItNYirQb36KAnajl1NSEnZPgPTY8ajt27HKBcSlaFMmiKnJCTeSKLMc5PaIeHLH9hCSCc2cGfbLp/vvutb5VPb701DUGxc1eBW8qTvh11WOLtJCgUYbEecGI+LCngvCLkpaReMgXBZMTQczLTh7d7eDpM/b8iy9Jg5HmsmGD7d13pxXKJTXEvA91XQQKIrldiWA4iQqKK0pixf3RH/2R/f7v/77yuMk+9amfsIcf/qC/9+KiLvipkHyiXsySjg9TGZKZGB9TRbOWuqpyafEybWNjkhofhyyyS3vVqj4bGOi3/v4+n+xuTlgmkaQbWro58JxhZSO0jzAR7fXomnTOzg+fdymeeQjmAO69917jg1+0wShhggY/+qxA76FteCdqMgNoAMeyJBOo6pseD09qHxAlf6c+vKq7xw4dPGQvvfiibwLbf8d+27f7Dqv7N1/c90LcsZkpoNulncW+FZexRqn/hRdesFdefcWH4/btvUPMfbPNVGfgKDKiG3yNT+7T5RS1iDicyJwPfRsQPmHj3usquWKPZunHwIsOP/7Y4zYq5jCweo09+OCDvkSauozhgIuGmFydIVCPQBb6h4eu7i4P/LikVqSQcrkYjoiVWwi8S6FyG/yFK35jlmLhOGeEcaBy8h5iJYLvb/WsBz8H6vy5c/baq6/Zy6++anv27bM777zLylK/whLPYAI8kYkJQawkUOCUW6wwwJWOSIWxdBcGwbdpf/mXf8UeeujdzkBgiqiflAtzA/hvVQOC8Hd1dfqmttX9/d75OR6DD49s27bFd2QjPTLZBFPFrF27Ru5XeaeNHdQbjt+F9IBYR14vK60gM1wSvgRaBN3H91VtXDkFoUcEm6O2z5w9I+sWn1OEOIQhqVRbFNH3IY9mvSM00B4Q9HhWuDzTd90X72Sh17Sp1nKr85NT0mAZzmTF453799vmTVt8+TZaKglr9gH5xXszvhjo2xyUmfe7ZjmrZFUm7IegDI8fP66ymxZtKFi3+ni+WBBzEPNN3EY/UcCLjABEpuOrw6ir8M8BI8EdDIj64kSKI0cYXTghQb/P9u+/y6/4hValGcRFGgTHLticImIOIiiP5ILqtTOnj9uTTz5plZkp27hhvd0h9bFDHMzPBvLUxKBiw+KKSey5kEkSQGNWpsJmOxogmc27djE6Mm4vSAp5+pln7cSpQfulX/47tv/u+xVMkHTkudnAuE8jKcObjlisMAgMlRMrk0qACSDd/c7v/I59/etf93XR/+v/+r9J6u/yyq7X8R/U9oV9D16AbziPsYHSYAgvpgfE9HLFPsSXYaWD+qrNSXukPpHu9aM3OrPQ9eXXXrKXX3nZ29TWbVttyxYR7bbQFmOd417yqPv1X2wL/p/2lvRu7DG0DV2IA6GFTW9D58/bs88956tx1q/bYA+84wHr7ej1tgZDIn2FRBB0ITQRFBX8bdPWvCxUD66lJSDvGDYUfuc73/HlyRy9ve+OvdbT12P5UsEaaIeUHKRUv0jAGTWg5FwY5yrj5ZvUnz8kRcsZdgwzchz84QOHXNPrKLfbvj377I59d3oaoFOkD1oVsUAhEiDNw0l8/wFwjsRS01kb6B+wD3/o+62rs9uOHj1uzz7/gh/DwUQyDISmGdtQaGo0AGWG2XkKBZMr2pyIX/g4jlTeas0qszPyI6IkLlqT5PzagQP2vSeesO8+/oRL1oyhApaEkXkMGWkWxApF5NxIbvGZNHMF7Hb9zd/8TWcAf+tv/WKzYnhdKuVlOO4bYp2UqQyTV5j4HMsjGvyG95RNuLI8lp3wxEtDoIFG5hAbbUxTmmlkuDVQUJ9Co1ZtqweGH0R5pjLtY9zvf8/7nSgfeP2Avfbaa6p0dUX1c+BtJhkSxuAXwl9Qv+XgNtx5iHqHmBhX2jDpzPAGnyE+cviwPf3sM76Wft269T6c1dHa4Tu8CZs25QwpiQ80aUzyfDuAvrdIOtczBoGR6/d93/f5CMCF8xfs+eeft/O6QtRdY1BRcb6WryDlHDbVJ2ExmsMzAidzTNQRYHGLL0wQ2lvbVF95H5p+4dnnfP8T/X2/tLwdO3Z43DAHkE4fuGiICcd+DQ/eaHwCS48kljHuLqlENJfzkhrYyDUmQgcX4wMhedRNJAWIVBIGDY52gHEGJLvAiPKWF7csFEo2PDRsLzz3vL348itWVYb3332Pf7TmO9/+tg+XMGzSoecmASMMT2tQ2RKrFYWYLjoF91QK96h57Hf4/Oc/79fv//4P24/92I/KnrkJ8gWhjsyWUgzhuKbmYWIg/m4tpO1BeF6In3s66VL7wEB4plyjfcTS5wwrEKoir1Ove/6HvgYR9w2WefXZctH3ISBxIqEOnhy0yelJJ/b0MdojYXC+GqC/YoLwoDara8kJkMJWvy4VyxIY63ZWff+Zp6Xlnzzhdvfsv8v27NztH5zyU0GT9gWhCukDSfsjPviD2mSYZH/7I/Ynr6/kPvRvZOewGZZVTJzszEeWTp8+5ZuDcVsulnzSn1MQYBbUDX2W03sZeaGe5lzozvlKSMrWGbPCnRwdtwMHDtoLYjpTExO2fq2Y+N33+vAzzIM6QUgknjh8FbH8HIQQ5xKAV7IPc4T7zp4+62xv80nT82pwbLKAA1XUAOGGcDpfpkVz9XCC0YMSIolFb6rVhjSDcT8k6sLIsJ06ecqOSCuZkoq6efMWe+gDH7RVamhPPPmkTUxOWlur1KE795MwhQpRW5B0U/nRfephhSAS4XhPJfzZn/2Z/cmf/Il94AMfsI997GM+hxDdhHIObtUO3J7lwtgFJwt5jM+JV7+m73kHY1DR6zl5kSCmK5qItH2GFY7QXQXVV6pdABiAD++ovfWvWu1SP8dfcLwDk5po8TAN9khEjZw6hzl4aLqq6QRCrn7Lh38mpM3znfqzZ8/ZyeMn7MK589ZWbred23fYXXfs99EF/HlYSgPhEF4EbZgXNC1cLNcu366gTJYCO2gkNIE6aO9o9/nCiupkaOiCBOchL7TqbMXrCjREY6Gv0GjmLpijpC5pC4QHLZ6e4vsu4z4JffLkSTt56rRNq+5hDvv27bPtm3dYSYJ5Qu4dUUhM18dFcxDsbQAkGCy8DvsY4hN1XleCzw4O2oljR+34iRM+ZMKEyxYRu81bNll3V5eHA2dsa2v1hjI2PqbM10X0pzzhR48edQbDahuW027ZutXvyx3dUrXO2Ne+/FX7/c982nbu2mX/67/930PkrtGETJC8mETyBTFcCVhSrA4KHgZ68OBB+7f/9t/at6Ud/e7v/q498MADTff+kSbdBwkhEHfAMBHvwoR1uibA8nmmPGIy0AIJM8IJAb1zCWI6ljaUDCsT1Fe6zi4FxDL6H2PQpySZormyQAKGsWr1quaiBoZD6bMYhpC4Mj4OU2HCm82yZwbP+MkKnZJo77vvPmn3W9XXu33XNm2Rb0F4+/HfYgSBJ5iI26WdXW1d8Q53Z8+fsxMnjtkxmcEz4Wwt5pDWrlvrwnPcFAl9Dadtmx+vzp41rkNiLtQbDAN/99xzj60ZWOOCAwyFDZS0iaV0IJ22ZZe5KnXOnVAt/aWenWDJH9+O9pQ4wWlYRY1nalJShZgD65/ZNo6kwScta5WqH/Lna69JhPyR2DY1LBgJBI9NXp3dXda3ekBmtS+1IgPEiz/GNf/7/+d/7+Nn/+gf/feeSYaa4LYxYzEHJGulNLZYrKQTE9V4pIBf+7Vfs5dfftl2795tf+/v/T0/k2WhGkLjQGXky28xj5Q/nQu7oJ1B7MP7mOclVen22C21j0j7I408x/i4j+8zrFx43aaqt1nVuqnPsQGSJeFxUjRIlzPqs5zHxYZL+tXUtPqs7DgWA4MQQ3uj/qOAR7tgKBiCxLAU/bS3u8cPnOtm6BeiwwIXwdskrIHmo/TQbmlKGO4RVkJbu73aWLofpvtlvKesY//juSIaypEpCNUQ+9FxNshW/fRXH6lRn+UbMjD53t5eGxgY8Pph6re11Oo0NtZVWO4uplJu87qpqh2waCBd/ul0RFw0xOSNTZ7wiONYu36fECOYSCR8xWLZCfyq1f22WkS+vb1TzABCyJBT3Ze41eW+pmsV7aRFkkl7m3V1d9vqgdW2bccO2yHNYfWa9cpcu6LI+wIowqZBdnR22eDgKTslFenkiVNSj+6wvv6+ZgMGXLlNZ/ZmI6RpYd6BTsY9k+6//du/7RLbz/3cz/mVd4uB2rnQefDPPcwhPlMd15rfmKZo0iDMyGziu6VuMtwCCDQH+U23YZzan1W/LJ0GLIZgCSynIver38ZlqhzxwAiCt9mkj+MPgtHZ0Wl9IkJrBtbatu3qs9u2+zJrNA5OM6CthE8Tq/04ZwignQKaEobn2KxC+6K9hefbFaE/h/7H1SeixWwZLeho67BVPexjGrDenl4r5sJ3pKkjzNe++jV7/rnnraO9w5kEbtDmWLa6cf1Gn4TeslEaHkN/SPhJfUBLxKLDwxLENgMu1iCUOOAaRHzFNVWL/rUqPTc5Da2LmKHsckvDtHlF4vWPPRESbhJOEq6HGBODv2if2Pk8g1r6kSNH7DOf+Yz9x//rd+03fuM37Pu///vdLQUEYoZWIkEjnRjS+Nxzz9mf/umf2ve+9z375Cc/ab/wC7/gbmI+SH/afQRSH2X9ZvNHuOBqw1mJ5ZlhMby9hG0Gqq9oF/61IFDoD2If21C6XQH6Kj02ebgYhC+Dv9AeFvsHsc3yPt1mZOUmWqVepXD7MAhnvElZRmCXLrfIlIPQSM2EXwRkHbCkmff/8B//Qx+y/vmf/3l76KGHbM3qtdaQ5piuhzR8xZoQ5oUILbhL06B0+i6ubR9HCp5CwnV1aTY8E55/OChZm+/Gf3qmEdEIOYrD3dAgpZ7KLSqo2/uzrjItGJc6EoPKI0OyfKJLoWK279hl993/Dpd4nnjiCV+q52kRYsZiI73RiPFgiJuOFyt+qYlpiwX+1a9+1X7rt37LPvzhD7uJSLslX9F9zONyzMHLfYkdWM4u4nJ+LvUuw8oHfZ2qW6hH7EJd8p1hfnGYaFFd6w9Ck2/h+y4saV3GqI+iydNvQz9N/C/5QXC4pkEUNGWPin/+Xq5S97cTyPfSvr20TnhuCt5JGYl6NuuI+grMAbTYiWMnbWR41O6+6x4xhzVuS71FdxhoqRtCinbQWP0iiDemJY2Q2hRiQt2vG+6j4RIygbnITQR0ejlzOch/MyMelowIZ4jAfOYdogqD+OIXv+h2USKKBJbrjUQk/NcC8kLaSDdrm1mv/P73v9+2b9/eDCuWabyPJj7Hilv6Dixnv9TuSiaNS9lnWJlQTV1UX806TPoO907AU25AfH9Z0ESXMyk040viXPTcNLgLJvhZ/Hw7IF0eyz2DSFubbryOFkYW0vSHiWjmkHCzfh3nKC1fmLz3n8L0SemkLVzKpHERg7ge8JGm5QzvLmMuB46T+PEf/3FjUoadxyzTAxRmlL5vNJYyIQrzUkM/uIv2rNL6vd/7PZ8AZFJ6165dbp+eDEw3igwZMmSI9CBNcyKgfwcPHfQ5IOYx07ufryduCIO43mBcjtn5vXv32vve9z6Xwjm/iJl9CvGtIrCRu0dQcXHMMMbNKqV6PRyIxjs2JnE8yTPPPOOrlX7qp37KJ5MAzCW6z5AhQ4blsBxdY+XSiy++6CuUmIi+UVjxDALiGzkoy7Z+6Id+yNatW+f7B1jLDSKBvtEMIsZxuXh4R3og+oz7Ml8CM+NQvXe9612+GgHmsTTN6XxmyPCmQJNazmS4pbCUHqSf2WQMg2Dp6p49exLb64+LGARJuFZzI0GhxEkbJHLOK2H/wKOPPuoFxIF3cYjprSCwxIGJw00xbTEN7HeAATB8BEgjcybsll46MY3BPYyE+wwZMmSIiDQCQF8ijQGRQbBwh5GVG0U/VrwGAbGNUjb3DDVxGNgP/MAP2NNPP+2MAiIrR2JWb81cRKy4mC4qDuYFuELwGROEMTz77LN299132zvf+U6fRwFLKzvdEDJkyJAhIk0X0vcIxixvDSdQ7PQRixtBQ24Ig0hrtddilgOZhujGCV3AKYT/7X/73/qH97/y1a/a9MxMWM2dEOy3AjArQPow8TkOMXHI1h/8wR/4VnfmHeI4YazE6C7NZDJkuGakO1A0NxLLxbfUZLhuiHQCRBoDONaIj4b19PQ4k0i/u55YJlQSczXmrQGFA3OAQ8IoeGY8/0d+5EfcjsnfF1960WZnZyx/gxWiNHGPhB07Kic+c0/FsRmOyWnGCH/yJ3/Sv/cAcB/dgsgYblQFZ8jw1mIpnbgak2E5xNMUoBFc44pJhpcQPBk5iXSFXdeBrCxXvpczl8cbZBBvLVi1xJBNeqy+tb3NPvqxj/rKICaBOS78RgMGFVcckY7IHCKDiISf4zT+43/8j77f4eMf/7inG8S0xzDwF89U4YiRDBneHkjTiiuZDJcG5YMAGU3A4cMH/fihvXv3SADtSWyXluvVmCtjxYutkfCmCXDM2sc//gnfQMcOZT6GErFs1tPlkjYJlnsVTRpxhypHgDDroVSFn9IGA4jLWk+dPu2T0jCJiMgg0ucscUmbDBlWFGiTaZPhLUNCLpq0IuL48WO+xH///jubS+bRMvwTsdcZtwSDIPNxEoZdgKEw5m3vnj1+uiu7CZ96+ik7lCx7pTh5v2ACoee6mOIvuPH75i9x7070nBhOmeVLWxxfEHf/LfgPm1c4a4lhrzvvuMOXtTLERHoxgPygLcRKRzXk4Cwm2EMo4X+GDBkygDBCsUCqjx494cPYd911l88/gECDFjOS64FlGASRXMncHDhRDX+WTwps9+5d9lM/9ZP23cces6997WtuBzgSO6HJgeZyv5T28pzY8TptAK84jdYPJ0y5BZw55TS+UVN6woux0RH7P/+P/8NXF/zK3/7l5qqlkO7EpMFBhk2r5RKYIcOtCBr11ZoMl0YoI+hYIoM6Xn/9NTt58pQYxD3SIAKD4KysQM6Xlu/lzJVxEYNoDplc8Xct0bwxQFiDxB3G+eGSUXuIEvjOHTvtEx//pHPUx594ws6ePS9tY97i91iXgnLGPxoJxxQDPgoe7wGnIVbrNbcPBxUu1hTAvBiHawUkQ3ENnj5ln//856Rl5O0dDzxgD7zzgea3qGEMMS/cB7Nwu1CIqVaQIcMtidigr8VkWA6BxgXakwZf8xsfn/QPNbGTejFtWlq2VzKXx/JUdIUhElcKIa5kis/t7e1OkDdu2GhnTg/aNx55xCbGxj3vnjmVW5DwE5MUZGQ085LindAn9mCO77sqHuz8gytshsMtP64Yfy/HyeTys88+Y5/97GftQx/6kC9r5dvdTSRRu8mQIUOGawD0JoLlrRzP097e1hxeAmk31xO3BIOIRBktAmIdxuQWuB8E/q9+6lO2ee16+6NPf8bG+Y5rhBecDDnFS3ItlIq6D6yDuQWGrHiFKReKVi6VrSA74mXwpyWfk2Zh/vEj/LQUi5ZXGIwNvvji8/bot75lZ8+dsw//4Iftve97X5MBZciQIcObQRxBYXkrC2AYmeB4jbg6EvD+RuDGhHoDEDWGWBCRaWB498GHP2h79+2z40eO2isvvmQzY5PNc/LZQAdvYF6ZoaQwpATZh1egnXiAZjVpJ8w3iAnk3U+Lu4+EPpdnuCuEI5duh+c//dzn7PkXX7Af+MgP2u69e4N94gcQfNPIOk49hBgW/zJkyJBhOXBAH5uDGVZi93RaSOY+/Xy9cEswiJhxpHIfDkrdY2Aavb2rbP/d+23dhnX27ce+5UM+8ghrdVLOQRj4xDREvPFHqDkKlp+vSvKX1oKjSMR1zxe5eOXJQOvQlTTVxGROnT1jjyq+6lzDfvqv/zXrW90vRwIjT0mQy8LjS0yIKWUyZMiQYTE4XuPAgQO+e5pPBtwIhrAUt4wGEQFhR6JPDzVFrWLvnfvs4z/5KfvSN79qX/7m190OAj0zV7fZ+brf47aYL1ipwNftFrLP5xlzpYLlyyVpHrJPPuOYL4RhLUVr1dq8VcRAGGYqKF6+TfHb//E/+Le0H374Ybtz/35rb+2wmjyjYVySOWTIkCHDVSLSKRgEHx1Dg0if4ApNvFFY0QwCRhAzn2YEEdgxac2HeOblbtOmLfbeD3zAuvr67NCJo/b8q6/YZGXWyvmilXMFK8JxReAnLoza8deP2Evffca+96VH7Zt//Bf2lU//qX3pP/2JPfKfv2Df+fzX7IW/fNyOv3jQJs6MmlXYA9Fi5ZKYi89VtIhRzNlTTz1tf/iHf+iHB/7oj/6oteXDRztIc0MaRRyacnCbNk0oTYueM2TIkEGkKlmQE8E+K05w5XgNGATvcHMjNYkVzSAiYiFRENEACLETYxVSQ1d2KG/evsM+8PCHbHa2ap/5zGdscnzSmMopVOdsZnTSzhw8ZkeefcVe++6z9sp3nrZXHn3cXnzku/bCV75tL37p2/bSVx+z1x590t+//thzduTpV2zw9aM2fnbUGtNVK6rEiornuWefs+8+9l2bFld/97sfsrv37reatBRfGsvPh46uBNxEkyFDhgwLgO5FA5ik5uuUDDEt/YJc2t31RIsCXbHy69KkwQyWMgiAZsG8gm4k2Vft0JEj9m/+3//GvvKFL9o3H/mG7dq90yYOnrGnHvuenT5yzGbGpqxdGkVXucO6W9utrVi2kp75KDj7HiqNuo1NT9r5sREfnsp1lK13w1q7+13327Z7pdqVzP7+3/tVe+65Z+3HP/VJ+/gnPm6bN2626dqMFaWtxPS5rkF6ycbSUl7EE/Sy+ZwxiwwZMizQv3q97kf4fOlLX7J//+//vf2Tf/JP/PPLvIe+REEZOrh0lOXNIv/PhOR+xSHNDCLSTCKqYMwROA325UE56+8bsAunz9rJ149Yr5jAyOun7ODTL9r46fNWrrbYQKnTBtq6bXW5y/p031tss55Cm3XlWq1V+kZpPmdly1t7oWzt+ZLl62ZTE1N25uw5O3b0mB0+cNge+dojtmZgtf3SL/2SbdywKamYueYENoYJcCyWJflpS9y5xbIuM2TIcJsCOgJ9Y2iJI3ygf3w0bdu2bf6eZ2gg9CfSneuJFa1BRKSTGMfcXGtIGEShKKld7+q611sr6+GZx5+1z3/6s3bm8HHrlsi/ffUG29S/xtaLefR19FhRykduTuEo6EIjSPtI8mySY4J5Lq8CLxWtqqex2Wk7PTlsR8fO2umJIRuZmbDJ6rS954Pvs7/5937J08UcCAwqHJglzs55S2gQcIzlSjhtnarT1G2GDBluY0DbIsH/9Kc/bd/85jf9+J5PfepTfg4T75s0MNkTcb0ZxC0xB5FGXL0U79ObReZEcefqYdhp0+q19s477rX8ZM36C9324N57bfeazbam1G3tdfmbNStWWqxY1T3PNd3XpDnMFax1rmit7mbOynLTU+iwbf0b7N5te21DV7+NSRN5YO9+e/e97zBTOOIhiljcG6bDJHYLzCFDhgwZrg+OHz9uZ86csTvuuMMPAI2INDAtRF9P3BIMIqpOlzKI4pRPQbdFHkW0Lxw/Y+eOnLK7tu2R2Wm9BYaR2q1NDCBfMStb0QrzecvPI+XLzImwY3SPXQHTkJFdq+7b5b6v3GU71262B3bvt/nJqg2fOGs2UxOTmLOWmgzhJJPT7J1YVnNIA6ch+b4/I0OGDBkiGD6KOH36tH8kiA1ykUHAFKJxOngDcMtpEMvB6ayoLGP+7E+7cPysHX/tmE2cHbY7xCB2bdphbTADaQgtkvQNQs7aJoap5KeRS4ykf5F5D3Febrjys7qcNubFKAq2uXeNvWPvXdI8zM4dOm4TxwZtflocJw4lRQOcqy+xDMFnyJAhw1WDw0j5uBhDTJw/B9JaQ1NYvs54WzCINOqVOXvl6Rds5ORZ27R6vfV39FpvqcPa8u02V2WOQcyhWLCqOEpF5VkVR6lgpH5U8i1WVYnUnFm0MGoUJHsKXw+FRou150o2oDA39621ltm6Pfe9p21sbNKsJI/pCvN/CWPwa4YMGTJcPRg+4mC+I0eOOHPo7+9f8v2HgBulPYC3D4OgjCTIz5wdt8EDR61lpmY71m+2tpaC1Weqbgoi/OyVYKUTE9F1FSxagxsFgBIQtYgwUsQ/v7GcLOYqdWkLNWtt5G2zmE93sd2OHThsk6fPK2JUPbmpK+RkIr0ZRLzG+2VwmVcZMmS4TcHmuBdeeKF5QB9MIyJqDRmDuBqojGqTszZx6rzVRiesfS7nS1lbUQMqNWupNqwgAs5OaGazfeyOZanyiIkUnMGn+BTBPaudco05y9fmraiwV3X0WHu5zaalPYycPmPV4VE5lEsYu9QODgh0o8doLoWl8WXIkCEDmJ6e9iWuHK/BBHXUHGAKcbFOWpu43nj7MAhhenzChk8MWle+ZF25kjUmZ3yCuUPPpZa8CLwKVgzDz9FToTKhDOHPyxS4irBzn9c7jDMF3HropjAK1uphFS2vsIq6lkutdv7ceTt79kxgJOLwfpZThgwZMrxJoEHwhcq2tjbbsWNHYvvW4W1FySbEIAZPnbQ2EfEOqWRz9ZrNS+oviGCXyiwFC58PheGiJ+TFIGAIzgjciDHMzfm9MxDJ/eEXmIR/k1raw/xMlU0X1l4sW1/PKt8CPzw0HEozF4anmLtoGjxHLpMCUxNNw3OwzpAhQwbH7OysaxAMMe3evduHmFjdVHc6loyEQNBuEN5WDGJqatIGzw5aoVy0to4Ozx3E2TfQiTmwamlOv5oYByueyDyMAMaw1ADf+CbTkJmDijN0JIZTryms+py1SXtY3bvKJscm7QIMAidzYkKKKzCWi39hsOlyJkOGDBkCOHuJJa6dnZ3+idHIINJLYMGNYhRvKwYxMztjF0ZHLFcuWamr3aworaGYs8p83aarVWspiUEU+I4Dk8hiDhgR5cAU5prDSmmCPdcyZw2pGQ2VVK1Rt4aYA0NT8415KxZL1t3Z5R/yGBtlDgIGwXHgbH8PlZYOy1WF9PNFJkOG64Xl2lfaXB7L+Uibi5G88Ya/8HhNxrFgcdGr2wysYGLvA0yBFUzpTcFxYjpOUt8oLeJtxSA4Yrteq4lwF9ww1OPHbudVkOWCzUpz4DC+clur8XUIDtUAFDUFwdwE1zjcBAKfZjI7PBcLResot/u3qufELPwk2TpGLhUcnzItqiJj2CH0UJkZMry1oM0uZ64dV9eC31jYF+N6hXNr48SJE3bq1Cn/ONDq1asTW9GmXPhGDYiaw41ayfS2YhB5Zaek/0wg+4S02hmfFqW5zbF8Nc+yVva9oRkEO5gIwC2MAR7tk9hux0R22DrnDEQ3GI785p0PJ4k5oFHwiVKHLvEcpuAL+2gyZHgrQIu/nOGia/pxiQHxns/u1lwzhhgFS/fufUD9q4HGHIc4GIdNm+g4CQyk7x3BgnPMYjj83M7tFY/bJd7izVLjl4t/NwqeruaKyPAcTUR4jvniutTIrRsc60/hRZw8ddJOnzrtu6f7VoX9D4DjfAJDSDzJhDhj/Em42PhzYtxFsIvpvhLeVgyCL8V1lFttrlKTqYZlrWRRjbgxV7diuewMYroya/PshxC19wlkR7K8VX4oFJ+8Vvv2ayMMPfHx0nmFU6tVVLhBQ+CQPjQGhptiaXLkRo6jw1lSK8sFZnEl00xMhgxvAk4GEqNGvMhEOxDdXIylvmv6h5LsdvoXfTXHw0WUsA3ESARKwpOhvct3CCt5Fz0nJrjnNhJM+hXhhXAQ8KJp+gPxPj4vwmVfXjeQ7oby4zSdB8GLYlG0IR+eJ79Xmeg5Guxlq/vEKAAYLhg8edoGT5+2bVu2ikEk5y8pbMrK/ck/fAITyo2IY7gLiWimCb8ypJd0Xw2gSm8bFEola2/vtGpdRFymkAwzQXjhugw/wXlLclepVn13IoBJ4K6ue+Yn6mIIFCpek6lsb/AtUjNaxDUa83LZQqOtW6VWtY6uTuvq7gp1EuspQ4YVDRrplRsqLugHJanVHBaABbQlEkGGOnIFvVC/wi6xFmWRr3wgLxC9hjjMHFwm3T+4srFUQhdg6AQrvhBZrc8qHhzLiwLmg2ArDRBmNt5C2CG45J8V7tinkR7+8dtkLhJCXmdekxVJSf7QlCJOSYOIB/QNrFmT2Mqn3GDS4RJvRLC/+B1BEw31l2co5CqQCvbWByuXVq1fa7PzNRufnbLZetXnHEqS8MstauHVuuUkBrFZrug1GRokWkVNj5hw1IZUajlvqOHPM9aXuKurQht61yiokKVaVBs1m5qdtu7eHuvpFYfHkZd7Ig2kKvuyuLq6ypDhYtDElpqrQarNeTtNm2ArJ2HxBsOszMn50Cv3/i4AYuPGXQczB4HyPhPuEb5a1G9kFShOur079ZI7Ua64MgfNu4X+KgRpWM5kF7SImL4VAOUt0ugwNMRDsAj5QVsI6Q3X4CYZq9CPjwwkfpKAYJJxH9WRI8fs5MlTtnfvXhsYGHA7wvEjvptlFdIQmMJC2VBu6fhD8Ai+4dm/VRMsL4uQkrcJOnu7bc2OzTbZ0rDzU+M2JQbBbma+FldSAyuIOeTZUS2BhQ8BsfGN8oJB+ColtUk3hRaryzBngRQ0L0Yxp0qrq5FXfFWT3ovxTNYqNjIxbp39PdY/0E8vcXDO30pqxxluMyxqexCBtFkC3KaNIzCAyCByHB2jqw9piDChHEDsaeMNln2rE9XFBfyYGhH2uVze6rqvibzIpzOBXDFvLUze4U8StBsft5UF/ljsQTz6lUplCXVl3anvKb6C+jCSephPTBIZs4O5WWiWF+mDqYUniHJgEOxVoNyCsBjG/XEBUQ9MMJcr+v4qJ/AUB1qXbiszVWkPZ21yasq2bN3q9nyrhnLikwYJf/DwOOLHj/lR+MQb4qI8iX/xkAbFTf05n1iwviTk/O2Dzr5uW7d9k41Wpm1K0n3nql6X8qf1PCc1rq1QsrZ80YoqnaKoOLunaaOIOBSjDzWxzpjKUCmi+DIc6E5o2DAOXafnq5ZrL1lNjOj0+UHrG1hl6zdv0Hscqn4JV2Hpr4n0fYYMNxa0Nrr20hYYTRq07jS8tSdGjd+DSvyIOJmIjlMlAe08L8JfLMjoPkqzrmnI4A3izgIOfghraOG1uaqYirR7hd/gXmHm1TdZIRjm7S4GzKLA4g8iuCKuxs31Q8LjmiCJ2OVF+APjgIFQKmKkokMAQs7QkueHssMkwz5oI6++9qp1d3fb/ffdb22tbW4Pk2CVJKswCyrzubrqIVSFg7hifAz95eU+lFcIN6bLra4SLeI2qShuUcQcqP1OnBmzz3/6j82Gp23/wBZb1VK0Dj4EVJ23kq9RklSjyvBhJZVUXVefqFYxoBSrSD0oJBXkFR8FzeveC1Y2ov4VMYYJNewTw2ft9PgF+8hPfcK2vvNOf4cf7xnNMb6QONqP2zRLO76X1cLtW9y0M9zyuFTvRUrRy6bErZa1uP0Jy/nFn1OQ4N9FVZdWEwrIO4Qo3U7O1mx8asZGJydtYnLKpqo1n9tr1GveBxjGKEr77iiVrLur03q7O627s8PaymIGCo8Q62gOioOPbOUhblhGqVu9D8k4SNuwiCQN6XSnO4zuF14l6fd8px1dP3gaQxQBeggEOcTNfSSvwW1w7x/4oVglfcIYplV2Y+PjNjY24ZL/8PCQPfbY9/wLchzt/ff/wd+zVb39Hk1nd4et6uuzTj/yW4FBazx8yswryuON6QjRh3Ijfk+TP+AuuL0c3l4MQnltTNbt8a9/z04896oVxSTu3bjD+nKt/mW5orgCq4vm1RDrauJzcehIBUvRUlRB2lE4KhZ2RPvyOhH7+RLaA8NLc84gDpw4apPzFVu/a5vd+5H326ptAzZfo0krLIWRkx8venW4pFmHZ08rd/7kyBhEhjeEy/TchTYViAYty1sk3b3pj5vkId3wnGgk7xjHlqTakmPBh/qLbGsi6CMTM3b63KidGR6xk+cu2NkLQzY1M+tDIqwSzEk1Z56vtVSwHhG1tav7bPP6dbZ5w1obEIHramtzCZf5QPpHdVZahJ6ZPEXK9VVQih+JOJAoUh96UtKzAlK3Mc8hRyH9IdfpzF0/BIK/wAjQChaGmpJUJG4A7nIqx7o0h3qtbpXZqp+1dOHCBRscHLSzZ8/70Rqjo6P2yiuv6Pms76B+17ve7R8Jam9vtd7eHtu0aZOtWbPGOjrarChmGzQVCb1od6qhqIUF4h/y3miE8kjvn+D9bccgaMyTF6btib/4hj375Uftvi27bEfvOuvPqzBVfozfwWhb1BgZTkKTYOcz43eUlVewgiJIdQ3XHObldq44b7P5ho3Xp+z8xJAYxDEb2LLBfugnfsw61g+YtasDSdOgkaJFNBSJHy+eqgC/87Ryt2CfMYgMbwiX6bkLbWrBkRNKunvTipvkId3wvM0m9u5enUD9olKbs8Fzw/bKwUP2+pETYg5jVmzvtNbObivrasWiFVvLuhStWq8Yx97DUnLzNZseH7XJsVGrzkxYv4jcji1bbe+unbZp7RrrKkojUf+rcpy+omxtLbigBpPweQ/dOyFzUkX/DATQkUo3ecZFSHm4w/VbzyCIb853QnNPebiVkc85GxoaslMnT9nxY2EjXKFQFMFfa+vWrfND+dAw8INbmEkMh9Vd58+fd2YCM9iwYZ1t37nTtmzdLCbcTQReXuR7Ie6SnmGy0Li525NBxAz4Vf9oPge/94o986VvWX1ozNa3qkH2b7DeYhvcwLk3O6GpMCfoFJZzWBWIiLoXmq5oF5zDVJPmUBFzmGqp2LmpYTt+YdBKkor23XuX3f+hD5iVFRaMpIB/tI85Xy7r0hGV4CELzZLGRiZ50bQWmm4zZLgSYoO/CCJYS9pWbFds8Fzwwk3yEAmFLiJ7IiC6KhCGfcCR0+ftyIkzdvrMOTs7Mm6T1Zrae9k6+wbEIHosX5ZGwNBRa6svL/cJUjGI+XrNGvVpm52UHzGJmckxy83V1WXyfqDm9o3rbd/2LbZr3YDP+cEkGGsvyzAxzkkITnRJhs+sriQGEYgu6QNpBsE7iDvP+XzR30+Mj9vJk6ft2LGjNj09o7ItWqlUtPa2duvu6bXV/f1WVpmUxBzaO9qdmNfrDZuWVsaSfLSLkdERGxkZsfHxCb0TE1a4Pb3dtnXLZmkWm62tnfkK0Sxf0h+GswD1GdMHyccwL3JbMQhXSvXAd6lnh6dt8KXD9uTXvmWN4Ulb19Vvm3pXS9AXRxWTZbc1R3/zoxGxIc49c6GSWeJayFtVFT09V7HxuRkbro7b+dkxm7aq3fvgO233PXda59rVHiGditk5D0Y/znBiP7X/QrApUCkySd2kX1++ujJkSMEbTmhxCwhtKzKIhQGmxNDG087jQ+LeiazceKgtIlC6jk5O2ze+85y9duiYn2nW0dtvfWs3yKyzkrSHqtTw6aoYggiaz8MpUnUdaQAKpyFGov7DJHaR4SP10vGRITt7ShrI8aPW39Fh9+3ZaR94130+R0Hy6tWGlQst/o35QNTUh3Qf+pGI8RKi1swOadel+SxAuhe7vn4gbaxUikxhObBSCXcMJR05fNQOvH7Ah5RW9fbZ7j17bN++fS6szszMOkMBkYBjCJt9W6zwIpyCtC1OduU7EYcPH/ShqLGxMRsY6Ld77rvXtmzZYuVy2YsoaBMXg3CZ64BxXWpRQMTbikFQHIki4N92aEzM2MiBk/bUN75jrzz9vG1Qw96xabttXLPe5mbVcNkXIXclVjapZyCxoF2wgmleUlCLNIOZRtWGZ6bs3OSovXzqoLUNdNrDH/mwbd6zyzr7e8PuIVUGp70ytFRTh6BBs6s7NJmMQWS4QfCGw7+lLeiNMoiweAONGn8sDX/93Ih99dGn7OT5EWvr6rWNW7ZZub1DHaxoNb2f17UqxzUFk5dGQR+A+DhB172beWnseuMbTeEeIqpzc1XLVSs2cuKYzQyft/7Odvu+9z1k+7at901naPoIbiWEL/cTGIWrEkuIWjM7es19fCZL0dwIBNIZS3gB2EPQfRNhrmBT0gAef/xxOzN4xtpa233jW2/vKr1jpVEiRipPMBlMYDwLQ2tpEu3LfV2T0rvcvDOeM2cG7dChg6q3Odu6bas98MD9yRBVWOrqcVAhDq4xvEsztoj8PxOS+1saZDlU17zVG2pMklZKrUXr7O6yXKu0BnHeiuSh8cqMnZ8Ys3Pjw9IDpL76O7QFMRRJPVVxjGmr2fDspJ0aOWenRi/YhZlxqxTnbe3Ojbbv/rtt5917rXP1Kh9aYumeStnL3eUu2q+e/bwUpYfKvxjhzXKvlnOdIcPVY3HbiqQgsXU4wVEbDc8QIL/xtsyKvrzaLkOjLx8/aY+/+LodPjNqhe5+6123yboH1qivlKwu4laXdNyQhMseCGRfn8hWeJDMcCUGdSqFhzYyN8+QrfqMmEq+2CpJuEPCWcEatZqdP3fOpmcqkpDLtq6/J8wRKl1S5F0LCOmNuSD9qZxF6wTxMVqlXl1XKEkCS1drTtDDUtakfBUrEjrzDc8/94KdPXvOvwq3Y/tOW79+vbWLycIU2NdAWflPz3B2TzvXZp4JLTwDwueW4anW1jaZsmsZk5NTNiptYnpq0lc6sZ+EdPlyV/cpRs7eMPlnYjsEF98sj7chgwhMgubJJLF0VVu1ZrWt3bDBN7+Nzk7ZBTGHicq0H+PNZrhZaQnT9VnZzdhkY8bG65JsKpM2ODlik/NVa+lutVVb1tm7Pvhe2/XA3VZqCwzHz3NSQ0VaQ7WOjCHOOwTD/6VI3i7zajnXGTJcPYLczl8koYB21WxbkkD9PiE4gDYcdkCHPUFjU9P29ccet1eODlpx1Vob2LLDuvrXOIGfkuaNxiAKJG1bTEL3CLVhBzBSaQjaCZr+QjwIUzAKn7aWlqAeKkGuq63d2tWfZmdm7ZyI6JTi3bR5nZVYnaP+BWkjKieQujo8zNRN88XCq5TVovvricBY50V0OZuNYbUw3h80nBArQ0oviEH0i2Dv3r3Htm7d5vlp1MRSdcMQUjh8z9mg8z3Pq8os/Yt16m54p3vKD00F5tDX3+cJGhkesuPHT/jpr72rej3cYBBfw9wECHOwhHP50nnbDDFhYA4sT+We7FPkc37aqu7Vghtq2BPD4zZ05ryNqDGeOHjUzp8cFFttWHV6xtdvs1mnu6/XelTAqwb6bWDjeutTg+1eP2CtarQtYjLsrKY+qbRQ7GJJXn+xsEMHDEb/Lyrh5C0XIf06scqQ4crwhsO/xS3I2+WSZpe0OFnKNr7QPRtIW5gwEKGCdBRFME4ODdtjTz1vr6tv1Erd1rf9TmvtXW25Qtk3tbGaBsJSlARLqDAHhoX43K7HMo+IBogxudPF409AKvNzDSvWp608X5Fp2PFDB212fNR2SBh77/37bduaPmknCkFEEL98GbKZeA+MfyGvl8MVXr9hBNLJSquEBojpheEcJpfr9txzz9nxY8cpDrv33nusr09lKMLs/jwbMWUhH34n++XS6wNZvHRwjfcBDDdJWfDzm15++SWfrN61e5fdccc+f89wEwaGRASBVsE4lottAW+rOQiyErbjexm4JO+FoisbcVQaYgZmlelpmx6ftOHzQzY2PBpWNlWq4sZSx0T8OdOpvbvDOqUSdnZ3W3tPp7V0SDpw9UT/YBJqlUmzIOZUoXMNKeJpMYMI7wPcg6P5Wki7yJDhsvCGw7/FLehyDMLnIGjD6gt+y8RoUW1bhINhIpjE868eti8/8pdW6um3rnXbrLRmk7SFNnUTaResShLBpk8VpUVDtOb8cMs5ESnG0wUFnBaRFhDvA6HPiym0iEG0tsxZb2vBxs6ftcHjR23kzCn7Kx/+gD147z70Dhfu5ETEF/9JrlLBBgbBv5RlCsvbvnkE0hnmW8gT5YAdEvvExKR96S/+QuU1Z3fu3+9fg2PJaa0aJHgSHelFwML9culN12V4CjYh77rXlclpvkB37NgRe/Gll2zt2jX2oQ897BoG9UQ64yqmgNuEQcTSc3KthsoV5ZRGHEvbnXhpJhVDG71aqHEiBbifRIjxDqiim+OlEKJKqtyLlC6iHy88ct742wUkj0nyHUtcZMhwaYRGHW8SwByCiLK0XTnroG06g9B7NWIeGSplSTek68T5UXvqxVftyedetB133GO9m7bbdK7VKswhuKrA8j/GsCUtixB6f3PpFAbhvc7jY4Fp7G/hOd6TPrfS3ZzlGjUriTW1yXmZM9ROHbfnn3zcHrrvHnvfA3fb5nU9VsSfkpxzCVom8e/QPbYx7Ii0kxuFQDpD/w8JCf1/fGzCjp84aY8//j1bt269vfe973PNgq9QNk9r1SWW1RsD4UB/hESzYHkwk9iscPr617/udfPOB99hGzast47ODrkOfhZwZQbxZlK4IkGGc5I7ElIdyoNSlHYwzwQNY39q0M2y4h0m/cwAK8YHV2VN3cf2jpvkEm6dDfjdIiTuMmS42aB1hhaatFpvx7rKMBlMn+HNjNr686++bgePnrCegXXW1bdaGnWrj1vXXMNW35FfJj2ZfvPdzjAMESKxiiDpS5Ii+GSmwY0zAt4n8S+kRcFJ62CSe3SmYhV1su6+Adtzx37fb/G8pGAkL2hYpKsh8SGElQKWkzblbBXMheEhe/7553wyes+ePb4bmtVG07Mzwc11w+JymJqctkql5iuk9u+/y9o7OuzZZ59TvLNejhAw0nmp5a/L4W3FIHzmX40skGwKRJZIPV55NLRC80Cs0LBZQcBZMDWpzzU51TOn9zGUiqF03LkH5AUbfjyroeudT0jLIA3EePkFjzLOVTAZMtxYhFa5YEC69TVboYiYLx1VewdMTnMnHmCnBodsdLJiazZsMRNzCJ/pZbOXCLwCQIonHP+KnPqQL2lV/wrDuCEOPwEWO93DeoKBccAwFq7ep1itxE7jcqtNSXirSVNZu2GjzVTrduLMeRubrIYVUsz/0uHk25HcxnzeDISU0O9FLCC+KlPmPIeGL9jw8LCtXbvO+vtXW2W2YgVpEMxvNhOe+A4gF6E8rs7gPh1OMOGwwxbfRb1+/Qbr6enx4zrGR0fkLQx/xfRCsdIpuBTeXhoE+Xejf1wpgnhlVjk2MC50EF7qnjOXAlcN/qK2gFdXy7hJgUeCCCwh3GMZNWBswqqE+Lbpallc2UWGDMsg3XBSZklzFZKG6X/6JcNEoT8EVOvzNjo+Y5PTFWsplq2nf62Id8FqzMuJQRREyJGt3AeCFePteudMAQYi46LRkshxH5kEsQdtAiYR+hvCVoPVP8VWq8pJXW9KHZ2WK5ZsarZqg+dGbKaCrSc/yFvxPtzeRIT8km8YJASYZa3jo+M+7o8kX1I+2ARX4LRaP/YilEgwER7I1ZtFWLBk5Rcrothx3d7epvh7fSf18NCwjYyMuquw/D76Cf4uh7cXgwAQesQhbz0qADXcJmNAYuJrcDAQX2AdCoglX76GGSfecC9GbAR+TewyZLh1QIdQ20YwYqgIqG+gYNMLZiTlnjw9KMLcat39A5Lo20S026Rxl1zYyYkye7tX33FJlFlj9Yccexo4zkGSPyOy6OQL7CCYxVj8hgEoRnMrSle+3O5HdkxXatba2eVE9djx4zY5Ne1pXNFwTtlip06dFoGu2ObNTEoXfUIfNIegbhgooaSUVFf1et06xGg3bdpiF4ZG7dy5cz6ceK14W9E6l/xRWQuSTyTu8BGguli8H+mt+zlJKmzS4SgN/5as2jgTdRSs/1zLUKfRi5o6EWOv/qlRdwFwk5hos9DWmwhvF9wsC3+FRxhSNDe6EWW47RFFfLXhCIjA5PS0HThyxBqyL3d02ZSIdE20zU81ZihJ2gLcJLR3SaEtBWcO3l/07JvlYBLGAZiFxKArRCNvihLvkX3wDKuqirNUGAJReLlS2bWH1vZ2PbfYOUm/SOAOkhzNlRCiCOYGAVboY/rJMzejo2NOnNmHwMF7aFasHMKukSy5d5N4ebPw4lBBYthb4SvMFB+T4h0dHdbX16fym/bVTdED6Q2LeZopvyRoG7c8aGhudM9OUD8qA6Nn+LcfH6CGD2Nwo/vF5FgO3AT1y+2bL7GPkCWSQNNgF1nBwi9DhpUK9ACGhJrtVBfuOKJ78OxZ9Y+8tUryhGhLPBKDUF9hMhrNXO0dt8EvGreYgTocn5qGQfhnQnMF9TUxBN0zC0G/a5okvnTfIyT6KpPV4Yh9ES6lr72rR4yibOcuXPBvzEe3GP57PhaZkKqmm0UPNwYuKEogZfUWYBRifHxczKBh/f39TqT9IFC5C+lAt7q+yVoUXnJDfKw4Y9lrk0GMT+LimvG2YBARNLqg5gZDQ/RdhPrxjufYOKk8OC2FGa8RLN+LR+767tDklUsLTRPsMmS45ZBu04lB8uSoi2Kp1Tq7uq0gSR5mAbF3bcEN5IL+hCc0CzTthkvHSKRslOO4jRB4lE8X+hX3C30w2EPcS7mitSo+NuFNSJOpKLzuVT3SIjr8OxPTlbD6B0a0ksHw9MjIsE8SM/7PSAQfUAJMIENzbiQizYI+MTFOfZGOiYkpG58YS1wlSNG7y+Ftt1GumZnLFABv4tvlXKULxN8nRXRxQQWp5Q0hBOy3i/GGQ8xw24H2gwmUMxBdFpMmWrCATXxiCWp0y+cu0Q6YkObbC48fPGK/+enP2d4H3mXrd+6ziVoYMqIf5dX+QzgLiAMUqR4XhCmPfyFNixHcRh+uYTjDYYWP/FVnbb4+baV6xVZ1lG3wyEF79MtftLt2brbtGzdYUelg93UOZqTEMA3iKWG0IEkch2YSMulzCZ88Lkr5dYRHFcIm7wxJP/XkU3bHHXfaT/3kT1lFWpkSZ63lVmcanG67PJNQRmISLyLH6bRf6j4B5aA6bjRYkRk2ztV1//u//3u+ae6v/uRfdWd+yi51iuZ2BUbx9tgol+BaM3L5osmQYaVDLd6JPi1fnd47OwQosAQMNrGdt/iy1uCe8XCnr4VW0ZUW++7rh+03fv9PbP+D77eNu++wkVkIbzgOmmWrC+GEXgYTiESZi4cV4ekIbKKJxC2A4uDeCTfzGfqxQsoPF29ULF+btZ72oh19/RX78z/5Q1vV1mqru9qsJMJWYIxd+SgoTf49ecITUwinKcMgeCbtIZ4c4S9KyOVxJYK5CISrQmAeMxzUN+8f83nfe99nP/MzP+saBMvfOaMpzKMo/cn3GRZDKY/RQriT24DwdDGLXh5eL6zKVD742lxV2td/+k8wiLX2kz/937ibOfaCwRyWjJwsB1h+hgwZbnlcmXg0ISKUk8SeLxRFTiAq8i1iwQmfdWkW1WrNJ1cZao3ax2IstrvYxXJ+FiOwhUCA0DnmWFklBlDKFazUWvK5iNlKxfhe9aq+Xp/05WM6bP7q7uy0zs4uPwqHE1L9Pnnu7Oq0Dr/qndvJbeLuagyb2q7VdCmOnp5uH+/nWw0M13FeFUtd2d2M9lAo5C/BHK4vvExVdzB9FhawogodwI9KF+YlGHh9+3DhlfG20iAyZLi9oK6b0iBE5XVdGGLCQBYi6/DtcLjHQEDkni81QKyfPHzUfucP/9w2773L1m7bY7Vca1j1J+kYzSOGEYH2wDBOiGUJUo5jGiKCNI8NaUTyFtFUcio1aQ65upXloDhftaLSevroIXvl6e/ZRx9+r929a4fVp6aMnQQFIseTwoLuUQIIwoTni1TcJiBMYIdSWSalbwrNvIiEwmwrlap95Stftb5Vffaxj/2w70XgOO96JXzdTdxC6V2OMFMfye1F5Di+SAO75ezlV4mCpLeo7iiH0ZFh+/M//4Jt3LjBfuwTP+Z7V2C6fPXPC2S5YFLIGESGDLcs1HWbDEI93alQILzYxP4faUCaQbgbua9b+P7z88dO2qc/91Xr37jd+jdtt7lSh83lSs4I2CkdQ3DaLPhQRnLXjGApEm8L8RNW807ki/BY7cQ3XGpWzM2JOdStOFcVx5ixkXOnbOjkUftvfvQH7b5NG/C44vHHn/2vLrm/+90P+TcfitIaYAl1MQry7IeGXoQUg7gaeCUs48ELV9qYGACrq1hAwPHf3/rWo2IQ6+wjH/uoql6lzXtpGQSRDTFlyPB2Bh0cqfQKHX0RXIoVUYJQiFnw1FosWX9Pjz9Xp6ctN9ewvIg12oOP6St4H+uHADlJhzEkzCHQJTduFY2s+JQvcwXRYOfHcGAUUmOu7hJtsZC3crHohuGQ2elJSd4V6+3uko7jrM0q8lOX8UMD5Qfj6/ndyF7vGECppwzP2CMHX625WpAOPo/KKa6AeZ1iiY8mzfm3o1leChgaW5icxm00KVzC+tJIe7jYI/MQtWrFh7ra29uttbXd9wn7xL0MZXY1yBhEhgy3IyCyMIeEr7S1lmzDurUS3KdsfOS8tRZaLA9Fh0HgHOYA1V+GGAWEwZxFv6aky1O8iwhh8FEgjvHgC5DMQ3CcOKR0bGTIamISW9avt462NmcQ8SRU54XLmQTcQtiiSb26riAdzDFE3ozkvmH9OmM+ZHR0VHxYZaL3MyLSlRpfnSMXy5UfAURzNYhhLDZ1xU8Z5dBackyMz9jQ0AUf6mKOxOUCReGuMwaRIUOGZeGEVkRbFAMCwFNHa9k2rV9rc5UZmxgZtqKk4AIaBPqCGEPDGQSMQu4TE2lTkxnIxF29cXlp/C0ifol/jBwqCDEhvlNdr1qLiGgJojo+bnO1im3ZsN4621rdW3N9Fn4Skw4rrOJKx5o8y/5azNVCrp3Bco2HF3I4H5PTfCcabYQJYyap/ShutIiQJIHCi4iW/uLKSDtPGzF8yD4aWEGaGMd+nzx50g/tGxhYoze4SZwzxHQVyBhEhgy3LCJluEaIcPm5PAmRgFSVS2XbuHbAyrKqTU+IUUxbThJ9XkRHbMHdhRMJ5D4dZUKdCcnptRuRzIQQEXYwYc4hhhYmk8V0xBDqDDOxismHu/QWTaJas5LSt25gtZhXqzOHIhK5b35wfSIJl1+IYymIP53U641m3BSBypShst7eHuNbGefOnfF9EOEDZnPWWg7fjQ5+gr+Q6mVSfwnr5bAQnkoYBqdrI9FUpqYmlI6zvqsbBrHwQSOVo8r2asomYxAZMrxNsTwBSKhOvIhgsLmqXMhZ36pO27huwLWJkfNnrC4m4cNMcszwUvACCQqGe1gD/wOTiM/OLhaZwCByYjKckSbjV70S5efcTKaqC7Kri6iel/RdFCNY3d1tbYWCr1yCQTQTLYRUhV8aMca3As4UGiwjbbiGUBITYOdyf39Y7gpxvnDhvDPBSq1qtQaHlyS5gIMuPKWQLrcrY1EoKkeGtRjqunDhgo2Njft5UN293VYs88EnMY6l0V0BGYPIkOFtiEVkZikVaRKfwBywhwC3i1Jv37LRVvd02uljR6w2M+WMwx0kXrh4MAuhJ9cFxhGiWnh2zUHEPwxRxeegSeCWJagsymwt5pxBnD5xzPp7um3ntq1iVkUxKTnCtRO4hdhjStKIdPeS9Pd6g/yIQUB82TfCmBP7ITZsWGcnT56ws2fPiFm0KR1heaknXMaTldwvRrS86MUSpDKXOEczYK8FH3Q6ePCAf5Ni586d1t3VlTgLGpvP5cht8Hh5ZAwiQ4bbBglRiOPPEAoRrkDS2V8wb9s3bbT1A302PnTealOT1tKoh13Lom1x9RErkwhpgRnIiDiGQ/oCM/Bn2cfJbf/Jkw+4+DNhKATiJ3yW2FQrinPcpkeGbfO6dXbHrp3WUUrmSVgpVA8M4opkrZkof1q4Xmcw1s/mQpiRn3irfIDeVats27btkuBHXYOguHHb/GRqkqCFJ/2UL0yEPyfX5nM0/iaNYB/v6/WanRCTrao877zzTl/FBJi8Rrtgb8bVImMQGTLcjoCYQZh9+aUIjAgHEuhAd7vt3rrRdshcGDxppw4ftrLIRFEEOi9T4h7pU4yDZZRIpH5kQyHvpyhjEPkZQuKY/YXlpkygBgIKLWNZakt9TmHNW6s4TlluTh09bGdPnrSdW7bYrq3rrb+7bI2aGAqHuS6liQKMIjKL9P0iLOPvukN55UuVYYvDvHV0tNvWLVtti/LBPMDTTz8pYj1rpRJflLs4QRB310JUSr7yScyVgxA5L4t3zBfgz6V/GUIIc0iKE63FMWflclFMacSeeeZpxVWW9rDDz2AqeryCCogjQeKu6qtBxiAyZLgd4YRFMnyUPMUgfLWNbjevG7D3vONe6ywVbOTMoA2fPmV5vevIFcxJTY391y3WVhS7ELFhk1ulXnEmwGqnGsSuRcQt2T/hgUKcdGFZK6YkolrWtZX3lVkbOTsoc8baCy32znv32aa1/WIe8kPyYEJoGhBiPUYaG57cJtzJfsHmxsMZnZefiHhCqCkLnju6Ou2uu+6ynt4+O3jwoB09etSPAm/uhyCRyj/DPWge8Fw/HkP1gDbCMBEfYiLPPIPAKFQcct8crpJqhxvC5Wt2Bw8esiOHjzpz2nvHXiuoDl1rwL3gn1xWOEEPSQryMggxZsiQ4e0LCElinJyJKImkQS1cc/ChD5l6rWZVme7Wst1/x27btW2zTxCfE3Grj45ZiT0Ket8iw3qcjtaCFfg413zNarVZl4AxDekM/G+IQbQoXCa6mcqQUx+uKsmUZdcmWpmXFjIzPGTnThyz9mLOdm/fZPfu3Wa9rSUnnnl5YtMeDExUUKmBZJGRYPhFIkYWr4LmXUeEyNLnGrGLuibJn8Rs2LTRtm/b6gQcBsGSUz/VVfkPw1Mi1Lr3UOQGrQBNgnOo4tHdMAVnBuQTLUX+qLNA8OUTBqPy4TOjxHHq1AnXGHbu2unnV6Gp1Tm5N2EyzmRlrhbZURsZMtzSoPumu7CP7Cf3i8EbCEajwbp8SadIpBAaEQz/iJZuKzVJ6yLEHL89PFmzZ189Yt958kWby5Wtd/WADWxYb4XWNquLwM+I6LSUS9ZQOIwC1UkGxFLR820H9gagaZQUHvuLOaqbk0TzSkNRxJDNeIPHDtv5U8ekUczbex681+7eu9u6JfW2KZi87Jh7CEd9yKQ4QTOPTuzCfdiL4beLseDkuiKSzqhFxMgh6tgx1s8R4MNDo/b44487Ed+wYYPt3LnbVq1apaTnnWHwgSHxBGVPjNS1spyYDBvrYCQ5Xx7LMmDsAnHnVNhw+B+En81whw8fstOnB8UU+u0dDz5oXZ2drj3wOWX8ENZyjOFKzCJjEBky3NJICJP34qSzq9Mv16mdtCSESyTD3cEkYBq8ZT6iWk+GL5BwRYSGxmbt5deP2OuHB+3C2Iy1iOis2bjB2lb12ryIWVWBzheliYhYzUpSlc+EkCtsPfAtCUxJjIOzY1vEgKpTUzY1PiYzavXpcetuK9ieHZtt/96dtq67Q/HLn/4xzc1wFDoCS0kDFc0FotYkbFzj/WVwFU7eCAL5VHmTNvQnlS1EHe2gJmboH/BR0l9//XU7duyYjY2N+U7rNWvW2Lp1662np1fu81bjyA6G0qgTGQh6CDlhOEl9ccouzIEJ6JGRERscPO0MgiM1WD21fft227ZjuzNW5nwYelo6RJVGxiAyZHg7w7tv7MIJAVCfv2SnTl6wa5nVRHyrwM8SgvaK0EMwaiLOVRHyQjFnZQiM3D/53FF7+oUDdvzMGetdO2C969ZaW0+XTYkIzhUlqZbLNscQiSLn0wiFXNElYj9eWm5yEE40CknUUxMTNnbhvI1cOGub1622++/aa/fetdvKigdyRC74vjKaQ8nTJHvSCKFTesJBcxcTu4Dlcq4ALk8H3zAWyCfXedcIKEMYg8fpOwt1q7I5LgbxwvMv2BmVYVtbu23atNnnCjgy3D/XKg0ozhX4UeHKJ8TdwxSjjJPLc3N1Zw7Hjx+3U6dOKg0ND+u+B+4Pw0pwWPml3AgPLaaZpiXIGESGDG9nLOq+SWcPNGl5JC/CihgRbBFaiATWaBY5SacQJg6ia9Ql8Sssvh0xW63bueFpO3rynL30+gE7OXTOh5hae7qt3NFpbd1d1r92nbW1t3n4fFNivi4j4lSfnbXRoSEbOXfWpsbQGEQc162zndu22M4ta23tQI8PQznJV37IEqwGehjZwAKZYiOeXlySsOEuugW4w314ut4gXRgIOeUYJPa6iHLVv+iGdoB2wTwFczxTk9N+TtOBA6/bwYOHXcvgYz4wit7ePv8mBZvsIOYt88xJiMCrLKdnp21iYtz3Nhw7dtQ/bcry1X379tjWrVv9OI32jnbX+kgPaSEdMBdWNHmJMpfDneo3ahMZg8iQ4e2M5Xqv+vylOrX3dn+pfwlxY/UM8HFql1IZMsFRuIeIoBXwTeixyVk7MThoJ86es7OjkzYjAlcRIcLMiIkE+decGOYkERelAXRIGmbDXZl5BxG+gd5e27B2ja1fu9r6ujpkH9LlwyieLsXHCihZ+oStpGsnaJ7ukKZLA0fKV9MJ7ORy7t8cSCMGhkoxOrNVmiHOkRBjB3HmqO8WhpMqVTt79qyk/1Mi9KMu4ZNOmAnhRC1iIROUP/UQ4tM/a20rWb+0hU0bN/hRGqx44lOjougeTkgTZcg8Bh8qgiEk9Z1iEFdCxiAyZLiVsVzvhZAkt0vhvR0jQqI/i/sfwrvgizkJfsxJOMOAXuFENCUS2ynZnRkat7Pnz9uQiNyF4VE7duKETSZHXBMRk6jtbW020NcrZrDWNq5fZ+sGBqynq91axRT05xIyY1iKSjEGwhjimLP6vCRxSebFHLupiyKwidQb8xARkhSsUi/5H8K6MSwiFFcguoByZMIZ2sscRNQqMD7MI8Jd5CNMMBO9B1MTk2IUg84sxsfHpF2M29TUtK88ItX4RSvhy3gc44HZvHmTrV+/xsrJIYY+pCTU6lUvC7SPyGTwS5r8YEZnCpRESC+IdX8pZAwiQ4ZbGcv1XvX5S3Xq2Nu92+sPmtHCcJIIig85iXD5WnncJUTGeI5gaawu8iLpnmmBhgiTiLmMQhFZZxYC7/xHEwhDGswbwHCKIpIFWWLPjmwYkX8rm+EPLEXICD+wKH/rwyRwp9Zym8vBl2MQfspr6qUTWf9df3gR6h9liOTPPeURl7BeCrjzSWT5QfKn3CHiLJHlHWXocy5JNtAeyD/MmqPR/WtwAqfHerlSbphFhRJAeM5sEkaDNiEr3vj7jEFkyPB2xnK9V33+Up3aCRDUXYTByY7+QaAgTj70IJ/QDD86G+leZj6Hncv7CXHBbxguuRYk7IZEKBYF5MeJK04SIgbhIyqJlhBPeyW6hpgP7oqFkqcZBuFMIgJLAf8h5ODP3TZ/1x+URSTAgNVFgZyS0zDUA7CDEPs7lSfSPJ9ypXjD9ySUumtJoIJhvsjziFcZchyJfYwv3sc5EFCrwcBYCRWYzJUYxKXZXIYMGd6WcP6gK58a5c4Zhqi0S/rY6dnfcI947JQb4qZrQuScBOvPL/ARKQBcfckTAj9X7KORO4hNCJfwA+EKDgUnpsRFoLjSbfKfz3aWCktW4HhAiVkGl7C+rqB4vLhUXhBiyg8pPTDTkAIvLv3zbPl98IRWAHNgiA/jPCWWVSxL3KefEzOXMCRn6GgXROURLA8YFYb6dGFAhvsrMQeQaRAZMtzKWK73qt9fslMv6u6RQCzYuU18XDJcsxhI5UG+vChELJKgF/mO0WHrL6B4C9ZL3S48Rzk20QT0ohlUCs7H9DIdTnB3YzQIkCafkeBeDUnF5eJ0Jn79f8DFbgLSOVzq5lIgaelkXQ1zABmDyJAhwwKa1CC5uSwdWeZlmppc1u/lyc7FbxcCu1ywy4V62WRkuCwyBpEhQ4YMGZZF1N0yZMiQIUOGRcgYRIYMGTJkWBYZg8iQIUOGDMsiYxAZMmTIkGFZZAwiQ4YMGTIsi4xBZMiQIUOGZWD2/wftI2RBn09g5wAAAABJRU5ErkJggg==;" vertex="1" parent="1">
          <mxGeometry x="-1.4210854715202004e-14" y="646.91" width="135.84" height="70" as="geometry" />
        </mxCell>
        <mxCell id="b7mZYk1uwkJI4-mQCpKp-28" style="edgeStyle=orthogonalEdgeStyle;rounded=0;orthogonalLoop=1;jettySize=auto;html=1;exitX=0.5;exitY=0;exitDx=0;exitDy=0;entryX=0;entryY=0.5;entryDx=0;entryDy=0;strokeWidth=2;curved=1;" edge="1" parent="1" source="b7mZYk1uwkJI4-mQCpKp-18" target="b7mZYk1uwkJI4-mQCpKp-25">
          <mxGeometry relative="1" as="geometry" />
        </mxCell>
        <mxCell id="b7mZYk1uwkJI4-mQCpKp-18" value="&lt;b&gt;GNN&lt;/b&gt;" style="shape=trapezoid;perimeter=trapezoidPerimeter;whiteSpace=wrap;html=1;fixedSize=1;direction=south;dashed=1;" vertex="1" parent="1">
          <mxGeometry x="177.95999999999998" y="621.91" width="70" height="95" as="geometry" />
        </mxCell>
        <mxCell id="b7mZYk1uwkJI4-mQCpKp-22" value="" style="endArrow=classic;html=1;rounded=0;strokeWidth=2;" edge="1" parent="1">
          <mxGeometry width="50" height="50" relative="1" as="geometry">
            <mxPoint x="137.95999999999998" y="431.91" as="sourcePoint" />
            <mxPoint x="179.26" y="431.41" as="targetPoint" />
          </mxGeometry>
        </mxCell>
        <mxCell id="b7mZYk1uwkJI4-mQCpKp-23" value="" style="endArrow=classic;html=1;rounded=0;strokeWidth=2;" edge="1" parent="1">
          <mxGeometry width="50" height="50" relative="1" as="geometry">
            <mxPoint x="136.65999999999997" y="669.41" as="sourcePoint" />
            <mxPoint x="177.95999999999998" y="668.91" as="targetPoint" />
          </mxGeometry>
        </mxCell>
        <mxCell id="b7mZYk1uwkJI4-mQCpKp-24" value="" style="shape=image;verticalLabelPosition=bottom;labelBackgroundColor=default;verticalAlign=top;aspect=fixed;imageAspect=0;image=data:image/png,iVBORw0KGgoAAAANSUhEUgAAAGgAAABgCAYAAADxTzfMAAAAAXNSR0IArs4c6QAAAARnQU1BAACxjwv8YQUAAAAJcEhZcwAAFiUAABYlAUlSJPAAAAx9SURBVHhe7V1bjyNHFf66+ub23DyT3dnL5LKJooQoJCIKPEVcIkJQhIQQQkLiAQle88ADv4Q88wAvERGKkkhIgAQKCiiJBBNyUQKE3c1ls5fxjD0ztqftvhbnVLdnZ8NKkKqeqBH1zXyudlk+rjrfqepWHVfbkQRYtBaiLi1aCjWCyrKE4zhocjAJcRzaS2pjVTYDaqPTnDUGmasNlvxgDCVQlmVgkZoEC07/fKSem+O6OKo0NatssJGmA4kNz2kOJdD+/j7iOEYYhiryTUaScAWyNMd7717Cbn+EPK2FN3BoWZToRCFObdyC1dUeOt0QsjR0gONDxu9CjDYRlNvkiJTqDMSS3E8HSed+FNF9cDpnVZCaCqUE2tnZwWQyQa/XMxbI81zMZileffGvOP/2h9gfHChtqsbqIcty9E4s48GH78XGrWewuNhFYTriRYfEeRne9i8RTDfhFmNIEk0Xjsz5EQer30G2+g04C/fQcxZcv53KbyzQcDhEmqZYX183FoiFYIe+/OImXn/lb/jowhYFJk93+gKlaYb102t45LGHcfbMOjqdyHxKJoHceBP+8Fn428/DyfpUF9YvakBm9CCQnH0S6YnvQnq3kTNcqjNr5+GYrs4ZlRPnxzpkCHVMB6Qzi83TkSp1Wb+/Sdxoji6SaIoyZkMXBoegNt4w6TblhMqx1bESrh5B2jQcgf8RfO5pgk1fcFCXG7Zo0TSsQC2HFajlsAK1HFaglsMK1HJYgVoOK1DLYQVqOaxALcehQE0upVRLNFzWFU3hGJZ7mrfYLJRAvHaW5QWKUoLTLFzqkpEXJbK0RJIWamWb80OmzLMCsiCWJL4ktxqS/yS1UxYzOMWEWBBjA2bEBCgTOGUBUS90qtKAVT5ou68SdidPnoArXKNFU9dzkcwSvPrSG3j7tQvY+nBYjyhyjCY443vi1Co+/8XP4szZU+hGTaQbQjiT1+ENX0Bn9zdwswFkA+mG+NQPkKx9CwjPqeem6QYl0GjnCpLxAEsLAZmkyKpf1IEQDgqKzEsfDbAzzBCnQT0z6VuV1Ec3dNDpBVi6pYsoCkggk1YSHAE5HcEdDxGWGVxypDSY8OZe2xFrmAQnUHZWqZJHq1k7lUDx8Cry8Ra6Pg1NqjQxyV0saQoZTWma83pwF9aMGynImbM8we50QJEp4QacVKxf1IUjIRIPbhzCl0vUbk6u6RudSztAij1y4tTrqNnUJNw5YJRA070+iskWFkRKorNB/Uhis5JaFssQ3tI6wuX1ut4MaZ7i8s5lTGVMU5Fqev2KHiT108sChLMITurTeUN5UxssBHtu5DkYeB72JJ0qeGqvXtYC21MXCccB0l1lQpuCsmc8bD4GMldZnNvlUpdHUU2WpmQcm0CMjzfbBI2LM8eh2absk52GTLFIxyqQhTmsQC2HFajlsAK1HFaglsMK1HJYgVoOK1DLYQVqOaxA8zWVJtGgzf8ZgUwXR28KMnkc+jSJKt2wP0AeD7DkF9WX9E2bXUqMkhIiWkW3d5oqzBY6OYkYJzEuDy4jRQLpmQsmnRJuGiGYLsPLIrJmmm6oEgtDN8HAkdh3XEjelWGwLsepPiXQwdV/Iu+fx6KY0ZAyT1xR17Hr9FAubSBcPUv9Nls9VPmgbIb+3hYczgf5DeSDhIAzjeHGE/gUUCqNboAq3eBg7C1j5K9i5i+r52b5oLlAf3kO6WvPIhpdpoqMavVnPqfMUXgRBnc8gYONRyB7d1ItxYKBRzldnhcFsjzGcq+D7oJhRpXzNE6IdPwK0uHziNwPKDCn5BAeRbooiCRH9ATcpa8hXPyMCgKVDtaE+qqAEmjzOWR/+hmi9/8IJ5+SYYO9mkWCIljCzhd+hPEdjyPtblAtOdM05Gmu8L0S66d7WF5ZUBuL9UEdd0NMBn/AeOun8NLfUfuGVG36nQQHXu9JBL3vobN4DzmY5mLJwumBBaqGCjXWcV04s32I6YzKsT6nKZV7KnjgeqQLRRVPHwbk9/Of53nodEIEfkBlx4AhQorBsNOl8xuJIic0AMjBBZeaLPkbPTPyKp/Hq36zYDzNmfDIXEYGSSRVY0yKHLbHoEIdVe3VYw2e5WnA18/MIQ+nH+r3zT73k/AQdH6sj5poKbvTosVQAtFUR2guMi2aAc8WSqBq1rhhnFq0BOIf5y9iNpvS6Ye1siK1Cb7vQzz99NM4f/4Cndf5xG6nuTbBpYs28YtnnsE777wNj0aQHT/tgjoHPfWTp/CVL30ZSZLxRWz9kkUbwBsExNcfexTn7roLRV7drcmiPSiK6rvyiOMDtaxg0S6oEVQfW7QUtUD/r6PnePrdlNXri6UEdYHQ2DVCbUvZo+Y20OLDC5h5QVc4+qxs8AH/NbgJg2yarLL/OyqBSrpASGOININI6PrbhDMuUzKaw/ECuEEEEXSN6IYLEH6EghyZ0cVMKQvkRa7Ngkm28jwlxuTUMfmg8q05qe904FH0N0GVD9p96yUcvP5bdIbvQhR0uS30E1eCnScC9Hufw6R7Owp3mWo5RPXDlPcZiSBEuHYSp249i6XeSp0P0rVJHac2Huy9Qfw1IvFnCGdE1vTzYKjvWZpE30TR/SqChXP0GRT/rJou5gJtvXcR29e2IbonycMsjr5Rx/VRzqbob/4Kk/ffQnGwx7XqXxdlliJYPYP1hx7H2rkH0FleI4HYIbrg7JJAmu3SSNrGymoGzzsy9Wlg3r0rswgDuYIiXKsqDWzy+5VA/WsDbPf3kUuDjGINx/VQpjOM3vk9hm++iNHFN6tIMkijF0mMxY27cefjP0Tv9gcQdGgElfqZSgb7rnByeGGJE2d6CEIKLIOd4/PN1+/t7uPSNMXEDdRzg7hUw0R5zfFcGji+mkokT8581tSk2vZIHXXUSJQoSKw8malSl/z+MsvUgi7Hvvo3JIO/jOK6EfxguSr9BW26fhce0fe6ZJ+ClPrODjZlFdbqyobvWkvONeShDbLJzmShVDqdS00Klenl+ZxMVw/mIJFUS+mcKUv+PkEzYHtsmWOgCerPOxafCqxALYcVqOWwArUcVqCWwwrUcliBWg4rUMthBWo5rEAtx6FAvKzQKBo3OEdDhmVtiR7ma3NthBKIl9mrlThenaq2PZhQ2SKjnFiTvOpM5NKEKAqyx/apyfzTYw2Q13WP/roXr2brkp3I65kl21LHKgaMyFACsX3+0T4peesEO9eElY0iJ4dmGWSRocypNCC/n/M/yhFqq0gA/kFAE0IE5EyhMrR809oqu8qlJtmGYqruoHwzh39Scm9VPmhw7SOMtq8iUN/PNgPnfkpq4M6VKxj3+0jH+1TJc4j+PMK6dMISaycLrCwJBD4HAndBH/yrjUmwgXTpfiys3w037NJo0k8C8so9t2ib+jtKEziRX/XYpJk8/bJA463zSHbex2LA9yw1sykcmtpKga2DVRw4a5DBCtWSRROjbgQRX0B09edYTDYRyH41CrRBY7yYYtp7FJPT34dce4g+Y4mqzdMOSRrDQ4blRZ98QSYN+n19j+rOB8iGFxGVezTn5dR8/ZHEZ6BSehjI27CfryLNg/oVffD9rP38ElZGzyMavgBv+neze1wTnOIAyfq3Ed/5Y+TLD6J0F9SoMkY+xSI1bX2N7JGDTUY6/5pmpQQrxQWf3skeD1ZdVhsAaU7ioejQM1Uy1QdokS3z6dJRafMCTpk1QGonCcJRfh1HPvQTk9umUpRVppamenYwl7q8/r24Q5Hpg9iZ6gP1WDmTqCJnbvjwA7TAFisbTGoyC3WTq7L/nvx+MsUBZNa0I7huiK+GTUbOUVQCWbQWVqCWwwrUcliBWg4rUMthBWo5rEAthxWo5bACtRxWoJbj+ASq1mcaQWOrMZ8imto1XwkkS/ovVWlK58hxZbPOLhqQFeK1LbVzgLcYsl11Az0D8iaEklfu2faNq316rNYhOaOqMqvURu4/3+tAl9xnJRA7QS3u8uKhIUsiL0iyTRVFxLowJDuA76TbIXrEyIwudVz4ygmVe+kzDt2sQ070V4HJ2eQ0TZFydjXLtMk2qnzQ7lUk+314DocVg5urB/6RQv7uwCTxkKILeEQFdoQmRAAk23D3X0Ugd+DzTmeDNlZNyZF5Z5B074NYuZfauUj18/7ro0gTuEKiGwr1k6VKf01wUCqB0niCLD2gGg4rU3A8SeQpTR8U6Y43T6zpt9ThEZnFKOOr8PgWXT4JZtLzGjwNFaUDEZ2krvO9S2kEGCIvaDSRHd5z1gSUQPWxResA/As/2Nur6VXlSwAAAABJRU5ErkJggg==;" vertex="1" parent="1">
          <mxGeometry x="307.16999999999996" y="395.2900000000001" width="79.33" height="73.23" as="geometry" />
        </mxCell>
        <mxCell id="b7mZYk1uwkJI4-mQCpKp-64" style="edgeStyle=orthogonalEdgeStyle;rounded=0;orthogonalLoop=1;jettySize=auto;html=1;exitX=0.5;exitY=1;exitDx=0;exitDy=0;entryX=0.5;entryY=0;entryDx=0;entryDy=0;strokeWidth=2;" edge="1" parent="1" source="b7mZYk1uwkJI4-mQCpKp-25" target="b7mZYk1uwkJI4-mQCpKp-29">
          <mxGeometry relative="1" as="geometry" />
        </mxCell>
        <mxCell id="b7mZYk1uwkJI4-mQCpKp-25" value="" style="shape=image;verticalLabelPosition=bottom;labelBackgroundColor=default;verticalAlign=top;aspect=fixed;imageAspect=0;image=data:image/png,iVBORw0KGgoAAAANSUhEUgAAAGcAAABeCAYAAAA+NAqcAAAAAXNSR0IArs4c6QAAAARnQU1BAACxjwv8YQUAAAAJcEhZcwAAFiUAABYlAUlSJPAAAAroSURBVHhe7V3Ljhy3FT1kVfVzHtJYlgw7cBxkl0UWMZBNNvEiu6z8AUHWWQfIPh8UeBEjmyDeJEAcW4iQBxzZiCzBHluW5tkz068qkjmX1TVjyV5EZAmgAB7odlWxVacv7yFZ1bzNGuUIZCQJvdlmJAhlrc09J1Go9XrdrzhKeettsBQ6kKzX0ZekzrNy6wuioRSJSNsbIaEODw9dVVWbw0gwgG61gnIWhYgUCWGwfK0tR9+iZACkJK7yjqIo3aCgldWGr4d41rWGsQW9LTYlMaSK9XZQ9+7dc9vb25uKR0DOtxbNwWOUFGhcxF/OpG3XrOzMDeHKMZwuWRpXaRFnUM0xGp1jMmEjKuJ6ufjIMGJ2WmGxHMPSVymN9VPOV/v7++7GjRt0sqCT4YRKa9imwfn+PvTZCYbGbt4JhxdHlTgrt9GoISz3YyHiDEdLTKcUZ7RiD/JtdPPus6OTYXY2xcV8gqaWUSic7woWuixLyLAm4sh+qBUUp+NRvAnUFJr36d7NYOvOJzdfuPe190JNIkmBtCpo5Cet5huhprSD9ibk+vIz/DbU5HzxUXpLX191PFe3L8Nc9HWnc7cFrxabvQhcUrTDUS9gINt6b2ofSyvn0+IvDBnPDVmchJHFSRhZnISRxUkYWZyEkcVJGFmchJHFSRhZnISho2ejvw5yeTbP2c+U0PNDj/Um2pr3y6mtte3cGk32Q02ksMa0+7R2gjFWIM/KKnsyX9KFIMQE3T5re1UYC/JIDJXUW47pavc5QcbzJXS6rtdomho1TbbBVl/tG9vwI9oP8p8SaK3AgDEidnscY3qzlUBKI/KifyMyISaTx2yktG99O8hY308+3Xfbu9c4vhU8pLOhkLl3ijI/PMBgvcB2EcXmIRfEhVN4aAs05QiQjK0IFwEJ38TOsafOsVtZlFQshrK7KjxcjXHSTNDocVsQCT9n/tH9A1cMp3RZQhFTcfHSolmcY1oa7I7bdG1MxSWZelEb/Pd8jnlVwlAc6UGhkDMto3l9ucBr8wtcZ0uvWBqTFuyi9nkxwcNyisVgImH10QiF8EmqX33y2Ylz5aRt+b44FHRHCJs5rm0VeGl3yrK4Vqm1xvlyibsHR3hkHZY8Fi9j0FCcV1YrvLGkOOsVCmva3FMg2uuhwhfDHewPdnCkhpLeiRJHGovkfLWSdJ6n6snIp3XB7s7WQ8ElwKEm8Fw+5dg2nVgTOKEWfjYm2f2a989uJL3qzd2ti6b5q0aQdTzC0i/I11dmVdDeSbb73whMhPkuHdFjLuEJr3ha/i7E4SaIHSUyniOyOAkji5MwsjgJI4uTMLI4CSOLkzCyOAkji5MwsjgJo39xlPzrJiD6QMvVJ6PHZsqlv4mm/qHblJOGUzLNJjmdQOP5Mo3orINxhrWWDOuT2dJnNYFwGG/t1H4fJkuHxE863jYkmUaOMvlX+vVDVg+jzchWDaH+8+DI6cEWXZZOFNOO6CSrbpYz7Iw1Xro23jgdjlJrzJYr3D04xLEusI7M5wgMe8zN5QLfXZxjr6lRsSG1+cswtPPHCp9XW9gfbOOkGLNEJA/3U84UNdT+3Q/dqOJupDayYNVahZNlxQBsYTCaki8ukJqBXNU1DhdzlNtDlJMB9Y9yki1SYzw/wu75I+yWhg0g0s1NHmx2+jEu5g8o9KItj4KMEgXU4Ud/dBM9p9LS4eNakHUaj9c3cWavo3Zdujaq5t5NpRrs3dzB1s4YNmY5o1RPhp7Zl8DpfUyLFUoVt+ywE2f5+G+wh39FsfyYh/TRl4dBuYaNaAJ1cvdPbmyP2HHEyQhCnm9cgUP3Ok7NHlYNh6DNe6GQFi1L+oYj4NXXXsL2tmRX47GaPcL80ceY1AdsnzUvG+H19iLQ0eXsLpqDP0MdveeDK40gGHYFV16LUONbwWjGKvLC4emRgce+SF5CrcVGHN/f290okOOSO12V/DWmu9BEu/k0AUPqb9MltHEmrxmJov/fEGT0AN6isPNpv8Y/IynIMx3WjYEuyu5ZLRmpoOSXr9Wa4pT+gT+b0owkIHL4Wwr50XnUN+SM3mEpiAxter2qN0UZqcBYx+uNPJ8nD2nJQR4eWRX5e06SkMuM/D48i5MqKFD/4rwAw6Qfyp/LeN4vp7ZuQMphtGk18lvrShinfNrFsEQSWTFmyNMY45ceSnMylvsRJiyyNNIZGhooRy9jjTWFXfPWd4GimdPWm22YlU2DwsygHv37d24Lp+xCRiYNvGIhkFBalDgw38OFvYnGymo5Qdx9us/nFAYv37yOnd2Jv1jGQOkCi9OvsD68h53iDGXkYyS7wefi+C5Wxx+gOLtNpyVlEP7lXtkattyBevDhL9ygeEj3ZJFtzGyB3JKP2CLfQln8CGX1Gp2UQIYHU0aexirMbIFytIViMNhwhkMWda1Xc5j6FLu7BapSRVF2P2b54vRLHNcLuPGuFzs2Te3HjU9v/9yV5n0ermjhCSLH85Xa5i3gLzFWP8VIvcIy+ZhwJ2VWdq1KnOoxGjX2P6CIqXQLVtvV0JXF3q0dDAZlVG+U7yKywOv+8RG+WDdYjK5DljHGicM7NQ7B6sGdt51evMMiSa22b4bA3/4xeIPhbzDWb2HYiJNxgZRFq42ucDbYxVquZ5QrZgDyoEuWQ1k1LnDrOzdQ9jS3+OnRCe5fzHEqYtHLGD/luliSpR0wI8bHJ3F189cugo0NZVvRTuK4Kj8FtiZ5mEVvkN8N0DqPY01aUW+30l4L0iaPF8DFDv1/z8noDVmchJHFSRhZnISRxUkYWZyEkcVJGFmchJHFSRjPQZwX6Ct44sg9J2Fo08xhTA0rybxoW/nJROdGVH3qTUWYVrIeZ0ROtiGZ9eZRvCnyGTTNGqZp/L6Rh8YGmjUNrX2AbU0+SdgyFD6DG2xyvnVQD/75K4byDg/j8jmQZB2ZnP0JKvd9WrfQiZ8WCEk41ZhgVrwOo19mwYSl8TPJ1hm4Cti7dQ1VNfANKhSSvJMa7p8c4/F6jWYgTw1tG0IoZF7aJ9uOPnvXTae7/BDtk0ahUKqCtXOcPf496sU/+Akn3Tub7bNDYUlxXseFexu2fBOqvEXe+B9BykNY1WCA4XSCoiyj6t3hYnFBnjWmk/j0iwguq8nV2Ve33WRUdksbg6E0xeEQeXL4LpazP8Cs/y6F8k77HwKgMGcgf4BF9WvU7sfs7nssbZ9ZHQwKUYwqVJMxBaJpBjNGHKkeT7f1HJOBw41rY1m6EdfQtfbDpDp7/C83HSyjxQF7jjMLnJ68h8XJO2gW70fIcgVTvIHV8LdY2Tc5Dl9nq4oQh/WToFUUZ7g95dA24lVXhvKoirevbJg7Y4Wbe/2sW5WhlpJsxtseurZUsm0xm5ylvESYbJ740UlbEI6Om7isbSynZ2rZ5AfofQyRAuGS/pKRKLI4CSOLkzCyOAkji5MwsjgJI4uTMLI4CSOLkzCyOAnjhREnepblKfTN9zzQozjtahx5iVx89iTk1/sdd4+Q9Wz9cgrbFaPMsYVad76Wv+0piR34tTQSiEDj+ZJ2spAngix9TH1cI8z7aRdw/u+P0nEp8+XfrND/ZRsOoechvaXHTryON8lcGvpZX/5JzibKhEcdP/zIjQYWsoTjSvdnhyycsnaJi9O/YDW/A2X2pXRjYVBYU+pXscDP4Iofsp/fYBuIy+dQHqAooKoK5Wjk/yZcXM1bmPUSg9JiZ1L5ZJk0hlDI+cYY/A8jhEQQGyedzAAAAABJRU5ErkJggg==;" vertex="1" parent="1">
          <mxGeometry x="307.16999999999996" y="486.9100000000001" width="80.9" height="73.83" as="geometry" />
        </mxCell>
        <mxCell id="b7mZYk1uwkJI4-mQCpKp-29" value="" style="shape=image;verticalLabelPosition=bottom;labelBackgroundColor=default;verticalAlign=top;aspect=fixed;imageAspect=0;image=data:image/png,iVBORw0KGgoAAAANSUhEUgAAAGcAAABeCAYAAAA+NAqcAAAAAXNSR0IArs4c6QAAAARnQU1BAACxjwv8YQUAAAAJcEhZcwAAFiUAABYlAUlSJPAAAAroSURBVHhe7V3Ljhy3FT1kVfVzHtJYlgw7cBxkl0UWMZBNNvEiu6z8AUHWWQfIPh8UeBEjmyDeJEAcW4iQBxzZiCzBHluW5tkz068qkjmX1TVjyV5EZAmgAB7odlWxVacv7yFZ1bzNGuUIZCQJvdlmJAhlrc09J1Go9XrdrzhKeettsBQ6kKzX0ZekzrNy6wuioRSJSNsbIaEODw9dVVWbw0gwgG61gnIWhYgUCWGwfK0tR9+iZACkJK7yjqIo3aCgldWGr4d41rWGsQW9LTYlMaSK9XZQ9+7dc9vb25uKR0DOtxbNwWOUFGhcxF/OpG3XrOzMDeHKMZwuWRpXaRFnUM0xGp1jMmEjKuJ6ufjIMGJ2WmGxHMPSVymN9VPOV/v7++7GjRt0sqCT4YRKa9imwfn+PvTZCYbGbt4JhxdHlTgrt9GoISz3YyHiDEdLTKcUZ7RiD/JtdPPus6OTYXY2xcV8gqaWUSic7woWuixLyLAm4sh+qBUUp+NRvAnUFJr36d7NYOvOJzdfuPe190JNIkmBtCpo5Cet5huhprSD9ibk+vIz/DbU5HzxUXpLX191PFe3L8Nc9HWnc7cFrxabvQhcUrTDUS9gINt6b2ofSyvn0+IvDBnPDVmchJHFSRhZnISRxUkYWZyEkcVJGFmchJHFSRhZnISho2ejvw5yeTbP2c+U0PNDj/Um2pr3y6mtte3cGk32Q02ksMa0+7R2gjFWIM/KKnsyX9KFIMQE3T5re1UYC/JIDJXUW47pavc5QcbzJXS6rtdomho1TbbBVl/tG9vwI9oP8p8SaK3AgDEidnscY3qzlUBKI/KifyMyISaTx2yktG99O8hY308+3Xfbu9c4vhU8pLOhkLl3ijI/PMBgvcB2EcXmIRfEhVN4aAs05QiQjK0IFwEJ38TOsafOsVtZlFQshrK7KjxcjXHSTNDocVsQCT9n/tH9A1cMp3RZQhFTcfHSolmcY1oa7I7bdG1MxSWZelEb/Pd8jnlVwlAc6UGhkDMto3l9ucBr8wtcZ0uvWBqTFuyi9nkxwcNyisVgImH10QiF8EmqX33y2Ylz5aRt+b44FHRHCJs5rm0VeGl3yrK4Vqm1xvlyibsHR3hkHZY8Fi9j0FCcV1YrvLGkOOsVCmva3FMg2uuhwhfDHewPdnCkhpLeiRJHGovkfLWSdJ6n6snIp3XB7s7WQ8ElwKEm8Fw+5dg2nVgTOKEWfjYm2f2a989uJL3qzd2ti6b5q0aQdTzC0i/I11dmVdDeSbb73whMhPkuHdFjLuEJr3ha/i7E4SaIHSUyniOyOAkji5MwsjgJI4uTMLI4CSOLkzCyOAkji5MwsjgJo39xlPzrJiD6QMvVJ6PHZsqlv4mm/qHblJOGUzLNJjmdQOP5Mo3orINxhrWWDOuT2dJnNYFwGG/t1H4fJkuHxE863jYkmUaOMvlX+vVDVg+jzchWDaH+8+DI6cEWXZZOFNOO6CSrbpYz7Iw1Xro23jgdjlJrzJYr3D04xLEusI7M5wgMe8zN5QLfXZxjr6lRsSG1+cswtPPHCp9XW9gfbOOkGLNEJA/3U84UNdT+3Q/dqOJupDayYNVahZNlxQBsYTCaki8ukJqBXNU1DhdzlNtDlJMB9Y9yki1SYzw/wu75I+yWhg0g0s1NHmx2+jEu5g8o9KItj4KMEgXU4Ud/dBM9p9LS4eNakHUaj9c3cWavo3Zdujaq5t5NpRrs3dzB1s4YNmY5o1RPhp7Zl8DpfUyLFUoVt+ywE2f5+G+wh39FsfyYh/TRl4dBuYaNaAJ1cvdPbmyP2HHEyQhCnm9cgUP3Ok7NHlYNh6DNe6GQFi1L+oYj4NXXXsL2tmRX47GaPcL80ceY1AdsnzUvG+H19iLQ0eXsLpqDP0MdveeDK40gGHYFV16LUONbwWjGKvLC4emRgce+SF5CrcVGHN/f290okOOSO12V/DWmu9BEu/k0AUPqb9MltHEmrxmJov/fEGT0AN6isPNpv8Y/IynIMx3WjYEuyu5ZLRmpoOSXr9Wa4pT+gT+b0owkIHL4Wwr50XnUN+SM3mEpiAxter2qN0UZqcBYx+uNPJ8nD2nJQR4eWRX5e06SkMuM/D48i5MqKFD/4rwAw6Qfyp/LeN4vp7ZuQMphtGk18lvrShinfNrFsEQSWTFmyNMY45ceSnMylvsRJiyyNNIZGhooRy9jjTWFXfPWd4GimdPWm22YlU2DwsygHv37d24Lp+xCRiYNvGIhkFBalDgw38OFvYnGymo5Qdx9us/nFAYv37yOnd2Jv1jGQOkCi9OvsD68h53iDGXkYyS7wefi+C5Wxx+gOLtNpyVlEP7lXtkattyBevDhL9ygeEj3ZJFtzGyB3JKP2CLfQln8CGX1Gp2UQIYHU0aexirMbIFytIViMNhwhkMWda1Xc5j6FLu7BapSRVF2P2b54vRLHNcLuPGuFzs2Te3HjU9v/9yV5n0ermjhCSLH85Xa5i3gLzFWP8VIvcIy+ZhwJ2VWdq1KnOoxGjX2P6CIqXQLVtvV0JXF3q0dDAZlVG+U7yKywOv+8RG+WDdYjK5DljHGicM7NQ7B6sGdt51evMMiSa22b4bA3/4xeIPhbzDWb2HYiJNxgZRFq42ucDbYxVquZ5QrZgDyoEuWQ1k1LnDrOzdQ9jS3+OnRCe5fzHEqYtHLGD/luliSpR0wI8bHJ3F189cugo0NZVvRTuK4Kj8FtiZ5mEVvkN8N0DqPY01aUW+30l4L0iaPF8DFDv1/z8noDVmchJHFSRhZnISRxUkYWZyEkcVJGFmchJHFSRjPQZwX6Ct44sg9J2Fo08xhTA0rybxoW/nJROdGVH3qTUWYVrIeZ0ROtiGZ9eZRvCnyGTTNGqZp/L6Rh8YGmjUNrX2AbU0+SdgyFD6DG2xyvnVQD/75K4byDg/j8jmQZB2ZnP0JKvd9WrfQiZ8WCEk41ZhgVrwOo19mwYSl8TPJ1hm4Cti7dQ1VNfANKhSSvJMa7p8c4/F6jWYgTw1tG0IoZF7aJ9uOPnvXTae7/BDtk0ahUKqCtXOcPf496sU/+Akn3Tub7bNDYUlxXseFexu2fBOqvEXe+B9BykNY1WCA4XSCoiyj6t3hYnFBnjWmk/j0iwguq8nV2Ve33WRUdksbg6E0xeEQeXL4LpazP8Cs/y6F8k77HwKgMGcgf4BF9WvU7sfs7nssbZ9ZHQwKUYwqVJMxBaJpBjNGHKkeT7f1HJOBw41rY1m6EdfQtfbDpDp7/C83HSyjxQF7jjMLnJ68h8XJO2gW70fIcgVTvIHV8LdY2Tc5Dl9nq4oQh/WToFUUZ7g95dA24lVXhvKoirevbJg7Y4Wbe/2sW5WhlpJsxtseurZUsm0xm5ylvESYbJ740UlbEI6Om7isbSynZ2rZ5AfofQyRAuGS/pKRKLI4CSOLkzCyOAkji5MwsjgJI4uTMLI4CSOLkzCyOAnjhREnepblKfTN9zzQozjtahx5iVx89iTk1/sdd4+Q9Wz9cgrbFaPMsYVad76Wv+0piR34tTQSiEDj+ZJ2spAngix9TH1cI8z7aRdw/u+P0nEp8+XfrND/ZRsOoechvaXHTryON8lcGvpZX/5JzibKhEcdP/zIjQYWsoTjSvdnhyycsnaJi9O/YDW/A2X2pXRjYVBYU+pXscDP4Iofsp/fYBuIy+dQHqAooKoK5Wjk/yZcXM1bmPUSg9JiZ1L5ZJk0hlDI+cYY/A8jhEQQGyedzAAAAABJRU5ErkJggg==;" vertex="1" parent="1">
          <mxGeometry x="307.17" y="632.49" width="80.9" height="73.83" as="geometry" />
        </mxCell>
        <mxCell id="b7mZYk1uwkJI4-mQCpKp-33" value="" style="endArrow=classic;html=1;rounded=0;strokeWidth=2;" edge="1" parent="1">
          <mxGeometry relative="1" as="geometry">
            <mxPoint x="386.5" y="433.81999999999994" as="sourcePoint" />
            <mxPoint x="486.5" y="433.81999999999994" as="targetPoint" />
          </mxGeometry>
        </mxCell>
        <mxCell id="b7mZYk1uwkJI4-mQCpKp-34" value="&lt;b&gt;Dense Layer&lt;/b&gt;" style="edgeLabel;resizable=0;html=1;align=center;verticalAlign=middle;" connectable="0" vertex="1" parent="b7mZYk1uwkJI4-mQCpKp-33">
          <mxGeometry relative="1" as="geometry">
            <mxPoint y="-2" as="offset" />
          </mxGeometry>
        </mxCell>
        <mxCell id="b7mZYk1uwkJI4-mQCpKp-36" value="" style="endArrow=classic;html=1;rounded=0;strokeWidth=2;" edge="1" parent="1">
          <mxGeometry relative="1" as="geometry">
            <mxPoint x="388.07" y="522.8199999999999" as="sourcePoint" />
            <mxPoint x="488.07" y="522.8199999999999" as="targetPoint" />
          </mxGeometry>
        </mxCell>
        <mxCell id="b7mZYk1uwkJI4-mQCpKp-37" value="&lt;b&gt;Mean Pooling&lt;/b&gt;" style="edgeLabel;resizable=0;html=1;align=center;verticalAlign=middle;" connectable="0" vertex="1" parent="b7mZYk1uwkJI4-mQCpKp-36">
          <mxGeometry relative="1" as="geometry" />
        </mxCell>
        <mxCell id="b7mZYk1uwkJI4-mQCpKp-40" value="" style="shape=table;startSize=0;container=1;collapsible=0;childLayout=tableLayout;fillColor=#dae8fc;strokeColor=#6c8ebf;" vertex="1" parent="1">
          <mxGeometry x="489.21" y="425.44000000000005" width="100" height="18.38" as="geometry" />
        </mxCell>
        <mxCell id="b7mZYk1uwkJI4-mQCpKp-41" value="" style="shape=tableRow;horizontal=0;startSize=0;swimlaneHead=0;swimlaneBody=0;strokeColor=inherit;top=0;left=0;bottom=0;right=0;collapsible=0;dropTarget=0;fillColor=none;points=[[0,0.5],[1,0.5]];portConstraint=eastwest;" vertex="1" parent="b7mZYk1uwkJI4-mQCpKp-40">
          <mxGeometry width="100" height="18" as="geometry" />
        </mxCell>
        <mxCell id="b7mZYk1uwkJI4-mQCpKp-42" value="" style="shape=partialRectangle;html=1;whiteSpace=wrap;connectable=0;strokeColor=inherit;overflow=hidden;fillColor=none;top=0;left=0;bottom=0;right=0;pointerEvents=1;" vertex="1" parent="b7mZYk1uwkJI4-mQCpKp-41">
          <mxGeometry width="20" height="18" as="geometry">
            <mxRectangle width="20" height="18" as="alternateBounds" />
          </mxGeometry>
        </mxCell>
        <mxCell id="b7mZYk1uwkJI4-mQCpKp-43" value="" style="shape=partialRectangle;html=1;whiteSpace=wrap;connectable=0;strokeColor=inherit;overflow=hidden;fillColor=none;top=0;left=0;bottom=0;right=0;pointerEvents=1;" vertex="1" parent="b7mZYk1uwkJI4-mQCpKp-41">
          <mxGeometry x="20" width="20" height="18" as="geometry">
            <mxRectangle width="20" height="18" as="alternateBounds" />
          </mxGeometry>
        </mxCell>
        <mxCell id="b7mZYk1uwkJI4-mQCpKp-44" value="" style="shape=partialRectangle;html=1;whiteSpace=wrap;connectable=0;strokeColor=inherit;overflow=hidden;fillColor=none;top=0;left=0;bottom=0;right=0;pointerEvents=1;" vertex="1" parent="b7mZYk1uwkJI4-mQCpKp-41">
          <mxGeometry x="40" width="20" height="18" as="geometry">
            <mxRectangle width="20" height="18" as="alternateBounds" />
          </mxGeometry>
        </mxCell>
        <mxCell id="b7mZYk1uwkJI4-mQCpKp-45" value="" style="shape=partialRectangle;html=1;whiteSpace=wrap;connectable=0;strokeColor=inherit;overflow=hidden;fillColor=none;top=0;left=0;bottom=0;right=0;pointerEvents=1;" vertex="1" parent="b7mZYk1uwkJI4-mQCpKp-41">
          <mxGeometry x="60" width="20" height="18" as="geometry">
            <mxRectangle width="20" height="18" as="alternateBounds" />
          </mxGeometry>
        </mxCell>
        <mxCell id="b7mZYk1uwkJI4-mQCpKp-46" value="" style="shape=partialRectangle;html=1;whiteSpace=wrap;connectable=0;strokeColor=inherit;overflow=hidden;fillColor=none;top=0;left=0;bottom=0;right=0;pointerEvents=1;" vertex="1" parent="b7mZYk1uwkJI4-mQCpKp-41">
          <mxGeometry x="80" width="20" height="18" as="geometry">
            <mxRectangle width="20" height="18" as="alternateBounds" />
          </mxGeometry>
        </mxCell>
        <mxCell id="b7mZYk1uwkJI4-mQCpKp-47" value="&lt;b&gt;SMILES序列表征&lt;/b&gt;" style="text;html=1;strokeColor=none;fillColor=none;align=center;verticalAlign=middle;whiteSpace=wrap;rounded=0;" vertex="1" parent="1">
          <mxGeometry x="484.21" y="443.37" width="110" height="26.77" as="geometry" />
        </mxCell>
        <mxCell id="b7mZYk1uwkJI4-mQCpKp-55" value="" style="shape=table;startSize=0;container=1;collapsible=0;childLayout=tableLayout;fillColor=#FFCC99;strokeColor=#bf766e;" vertex="1" parent="1">
          <mxGeometry x="489.21" y="514.63" width="100" height="18.38" as="geometry" />
        </mxCell>
        <mxCell id="b7mZYk1uwkJI4-mQCpKp-56" value="" style="shape=tableRow;horizontal=0;startSize=0;swimlaneHead=0;swimlaneBody=0;strokeColor=inherit;top=0;left=0;bottom=0;right=0;collapsible=0;dropTarget=0;fillColor=none;points=[[0,0.5],[1,0.5]];portConstraint=eastwest;" vertex="1" parent="b7mZYk1uwkJI4-mQCpKp-55">
          <mxGeometry width="100" height="18" as="geometry" />
        </mxCell>
        <mxCell id="b7mZYk1uwkJI4-mQCpKp-57" value="" style="shape=partialRectangle;html=1;whiteSpace=wrap;connectable=0;strokeColor=inherit;overflow=hidden;fillColor=none;top=0;left=0;bottom=0;right=0;pointerEvents=1;" vertex="1" parent="b7mZYk1uwkJI4-mQCpKp-56">
          <mxGeometry width="20" height="18" as="geometry">
            <mxRectangle width="20" height="18" as="alternateBounds" />
          </mxGeometry>
        </mxCell>
        <mxCell id="b7mZYk1uwkJI4-mQCpKp-58" value="" style="shape=partialRectangle;html=1;whiteSpace=wrap;connectable=0;strokeColor=inherit;overflow=hidden;fillColor=none;top=0;left=0;bottom=0;right=0;pointerEvents=1;" vertex="1" parent="b7mZYk1uwkJI4-mQCpKp-56">
          <mxGeometry x="20" width="20" height="18" as="geometry">
            <mxRectangle width="20" height="18" as="alternateBounds" />
          </mxGeometry>
        </mxCell>
        <mxCell id="b7mZYk1uwkJI4-mQCpKp-59" value="" style="shape=partialRectangle;html=1;whiteSpace=wrap;connectable=0;strokeColor=inherit;overflow=hidden;fillColor=none;top=0;left=0;bottom=0;right=0;pointerEvents=1;" vertex="1" parent="b7mZYk1uwkJI4-mQCpKp-56">
          <mxGeometry x="40" width="20" height="18" as="geometry">
            <mxRectangle width="20" height="18" as="alternateBounds" />
          </mxGeometry>
        </mxCell>
        <mxCell id="b7mZYk1uwkJI4-mQCpKp-60" value="" style="shape=partialRectangle;html=1;whiteSpace=wrap;connectable=0;strokeColor=inherit;overflow=hidden;fillColor=none;top=0;left=0;bottom=0;right=0;pointerEvents=1;" vertex="1" parent="b7mZYk1uwkJI4-mQCpKp-56">
          <mxGeometry x="60" width="20" height="18" as="geometry">
            <mxRectangle width="20" height="18" as="alternateBounds" />
          </mxGeometry>
        </mxCell>
        <mxCell id="b7mZYk1uwkJI4-mQCpKp-61" value="" style="shape=partialRectangle;html=1;whiteSpace=wrap;connectable=0;strokeColor=inherit;overflow=hidden;fillColor=none;top=0;left=0;bottom=0;right=0;pointerEvents=1;" vertex="1" parent="b7mZYk1uwkJI4-mQCpKp-56">
          <mxGeometry x="80" width="20" height="18" as="geometry">
            <mxRectangle width="20" height="18" as="alternateBounds" />
          </mxGeometry>
        </mxCell>
        <mxCell id="b7mZYk1uwkJI4-mQCpKp-62" value="&lt;b&gt;图表征&lt;/b&gt;" style="text;html=1;strokeColor=none;fillColor=none;align=center;verticalAlign=middle;whiteSpace=wrap;rounded=0;" vertex="1" parent="1">
          <mxGeometry x="484.21" y="533.97" width="110" height="26.77" as="geometry" />
        </mxCell>
      </root>
    </mxGraphModel>
  </diagram>
</mxfile>
